<?xml version="1.0" encoding="utf-8"?>
<!-- Generator: Adobe Illustrator 16.0.0, SVG Export Plug-In . SVG Version: 6.00 Build 0)  -->
<!DOCTYPE svg PUBLIC "-//W3C//DTD SVG 1.1//EN" "http://www.w3.org/Graphics/SVG/1.1/DTD/svg11.dtd">
<svg version="1.1" id="Layer_1" xmlns="http://www.w3.org/2000/svg" xmlns:xlink="http://www.w3.org/1999/xlink" x="0px" y="0px"
	 width="150px" height="150px" viewBox="0 0 150 150" style="enable-background:new 0 0 150 150;" xml:space="preserve">
<style type="text/css">
<![CDATA[
	.st0{fill:#2674BA;}
]]>
</style>
<g>
	<path class="st0" d="M31.1,57.9c-9.4,24.2,2.6,51.3,26.8,60.7c24.2,9.4,51.3-2.6,60.7-26.8c9.4-24.2-2.6-51.3-26.8-60.7
		C67.7,21.8,40.5,33.8,31.1,57.9z M80.9,59.5c8.5,3.3,12.7,12.9,9.4,21.4s-12.9,12.7-21.4,9.4c-8.5-3.3-12.7-12.9-9.4-21.4
		C62.8,60.4,72.4,56.2,80.9,59.5z"/>
	<path class="st0" d="M72.5,16.9c-4.7,0.2-9.4,1-13.9,2.3L48,6.2l-17.3,9.4l-0.4,0.2l5.3,16.3c-3.3,3-6.3,6.5-8.9,10.3l-17-3.2
		L2.6,57.6L2.4,58l14.9,9.3c-0.6,4.5-0.7,9-0.2,13.5L2.1,89.3L8.4,108l0.1,0.4l17.4-2.4c2.3,3.7,5.1,7.1,8.2,10.2l-6.3,16.6
		L44.6,143l0.3,0.2L56.9,130c4.3,1.4,8.7,2.3,13.1,2.7l5.7,16.3l19.5-3l0.4-0.1l0.6-17.2c4.4-1.7,8.6-4,12.5-6.8l14.4,8.6l13-14.8
		l0.3-0.3L126,102.3c1.1-2.1,2.1-4.2,2.9-6.4c0.9-2.3,1.6-4.6,2.2-6.9l16.3-2.7l0.5-19.7l0-0.4l-16.3-3.5c-1-4.6-2.5-9-4.6-13.2
		l11.1-12.9l-12.3-15.4l-0.3-0.3L110.4,29c-3.6-2.8-7.6-5.2-11.9-7.1l0.2-16.9L79.3,1L78.9,1L72.5,16.9z M93.4,27.1
		c26.4,10.2,39.5,39.9,29.2,66.3c-10.2,26.4-39.9,39.5-66.3,29.2C30,112.4,16.9,82.7,27.1,56.4S67,16.9,93.4,27.1z"/>
</g>
</svg>
