<svg xmlns="http://www.w3.org/2000/svg" viewBox="0 0 40 40"><g id="bg_x5F_prog"><g id="left"><path fill="#2674BA" d="M8.19 11.33L5.11 8.25C4.98 8.37 4.9 8.48 4.87 8.56L8 11.73C8.04 11.63 8.11 11.5 8.19 11.33z"/><polygon fill="#2674BA" points="3.61,23.05 3.61,23.14 3.61,23.79 7.22,20.18 6.94,19.72   "/><path fill="#2674BA" d="M9.31 10.36L6.16 7.25C6.12 7.29 6.08 7.32 6.02 7.36 5.97 7.4 5.91 7.44 5.85 7.48l3.1 3.08C9.06 10.46 9.2 10.4 9.31 10.36zM10.07 9.03L7.49 6.45C7.37 6.49 7.24 6.56 7.13 6.64l2.94 2.94V9.03zM3.61 25.88l4.16-4.16c-0.04-0.09-0.06-0.19-0.08-0.28 -0.02-0.08-0.04-0.19-0.08-0.29l-4.01 3.97V25.88zM7.9 22.65c0-0.23-0.04-0.46-0.09-0.7l-4.2 4.22h0.02v0.76L7.9 22.65zM3.61 24.85l3.91-3.91c-0.06-0.11-0.08-0.21-0.11-0.28 -0.04-0.09-0.08-0.19-0.11-0.29l-3.68 3.7V24.85zM6.33 18.89c0-0.02-0.04-0.04-0.08-0.06 0.53-0.57 0.95-1.22 1.23-1.94 0.29-0.72 0.44-1.52 0.44-2.35v-2.17c0-0.13 0.02-0.21 0.04-0.25l-3.3-3.3C4.58 8.99 4.5 9.11 4.45 9.17l3.21 3.21H7.16L4.3 9.51 4.11 9.87l2.49 2.51H6.1l-2.13-2.13c-0.04 0.08-0.06 0.13-0.08 0.21 0 0.08-0.02 0.15-0.04 0.21l1.69 1.73H5.06l-1.33-1.33c-0.02 0.08-0.04 0.15-0.04 0.23 0 0.08-0.02 0.15-0.04 0.23l0.84 0.85H4.03l-0.44-0.4v0.4 2.17c0 0.59-0.21 1.1-0.63 1.52 -0.42 0.42-0.93 0.63-1.52 0.63V21h0.04c0.27 0 0.47 0.04 0.65 0.12l0.19-0.19c0.08 0 0.19-0.02 0.3-0.06l-0.29 0.3c0.08 0.04 0.15 0.08 0.23 0.13s0.15 0.11 0.23 0.17l0.89-0.89c0.08-0.04 0.15-0.08 0.23-0.11 0.08-0.04 0.15-0.08 0.23-0.11v0.04l-1.2 1.2c0.13 0.15 0.25 0.28 0.34 0.44l3.08-3.08C6.35 18.93 6.35 18.91 6.33 18.89z"/><polygon fill="#2674BA" points="10.07,6.94 9.08,5.96 8.63,6.05 10.07,7.49   "/><path fill="#2674BA" d="M6.8 19.55c-0.04-0.08-0.09-0.15-0.15-0.23s-0.11-0.15-0.15-0.21l-3.11 3.11c0.11 0.19 0.17 0.38 0.19 0.59L6.8 19.55zM8.66 10.74L5.63 7.68 5.34 7.97l3.04 3.08C8.45 10.97 8.55 10.86 8.66 10.74zM9.8 5.9c-0.09 0-0.19 0.02-0.28 0.04l0.57 0.51V5.9C9.97 5.9 9.88 5.9 9.8 5.9zM9.8 29.64H9.59c-0.06-0.02-0.08-0.04-0.11-0.04s-0.08-0.02-0.11-0.04l0.06 0.06 -0.25 0.25 -0.11-0.11 0.19-0.21c-0.11-0.04-0.19-0.08-0.27-0.11 -0.08-0.04-0.15-0.08-0.23-0.12l-0.09 0.06 -0.11-0.11 0.06-0.06c-0.15-0.11-0.28-0.25-0.36-0.4l-0.09 0.06 -0.11-0.11 0.1-0.09c-0.04-0.08-0.08-0.17-0.11-0.25 -0.04-0.09-0.08-0.19-0.1-0.29 0-0.01 0-0.01-0.01-0.02l-0.18 0.16 -0.11-0.11 0.25-0.25 0 0c0-0.01 0-0.02 0-0.02v-0.09c-0.02-0.06-0.04-0.15-0.04-0.25v-0.4l-0.4 0.4H7.33l0.04 0.06 -0.21 0.25 -0.15-0.15 0.84-0.84v-0.78L6.4 27.51h-0.1l0.06 0.06 -0.25 0.25 -0.15-0.15 1.88-1.88V25l-2.49 2.49h-0.1l0.06 0.06 -0.25 0.25 -0.15-0.15 2.92-2.89v-0.78l-3.51 3.51H4.22l0.06 0.06 -0.25 0.25 -0.11-0.15 3.95-3.95v-0.53 -0.25l-4.31 4.31v0.25 0.3 0.06c0.02 0.02 0.04 0.06 0.04 0.11l0.06-0.06 0.11 0.15 -0.19 0.15c0.02 0.04 0.04 0.12 0.04 0.19v-0.04c0 0.04 0.02 0.08 0.04 0.09v0.15c0.02 0.04 0.04 0.08 0.04 0.12 0 0.04 0.02 0.08 0.04 0.11v0.02c0.02 0.06 0.04 0.13 0.04 0.21H3.8v0.04c0.04 0.23 0.11 0.42 0.19 0.59l0.21-0.21 0.11 0.11 -0.25 0.25 -0.06-0.06c0 0.02 0 0.02 0.02 0.04 0.02 0 0.02 0.02 0.02 0.04l0.04 0.04c0.06 0.21 0.13 0.38 0.21 0.49l0.09 0.19v0.02l0.19 0.28 0.09 0.19 0.04-0.04 0.15 0.13 -0.06 0.06c0.06 0.08 0.11 0.15 0.17 0.21 0.06 0.06 0.11 0.13 0.17 0.21l0.09-0.09 0.15 0.11 -0.11 0.11c0.08 0.08 0.13 0.13 0.19 0.19 0.06 0.08 0.13 0.13 0.21 0.19l0.09-0.11 0.15 0.15 -0.11 0.1c0.08 0.06 0.15 0.13 0.21 0.19 0.06 0.08 0.13 0.13 0.21 0.19l0.06-0.09 0.15 0.15 -0.06 0.04c0.13 0.09 0.21 0.15 0.25 0.19h0.04c0.1 0.04 0.15 0.08 0.19 0.11l0.19 0.1c0.04 0.04 0.08 0.06 0.11 0.06 0.02 0.02 0.04 0.04 0.06 0.04 0.08 0.06 0.17 0.09 0.25 0.11H7.5c0 0.02 0.02 0.04 0.06 0.04l0.16 0.08 -0.1-0.14 0.25-0.25 0.11 0.15 -0.24 0.24 0.01 0.01h0.04l0.55 0.19 0.06-0.06 0.09 0.11h0.06 0.06c0.13 0.04 0.21 0.06 0.25 0.06 0.04 0 0.08 0 0.09 0.02 0.02 0.02 0.04 0.02 0.06 0.02 0.04 0 0.08 0 0.1 0.02 0.02 0.02 0.06 0.02 0.1 0.02l0.25-0.25 0.11 0.15 -0.11 0.11c0.13 0 0.23 0.02 0.29 0.04h0.36v-0.68l-0.25 0.25 -0.11-0.15 0.25-0.25 0.11 0.15V32.2l-0.25 0.25 -0.11-0.15 0.25-0.25 0.11 0.15v-1.04L9.84 31.4l-0.11-0.13 0.25-0.25 0.11 0.13v-1.04l-0.25 0.25 -0.11-0.11L9.97 30l0.11 0.11v-0.5c-0.13 0-0.23-0.02-0.28-0.04V29.64zM4.11 28.78l-0.11-0.12 0.25-0.25 0.11 0.11L4.11 28.78zM4.62 30.36L4.5 30.24 4.71 30l0.15 0.11L4.62 30.36zM4.62 29.31L4.5 29.2l0.21-0.25 0.15 0.11L4.62 29.31zM4.62 28.25L4.5 28.14l0.21-0.25 0.15 0.15L4.62 28.25zM5.15 30.87L5 30.76l0.25-0.25 0.15 0.13L5.15 30.87zM5.15 29.83L5 29.71l0.25-0.25 0.15 0.11L5.15 29.83zM5.15 28.78L5 28.67l0.25-0.25 0.15 0.11L5.15 28.78zM5.66 31.4l-0.15-0.13 0.25-0.25 0.15 0.13L5.66 31.4zM5.66 30.36l-0.15-0.11L5.76 30l0.15 0.11L5.66 30.36zM5.66 29.31L5.51 29.2l0.25-0.25 0.15 0.11L5.66 29.31zM5.66 28.25l-0.15-0.11 0.25-0.25 0.15 0.15L5.66 28.25zM6.19 31.93l-0.15-0.15 0.25-0.21 0.15 0.11L6.19 31.93zM6.19 30.87l-0.15-0.11 0.25-0.25 0.15 0.13L6.19 30.87zM6.19 29.83l-0.15-0.11 0.25-0.25 0.15 0.11L6.19 29.83zM6.19 28.78l-0.15-0.12 0.25-0.25 0.15 0.11L6.19 28.78zM6.73 32.45l-0.15-0.15 0.25-0.25 0.15 0.15L6.73 32.45zM6.73 31.4l-0.15-0.13 0.25-0.25 0.15 0.13L6.73 31.4zM6.73 30.36l-0.15-0.11L6.82 30l0.15 0.11L6.73 30.36zM6.73 29.31L6.57 29.2l0.25-0.25 0.15 0.11L6.73 29.31zM6.73 28.25l-0.15-0.11 0.25-0.25 0.15 0.15L6.73 28.25zM7.24 32.98l-0.15-0.15 0.25-0.25 0.11 0.15L7.24 32.98zM7.24 31.93l-0.15-0.15 0.25-0.21 0.11 0.11L7.24 31.93zM7.24 30.87l-0.15-0.11 0.25-0.25 0.11 0.13L7.24 30.87zM7.24 29.83l-0.15-0.11 0.25-0.25 0.11 0.11L7.24 29.83zM7.24 28.78l-0.15-0.12 0.25-0.25 0.11 0.11L7.24 28.78zM7.73 32.45l-0.11-0.15 0.25-0.25 0.11 0.15L7.73 32.45zM7.73 31.4l-0.11-0.13 0.25-0.25 0.11 0.13L7.73 31.4zM7.73 30.36l-0.11-0.11L7.87 30l0.11 0.11L7.73 30.36zM7.73 29.31L7.62 29.2l0.25-0.25 0.11 0.11L7.73 29.31zM8.26 32.98l-0.11-0.15 0.25-0.25 0.11 0.15L8.26 32.98zM8.26 31.93l-0.11-0.15 0.25-0.21 0.11 0.11L8.26 31.93zM8.26 30.87l-0.11-0.11 0.25-0.25 0.11 0.13L8.26 30.87zM8.26 29.83l-0.11-0.11 0.25-0.25 0.11 0.11L8.26 29.83zM8.78 33.49l-0.11-0.15 0.25-0.25 0.11 0.15L8.78 33.49zM8.78 32.45l-0.11-0.15 0.25-0.25 0.11 0.15L8.78 32.45zM8.78 31.4l-0.11-0.13 0.25-0.25 0.11 0.13L8.78 31.4zM8.78 30.36l-0.11-0.11L8.91 30l0.11 0.11L8.78 30.36zM9.31 32.98L9.2 32.83l0.25-0.25 0.11 0.15L9.31 32.98zM9.31 31.93L9.2 31.78l0.25-0.21 0.11 0.11L9.31 31.93zM9.31 30.87L9.2 30.76l0.25-0.25 0.11 0.13L9.31 30.87zM6.63 6.89C6.56 6.92 6.5 6.96 6.44 7l3.25 3.23c0.09-0.02 0.23-0.04 0.4-0.04v-0.11l-3.3-3.3C6.75 6.81 6.69 6.85 6.63 6.89zM7.83 6.3l2.26 2.26V8.01L8.26 6.18C8.06 6.22 7.9 6.26 7.83 6.3z"/><polygon fill="#2674BA" points="7.73,33.49 7.74,33.48 7.72,33.48   "/><path fill="#2674BA" d="M7.98 28.04l-0.11-0.15c0 0.04 0.02 0.1 0.05 0.2L7.98 28.04z"/></g><g id="right"><path fill="#2674BA" d="M32.08 12.13h-0.02v0.49l3.55-3.55c-0.04-0.11-0.08-0.19-0.13-0.27 -0.04-0.08-0.09-0.15-0.13-0.23l-3.3 3.27C32.06 11.92 32.08 12.01 32.08 12.13zM32.1 13.91v0.36 0.4l4.12-4.1c-0.04-0.1-0.08-0.21-0.09-0.3 -0.02-0.1-0.06-0.21-0.09-0.3l-3.95 3.95H32.1zM32.08 13.67l3.85-3.87c-0.04-0.11-0.08-0.21-0.11-0.29s-0.08-0.17-0.11-0.25l-3.63 3.63V13.67zM32.51 16.61c0.06 0.11 0.09 0.19 0.13 0.27 0.04 0.08 0.08 0.17 0.11 0.27l3.63-3.63v-0.78L32.51 16.61zM33.41 18.2c0.06 0.06 0.11 0.13 0.15 0.21l3.12-3.06c-0.04-0.11-0.08-0.21-0.11-0.29 -0.04-0.09-0.08-0.19-0.09-0.28L33.25 18C33.29 18.07 33.35 18.15 33.41 18.2zM36.41 13.78l-3.55 3.55c0.04 0.08 0.08 0.17 0.13 0.25 0.04 0.08 0.09 0.17 0.13 0.25l3.3-3.3c-0.02-0.04-0.04-0.13-0.04-0.25h0.02V13.78zM31.93 11.35c0.04 0.08 0.08 0.19 0.09 0.29l3.21-3.19C35.12 8.29 35 8.16 34.89 8.01l-3.08 3.08C31.85 11.18 31.89 11.25 31.93 11.35zM32.17 15.28c0 0.11 0.02 0.23 0.04 0.32l4.14-4.16c-0.02-0.1-0.02-0.21-0.04-0.32 -0.02-0.11-0.04-0.23-0.08-0.32l-4.1 4.12C32.15 15.05 32.15 15.17 32.17 15.28zM32.36 16.12c0.02 0.08 0.06 0.19 0.1 0.28l3.93-3.93v-0.34 -0.4l-4.12 4.1C32.3 15.93 32.34 16.02 32.36 16.12zM31.18 10.36l3.04-3.04c-0.1-0.11-0.23-0.23-0.4-0.34l-3.13 3.13C30.86 10.17 31.01 10.27 31.18 10.36zM33.31 19.12l3.17 3.17c0.02-0.08 0.08-0.19 0.15-0.36l-3.08-3.11C33.48 18.89 33.39 19 33.31 19.12zM32.91 19.76l3.1 3.15h-0.49l-2.83-2.83c-0.08 0.13-0.13 0.27-0.15 0.4l2.43 2.43h-0.49l-2.09-2.09c-0.02 0.08-0.04 0.15-0.06 0.21 -0.02 0.06-0.04 0.13-0.06 0.21l1.67 1.67h-0.49l-1.25-1.27c-0.04 0.19-0.06 0.36-0.06 0.46l0.78 0.8h-0.49l-0.34-0.34v0.34 4.35c0 0.59-0.21 1.1-0.63 1.52 -0.42 0.42-0.93 0.63-1.52 0.63v4.31c0.87 0 1.71-0.17 2.51-0.51 0.8-0.34 1.48-0.8 2.07-1.39 0.59-0.59 1.04-1.27 1.39-2.05 0.34-0.78 0.51-1.61 0.51-2.53v-4.31 -0.19l-3.3-3.3C33.06 19.48 32.99 19.59 32.91 19.76zM38 16.34l-0.36 0.36 -0.11-0.15 0.25-0.25c-0.17-0.08-0.32-0.17-0.49-0.29l-0.74 0.78c-0.04 0.02-0.09 0.02-0.15 0.04 -0.06 0-0.11 0.02-0.15 0.04l0.1 0.09 -0.21 0.25 -0.15-0.15 1.18-1.14c-0.13-0.13-0.27-0.27-0.36-0.44l-3.06 3.08c0.08 0.08 0.11 0.13 0.19 0.19 0.08 0.06 0.13 0.13 0.19 0.21l0.04-0.06 0.15 0.11 -0.06 0.06c0.08 0.08 0.15 0.13 0.21 0.19 0.06 0.06 0.13 0.11 0.21 0.15l2.18 2.18c0.04-0.04 0.08-0.09 0.13-0.15 0.04-0.06 0.1-0.11 0.13-0.15l-1.14-1.1 0.25-0.25 0.11 0.11 -0.19 0.21 0.55 0.19h0.04l0.65 0.65c0.06-0.06 0.17-0.13 0.34-0.21l-0.25-0.25c0.04 0 0.08 0.02 0.09 0.04l0.21-0.21 0.13 0.11 -0.09 0.12h0.21l0.09 0.09c0.17-0.04 0.32-0.06 0.44-0.06v-4.31C38.32 16.44 38.15 16.4 38 16.34zM34.55 18.74l-0.15-0.11 0.25-0.25 0.15 0.15L34.55 18.74zM35.06 19.27l-0.15-0.11 0.25-0.25 0.15 0.11L35.06 19.27zM35.06 18.26l-0.15-0.15 0.25-0.25 0.15 0.15L35.06 18.26zM35.59 19.8l-0.15-0.11 0.25-0.25 0.15 0.11L35.59 19.8zM35.59 18.74l-0.15-0.11 0.25-0.25 0.15 0.15L35.59 18.74zM35.59 17.73l-0.15-0.15 0.25-0.25 0.15 0.15L35.59 17.73zM36.12 19.27l-0.15-0.11 0.25-0.25 0.11 0.11L36.12 19.27zM36.12 18.24l-0.15-0.15 0.25-0.25L36.33 18 36.12 18.24zM36.62 19.8l-0.11-0.11 0.25-0.25 0.11 0.11L36.62 19.8zM36.62 18.74l-0.11-0.11 0.25-0.25 0.11 0.15L36.62 18.74zM36.62 17.73l-0.11-0.15 0.25-0.25 0.11 0.15L36.62 17.73zM37.13 20.31l-0.11-0.11 0.25-0.25 0.11 0.11L37.13 20.31zM37.13 19.27l-0.11-0.11 0.25-0.25 0.11 0.11L37.13 19.27zM37.13 18.26l-0.11-0.15 0.25-0.25 0.11 0.15L37.13 18.26zM37.13 17.2l-0.11-0.15 0.25-0.25 0.11 0.15L37.13 17.2zM37.64 19.8l-0.11-0.11 0.25-0.25 0.13 0.11L37.64 19.8zM37.64 18.74l-0.11-0.11 0.25-0.25 0.13 0.15L37.64 18.74zM37.64 17.73l-0.11-0.15 0.25-0.25 0.13 0.15L37.64 17.73zM38.15 20.31l-0.11-0.11 0.25-0.25 0.13 0.11L38.15 20.31zM38.15 19.27l-0.11-0.11 0.25-0.25 0.13 0.11L38.15 19.27zM38.15 18.26l-0.11-0.15 0.25-0.25 0.13 0.15L38.15 18.26zM38.15 17.2l-0.11-0.15 0.25-0.25 0.13 0.15L38.15 17.2zM30.48 10.02l3.17-3.17c-0.1-0.1-0.25-0.21-0.46-0.3l-3.29 3.27v0.15c0.12 0 0.21 0 0.29 0.02C30.29 9.98 30.39 10 30.48 10.02zM31.53 10.68c0.08 0.08 0.13 0.15 0.19 0.21l3.06-3.08c-0.08-0.08-0.13-0.15-0.19-0.21 -0.08-0.08-0.13-0.13-0.19-0.19l-3.06 3.06C31.41 10.55 31.47 10.61 31.53 10.68zM29.93 9.55l3.11-3.11c-0.11-0.04-0.19-0.08-0.27-0.11 -0.08-0.04-0.17-0.08-0.27-0.11l-2.58 2.56V9.55zM32.02 6.01c-0.08-0.04-0.19-0.06-0.29-0.08l-1.84 1.82v0.78l2.41-2.41C32.21 6.09 32.12 6.05 32.02 6.01zM30.29 5.65c-0.11 0-0.25 0-0.36 0v0.78l0.74-0.74C30.54 5.67 30.41 5.65 30.29 5.65zM31.22 5.77C31.11 5.75 31 5.73 30.88 5.71L29.93 6.7v0.76l1.6-1.59C31.43 5.82 31.32 5.79 31.22 5.77z"/></g></g><g id="in_x5F_prog"><g class="nb"><path fill="#2674BA" d="M16.03 13.08h-0.09l0.23-0.23c-0.02-0.1-0.02-0.17-0.04-0.23l-0.44 0.46h-0.1l0.53-0.53c-0.02-0.04-0.04-0.06-0.04-0.1 -0.02-0.02-0.02-0.06-0.04-0.1l-0.72 0.72h-0.09l0.78-0.8c-0.02-0.06-0.06-0.11-0.08-0.17l-0.97 0.97h-0.09l1.03-1.03c0-0.02-0.02-0.06-0.04-0.08s-0.04-0.06-0.06-0.08l-1.08 1.08c0.02 0.02 0.02 0.06 0.02 0.1v2.91c0 0.21-0.08 0.38-0.21 0.51 -0.15 0.13-0.32 0.21-0.51 0.21h-0.19l-0.04 0.02 -0.02-0.02h-0.3l-0.04 0.02 -0.02-0.02h-0.13c-0.04 0-0.08 0-0.15-0.02l-1.08 1.08c0.02 0 0.06 0.02 0.08 0.04 0.02 0 0.06 0.02 0.08 0.04l1.08-1.08 0.04 0.04 -1.06 1.06c0.04 0.02 0.08 0.02 0.1 0.04 0.02 0.02 0.06 0.02 0.08 0.04l0.85-0.84 0.04 0.04 -0.82 0.84 0.19 0.06 0.61-0.59 0.04 0.04 -0.57 0.57c0.06 0.02 0.13 0.02 0.23 0.04l0.3-0.3 0.04 0.04 -0.27 0.27c0.04 0.02 0.08 0.02 0.11 0.02s0.08 0 0.11 0h0.72c0.28 0 0.57-0.06 0.84-0.17 0.27-0.11 0.49-0.27 0.68-0.46 0.19-0.19 0.34-0.42 0.46-0.68 0.11-0.25 0.17-0.53 0.17-0.84v-2.89c0-0.08-0.02-0.11-0.02-0.15L16.03 13.08zM13.43 18.09l-0.04-0.06 0.08-0.08 0.04 0.06L13.43 18.09zM13.43 17.75l-0.04-0.04 0.08-0.08 0.04 0.04L13.43 17.75zM13.43 17.39l-0.04-0.04 0.08-0.08 0.04 0.04L13.43 17.39zM13.43 17.05l-0.04-0.04 0.08-0.08 0.04 0.04L13.43 17.05zM13.6 17.94l-0.04-0.06 0.08-0.08 0.04 0.04L13.6 17.94zM13.6 17.56l-0.04-0.04 0.08-0.08 0.04 0.04L13.6 17.56zM13.6 17.22l-0.04-0.04 0.08-0.08 0.04 0.04L13.6 17.22zM13.6 16.88l-0.04-0.04 0.08-0.08 0.04 0.04L13.6 16.88zM13.77 18.09l-0.04-0.06 0.08-0.08 0.04 0.06L13.77 18.09zM13.77 17.75l-0.04-0.04 0.08-0.08 0.04 0.04L13.77 17.75zM13.77 17.39l-0.04-0.04 0.08-0.08 0.04 0.04L13.77 17.39zM13.77 17.05l-0.04-0.04 0.08-0.08 0.04 0.04L13.77 17.05zM14 17.86l-0.06 0.06 -0.04-0.06 0.1-0.06V17.86zM14 17.52l-0.06 0.06 -0.04-0.04 0.1-0.08V17.52zM14 17.16l-0.06 0.06 -0.04-0.04L14 17.1V17.16zM14 16.84l-0.06 0.04 -0.04-0.04 0.1-0.08V16.84zM12.56 14.69h0.08v-1.54c0-0.04 0.02-0.08 0.02-0.09l-0.02-0.02 0.02-0.02c0.02-0.02 0.02-0.04 0.02-0.06s0.02-0.04 0.02-0.06l0.02-0.02c0.02-0.04 0.04-0.06 0.04-0.08s0.02-0.02 0.02-0.02c0.02-0.04 0.04-0.08 0.06-0.1s0.04-0.06 0.06-0.08l0.02-0.02c0.04-0.02 0.06-0.04 0.08-0.06s0.04-0.04 0.08-0.06c0-0.02 0.02-0.02 0.02-0.02 0.04-0.04 0.11-0.06 0.19-0.08h0.02c0 0 0.02 0 0.04 0 0 0 0.02 0 0.04 0h0.04 0.23l0.06-0.06h0.17l1.18-1.18c-0.02 0-0.06-0.02-0.08-0.04 -0.02 0-0.03-0.01-0.04-0.02l0 0c-0.04-0.02-0.08-0.02-0.1-0.04 -0.04-0.02-0.06-0.02-0.1-0.04l-1.33 1.33v-0.02l-0.04-0.04 1.29-1.29c-0.04 0-0.08-0.02-0.11-0.02 -0.04 0-0.08-0.02-0.11-0.02l-1.04 1.04V12l-0.04-0.04 0.99-1.01c-0.04-0.02-0.08-0.02-0.11-0.02s-0.08 0-0.11 0h-0.02l-0.7 0.7v-0.02l-0.04-0.04 0.65-0.66h-0.27l-0.36 0.36v-0.02l-0.04-0.04 0.3-0.3h-0.27l-0.02 0.02v-0.02c-0.04 0-0.08 0-0.09 0 -0.04 0-0.06 0.02-0.1 0.02 -0.04 0-0.06 0-0.08 0 -0.02 0-0.06 0-0.08 0s-0.02 0-0.02 0h-0.02 -0.02c-0.02 0.02-0.04 0.02-0.06 0.02s-0.04 0.02-0.06 0.02c-0.01 0-0.01 0-0.02 0l0 0 -0.01 0.01c-0.04 0.01-0.08 0.02-0.11 0.03 0 0.02-0.02 0.02-0.02 0.02l-0.09 0.04 -0.02 0.02c-0.02 0-0.04 0.02-0.06 0.02 -0.02 0-0.04 0.02-0.06 0.02l-0.02 0.02v-0.02l-0.13 0.06 0.04 0.04 -0.08 0.08 -0.04-0.04c0 0.02-0.02 0.02-0.02 0.02l-0.02 0.02c-0.02 0-0.04 0.02-0.06 0.04l0.02 0.02 -0.06 0.08 -0.05-0.03 -0.02 0.02c-0.02 0.02-0.04 0.02-0.06 0.04 0 0.02-0.02 0.02-0.04 0.04 0 0.02-0.02 0.02-0.04 0.04 0 0.02-0.02 0.02-0.04 0.04l-0.02 0.02c-0.04 0.02-0.06 0.04-0.06 0.06 -0.02 0-0.02 0-0.04 0.02 -0.02 0-0.02 0.02-0.04 0.04 -0.02 0-0.02 0.02-0.04 0.04v-0.02c-0.02 0-0.02 0.04-0.04 0.06l-0.04 0.04v0.02l-0.03 0.05 0.03-0.03 0.06 0.04 -0.08 0.08 -0.06-0.04c-0.02 0.02-0.02 0.02-0.02 0.04s0 0.02-0.02 0.04 -0.02 0.02-0.02 0.04c-0.02 0.02-0.02 0.04-0.02 0.04l0.02-0.02 0.06 0.04 -0.08 0.08 -0.04-0.04c0 0.02-0.02 0.04-0.02 0.06 0 0.02 0 0.04-0.02 0.06l-0.02 0.02c0 0.02-0.02 0.04-0.02 0.06 0 0.02-0.02 0.04-0.02 0.06v0.02c-0.02 0.02-0.02 0.06-0.04 0.11v0.02c-0.02 0.04-0.04 0.08-0.04 0.09l0.06-0.08 0.06 0.06 -0.08 0.08 -0.04-0.04c-0.02 0-0.02 0.02-0.02 0.04 0 0-0.02 0.02-0.02 0.04v0.02c-0.02 0.02-0.02 0.02-0.02 0.04 -0.02 0.04-0.02 0.09-0.02 0.15h-0.02v0.04 0.02V13v0.06 1.67l0.23-0.23h0.09l-0.32 0.32v0.27l0.57-0.57h0.09l-0.66 0.66v0.25l0.93-0.93h0.08l-1.01 1.01v0.27l1.27-1.27h0.1l-1.37 1.37v0.08c0 0.04 0 0.08 0 0.09 0 0.04 0.02 0.06 0.02 0.09L12.56 14.69zM13.6 12.34h0.02l-0.02 0.02V12.34zM13.14 10.97l0.04 0.06 -0.08 0.08 -0.04-0.06L13.14 10.97zM13.14 11.31l0.04 0.04 -0.08 0.08 -0.04-0.04L13.14 11.31zM13.14 11.67l0.04 0.04 -0.08 0.08 -0.04-0.04L13.14 11.67zM13.14 12.01l0.04 0.04 -0.08 0.08 -0.04-0.04L13.14 12.01zM12.97 11.12l0.04 0.06 -0.08 0.08 -0.04-0.04L12.97 11.12zM12.97 11.5l0.04 0.04 -0.08 0.08 -0.04-0.04L12.97 11.5zM12.97 11.84l0.04 0.04 -0.08 0.08 -0.04-0.04L12.97 11.84zM12.97 12.19l0.04 0.04 -0.08 0.08 -0.04-0.04L12.97 12.19zM12.8 11.31l0.04 0.04 -0.08 0.08 -0.04-0.04L12.8 11.31zM12.8 11.67l0.04 0.04 -0.08 0.08 -0.04-0.04L12.8 11.67zM12.8 12.01l0.04 0.04 -0.08 0.08 -0.04-0.04L12.8 12.01zM12.8 12.37l0.04 0.04 -0.08 0.08 -0.04-0.06L12.8 12.37zM12.63 11.12l0.04 0.06 -0.08 0.08 -0.04-0.04L12.63 11.12zM12.63 11.5l0.04 0.04 -0.08 0.08 -0.04-0.04L12.63 11.5zM12.63 11.84l0.04 0.04 -0.08 0.08 -0.04-0.04L12.63 11.84zM12.63 12.19l0.04 0.04 -0.08 0.08 -0.04-0.04L12.63 12.19zM12.63 12.53l0.04 0.06 -0.08 0.08 -0.04-0.06L12.63 12.53zM11.19 13l-0.04-0.06 0.08-0.08 0.06 0.06L11.19 13zM11.38 13.08l0.02-0.02 0.02 0.02H11.38zM11.38 12.83l-0.06-0.06 0.08-0.08 0.06 0.06L11.38 12.83zM11.38 12.51l-0.06-0.06 0.08-0.08 0.06 0.04L11.38 12.51zM11.55 13l-0.06-0.06 0.08-0.08 0.06 0.06L11.55 13zM11.55 12.66l-0.06-0.06 0.08-0.08 0.06 0.06L11.55 12.66zM11.55 12.3l-0.06-0.04 0.08-0.08 0.06 0.04L11.55 12.3zM11.74 13.08l0.02-0.02 0.02 0.02H11.74zM11.74 12.83l-0.06-0.06 0.08-0.08 0.06 0.06L11.74 12.83zM11.74 12.51l-0.06-0.06 0.08-0.08 0.06 0.04L11.74 12.51zM11.74 12.13l-0.06-0.04 0.08-0.08 0.06 0.04L11.74 12.13zM11.74 11.79l-0.06-0.04 0.08-0.08 0.06 0.04L11.74 11.79zM11.91 13l-0.06-0.06 0.08-0.08 0.06 0.06L11.91 13zM11.91 12.66l-0.06-0.06 0.08-0.08 0.06 0.06L11.91 12.66zM11.91 12.3l-0.06-0.04 0.08-0.08 0.06 0.04L11.91 12.3zM11.91 11.96l-0.06-0.04 0.08-0.08 0.06 0.04L11.91 11.96zM11.91 11.6l-0.06-0.04 0.08-0.08 0.06 0.04L11.91 11.6zM12.08 13.08l0.02-0.02 0.02 0.02H12.08zM12.08 12.83l-0.06-0.06 0.08-0.08 0.04 0.06L12.08 12.83zM12.08 12.51l-0.06-0.06 0.08-0.08 0.04 0.04L12.08 12.51zM12.08 12.13l-0.06-0.04 0.08-0.08 0.04 0.04L12.08 12.13zM12.08 11.79l-0.06-0.04 0.08-0.08 0.04 0.04L12.08 11.79zM12.25 13l-0.04-0.06 0.08-0.08 0.04 0.06L12.25 13zM12.25 12.66l-0.04-0.06 0.08-0.08 0.04 0.06L12.25 12.66zM12.25 12.3l-0.04-0.04 0.08-0.08 0.04 0.04L12.25 12.3zM12.25 11.96l-0.04-0.04 0.08-0.08 0.04 0.04L12.25 11.96zM12.25 11.6l-0.04-0.04 0.08-0.08 0.04 0.04L12.25 11.6zM12.46 11.31l0.04 0.04 -0.08 0.08 -0.04-0.04L12.46 11.31zM12.46 11.67l0.04 0.04 -0.08 0.08 -0.04-0.04L12.46 11.67zM12.46 12.01l0.04 0.04 -0.08 0.08 -0.04-0.04L12.46 12.01zM12.46 12.37l0.04 0.04 -0.08 0.1 -0.04-0.06L12.46 12.37zM12.39 12.77l0.08-0.08 0.04 0.06 -0.08 0.08L12.39 12.77zM12.44 13.08l0.02-0.02 0.02 0.02H12.44z"/><polygon fill="#2674BA" points="11.54,11.87 11.49,11.92 11.51,11.92   "/><path fill="#2674BA" d="M14.66 12.81c0.02 0.04 0.02 0.06 0.04 0.09l1.06-1.06c-0.02-0.04-0.04-0.06-0.06-0.08 -0.02-0.02-0.04-0.06-0.06-0.08l-1.03 1.02C14.65 12.75 14.65 12.79 14.66 12.81zM14.34 12.43c0.02 0.02 0.06 0.04 0.08 0.06l1.03-1.03c-0.04-0.02-0.06-0.04-0.08-0.06s-0.06-0.04-0.08-0.06l-1.04 1.04C14.28 12.41 14.32 12.41 14.34 12.43zM12.54 15.39v-0.25l-1.37 1.37c0.02 0.04 0.04 0.06 0.04 0.1 0.02 0.02 0.02 0.06 0.04 0.09l1.31-1.31H12.54zM14 12.36c0.04 0 0.09 0 0.17 0.02l1.06-1.06c-0.02-0.02-0.06-0.04-0.08-0.06 -0.02 0-0.06-0.02-0.08-0.04l-1.14 1.14H14zM12.12 11.33l-0.02-0.02 -0.08 0.08 0.01 0 0.07-0.04C12.1 11.35 12.1 11.33 12.12 11.33zM12.25 11.22l-0.04 0.04c0.02 0 0.02-0.02 0.02-0.02S12.25 11.24 12.25 11.22zM14.59 12.66l1.03-1.03c-0.04-0.04-0.08-0.1-0.13-0.13l-1.03 1.03C14.51 12.56 14.57 12.6 14.59 12.66zM12.56 15.96h0.02v-0.11l-1.18 1.16c0.02 0.08 0.06 0.11 0.09 0.17l1.08-1.08C12.56 16.06 12.56 16.02 12.56 15.96zM12.58 15.74v-0.27l-1.29 1.29c0.02 0.02 0.02 0.06 0.04 0.08 0.02 0.04 0.02 0.06 0.04 0.1l1.2-1.2H12.58zM12.56 15.03v-0.27l-1.42 1.42c0 0.04 0.02 0.08 0.02 0.11s0.02 0.08 0.02 0.11L12.56 15.03zM12.77 16.46c-0.02-0.04-0.04-0.06-0.06-0.08l-1.04 1.04c0.04 0.02 0.06 0.04 0.08 0.06 0.04 0.02 0.06 0.04 0.08 0.06l1.03-1.03C12.8 16.5 12.78 16.48 12.77 16.46zM12.63 16.25c-0.02-0.04-0.04-0.06-0.04-0.1l-1.06 1.04c0.02 0.02 0.04 0.06 0.06 0.08 0.02 0.04 0.04 0.06 0.06 0.08l1.02-1.03C12.65 16.31 12.65 16.27 12.63 16.25zM12.96 16.59c-0.02 0-0.06-0.02-0.08-0.04l-1.04 1.03c0.04 0.02 0.06 0.04 0.08 0.06 0.04 0.02 0.06 0.04 0.08 0.06l1.06-1.06C13.01 16.61 12.97 16.61 12.96 16.59z"/></g><g class="nb"><polygon fill="#2674BA" points="18.9,12.96 17.46,14.41 17.46,14.67 18.9,13.23   "/><polygon fill="#2674BA" points="18.9,13.31 17.46,14.75 17.46,15.01 18.9,13.57   "/><polygon fill="#2674BA" points="18.9,13.65 17.46,15.09 17.46,15.36 18.9,13.91   "/><polygon fill="#2674BA" points="18.9,14.01 17.46,15.45 17.46,15.72 18.9,14.27   "/><polygon fill="#2674BA" points="16.73,18.13 16.87,18.13 16.73,18   "/><polygon fill="#2674BA" points="18.9,14.35 17.46,15.79 17.46,16.06 18.9,14.62   "/><polygon fill="#2674BA" points="18.9,12.6 17.46,14.05 17.46,14.31 18.9,12.87   "/><path fill="#2674BA" d="M18.94 16.69v-0.23l-0.28 0.28 -0.04-0.06 0.32-0.32V16.1l-0.65 0.65 -0.04-0.06L18.94 16v-0.27l-0.99 0.99 -0.06-0.06 1.03-1.03v-0.27l-1.33 1.35 -0.06-0.06 1.39-1.37v-0.27l-1.44 1.44v0.19h-0.13l0.15 0.15 -0.02 0.02v0.13l-0.28-0.28H17l0.49 0.49 -0.02 0.02v0.13l-0.65-0.65h-0.08v0.1l0.74 0.74 -0.02 0.02v0.13l-0.72-0.72v0.19l0.74 0.74 -0.02 0.02v0.13l-0.72-0.72v0.19l0.65 0.65h0.19l-0.06-0.04 0.08-0.08 0.06 0.04 -0.08 0.08h0.34l-0.04-0.04 0.08-0.08 0.04 0.04 -0.08 0.08h0.34l-0.04-0.04 0.08-0.08 0.04 0.04 -0.08 0.08h0.34l-0.04-0.04 0.08-0.08 0.04 0.04 -0.08 0.08h0.34l-0.06-0.06v-0.17l0.23 0.23h0.19l-0.42-0.42v-0.17l0.57 0.57h0.15v-0.04l-0.72-0.72V17.2l0.72 0.72v-0.17l-0.72-0.72v-0.17l0.72 0.72v-0.19l-0.72-0.7H18.94zM17.57 17.77l-0.06-0.04 0.08-0.08 0.06 0.04L17.57 17.77zM17.57 17.43l-0.06-0.06 0.08-0.08 0.06 0.06L17.57 17.43zM17.57 17.08l-0.06-0.06 0.08-0.08 0.06 0.06L17.57 17.08zM17.74 17.94l-0.06-0.04 0.08-0.08 0.06 0.04L17.74 17.94zM17.74 17.6l-0.06-0.04 0.08-0.08 0.06 0.04L17.74 17.6zM17.74 17.25l-0.06-0.06 0.08-0.08 0.06 0.06L17.74 17.25zM17.74 16.91l-0.06-0.06 0.08-0.08 0.06 0.06L17.74 16.91zM17.93 17.77l-0.04-0.04 0.08-0.08 0.04 0.04L17.93 17.77zM17.93 17.43l-0.04-0.06 0.08-0.08 0.04 0.06L17.93 17.43zM17.93 17.08l-0.04-0.06 0.08-0.08 0.04 0.06L17.93 17.08zM18.08 17.94l-0.04-0.04 0.08-0.08 0.04 0.04L18.08 17.94zM18.08 17.6l-0.04-0.04 0.08-0.08 0.04 0.04L18.08 17.6zM18.08 17.25l-0.04-0.06 0.08-0.08 0.04 0.06L18.08 17.25zM18.08 16.91l-0.04-0.06 0.08-0.08 0.04 0.06L18.08 16.91zM18.27 17.77l-0.04-0.04 0.08-0.08 0.04 0.04L18.27 17.77zM18.27 17.43l-0.04-0.06 0.08-0.08 0.04 0.06L18.27 17.43zM18.27 17.08l-0.04-0.06 0.08-0.08 0.04 0.06L18.27 17.08zM18.44 17.94L18.4 17.9l0.08-0.08 0.04 0.04L18.44 17.94zM18.44 17.6l-0.04-0.04 0.08-0.08 0.04 0.04L18.44 17.6zM18.44 17.25L18.4 17.2l0.08-0.08 0.04 0.06L18.44 17.25zM18.44 16.91l-0.04-0.06 0.08-0.08 0.04 0.06L18.44 16.91zM18.61 17.77l-0.04-0.04 0.08-0.08 0.04 0.04L18.61 17.77zM18.61 17.43l-0.04-0.06 0.08-0.08 0.04 0.06L18.61 17.43zM18.61 17.08l-0.04-0.06 0.08-0.08 0.04 0.06L18.61 17.08zM18.78 17.94l-0.04-0.04 0.08-0.08 0.04 0.04L18.78 17.94zM18.78 17.6l-0.04-0.04 0.08-0.08 0.04 0.04L18.78 17.6zM18.78 17.25l-0.04-0.06 0.08-0.08 0.04 0.06L18.78 17.25zM18.78 16.91l-0.04-0.06 0.08-0.08 0.04 0.06L18.78 16.91z"/><polygon fill="#2674BA" points="19.62,16.69 19.45,16.69 19.64,16.88   "/><polygon fill="#2674BA" points="17.46,16.4 18.9,14.96 18.9,14.69 17.46,16.13   "/><polygon fill="#2674BA" points="16.73,17.82 17.02,18.11 17.21,18.11 16.73,17.63   "/><polygon fill="#2674BA" points="17.46,12.56 17.68,12.32 17.76,12.32 17.46,12.62 17.46,12.89 18.01,12.34 18.1,12.34     17.46,12.98 17.46,13.25 18.37,12.34 18.46,12.34 17.46,13.34 17.46,13.61 18.71,12.36 18.8,12.36 17.46,13.7 17.46,13.97     18.9,12.53 18.9,10.91 16.73,10.91 16.73,12.36 17.46,12.36   "/><polygon fill="#2674BA" points="19.07,16.69 19.62,17.24 19.62,17.05 19.26,16.69   "/></g><g class="nb"><polygon fill="#2674BA" points="20.69,11.87 20.65,11.92 20.67,11.92   "/><path fill="#2674BA" d="M25.22 13.08h-0.09l0.23-0.23c-0.02-0.1-0.02-0.17-0.04-0.23l-0.44 0.46h-0.1l0.53-0.53c-0.02-0.04-0.02-0.08-0.04-0.1 -0.02-0.02-0.02-0.06-0.04-0.1l-0.72 0.72h-0.09l0.78-0.8c-0.02-0.06-0.06-0.11-0.08-0.17l-0.97 0.97h-0.09l1.03-1.03c0-0.02-0.02-0.06-0.04-0.08 -0.02-0.02-0.04-0.06-0.06-0.08l-1.08 1.08c0.02 0.02 0.02 0.06 0.02 0.1v2.91c0 0.21-0.08 0.38-0.21 0.51 -0.15 0.13-0.32 0.21-0.51 0.21h-0.19l-0.04 0.02 -0.02-0.02h-0.3l-0.04 0.02L22.6 16.7h-0.13c-0.04 0-0.08 0-0.15-0.02l-1.08 1.08c0.02 0 0.06 0.02 0.08 0.04 0.02 0 0.06 0.02 0.08 0.04l1.08-1.08 0.04 0.04 -1.06 1.06c0.04 0.02 0.08 0.02 0.1 0.04 0.02 0.02 0.06 0.02 0.08 0.04l0.85-0.84 0.04 0.04 -0.82 0.84 0.19 0.06 0.59-0.59 0.04 0.04 -0.57 0.57c0.06 0.02 0.13 0.02 0.23 0.04l0.3-0.3 0.04 0.04 -0.27 0.27c0.04 0.02 0.08 0.02 0.12 0.02 0.04 0 0.08 0 0.11 0h0.72c0.29 0 0.57-0.06 0.84-0.17 0.26-0.11 0.49-0.27 0.68-0.46 0.19-0.19 0.34-0.42 0.46-0.68 0.11-0.25 0.17-0.53 0.17-0.84v-2.89c0-0.08-0.02-0.11-0.02-0.15L25.22 13.08zM22.58 18.09l-0.04-0.06 0.08-0.08 0.04 0.06L22.58 18.09zM22.58 17.75l-0.04-0.04 0.08-0.08 0.04 0.04L22.58 17.75zM22.58 17.39l-0.04-0.04 0.08-0.08 0.04 0.04L22.58 17.39zM22.58 17.05l-0.04-0.04 0.08-0.08 0.04 0.04L22.58 17.05zM22.75 17.94l-0.04-0.06 0.08-0.08 0.04 0.04L22.75 17.94zM22.75 17.56l-0.04-0.04 0.08-0.08 0.04 0.04L22.75 17.56zM22.75 17.22l-0.04-0.04 0.08-0.08 0.04 0.04L22.75 17.22zM22.75 16.88l-0.04-0.04 0.08-0.08 0.04 0.04L22.75 16.88zM22.94 18.09l-0.04-0.06 0.08-0.08 0.04 0.06L22.94 18.09zM22.94 17.75l-0.04-0.04 0.08-0.08 0.04 0.04L22.94 17.75zM22.94 17.39l-0.04-0.04 0.08-0.08 0.04 0.04L22.94 17.39zM22.94 17.05l-0.04-0.04 0.08-0.08 0.04 0.04L22.94 17.05zM23.15 17.86l-0.06 0.06 -0.04-0.06 0.09-0.06V17.86zM23.15 17.52l-0.06 0.06 -0.04-0.04 0.09-0.08V17.52zM23.15 17.16l-0.06 0.06 -0.04-0.04 0.09-0.08V17.16zM23.15 16.84l-0.06 0.04 -0.04-0.04 0.09-0.08V16.84zM21.27 11.33c0 0 0.01 0 0.01-0.01l-0.01-0.01 -0.07 0.07 0.05-0.03C21.25 11.35 21.25 11.33 21.27 11.33zM21.39 11.24c0 0 0 0.02-0.02 0.02l0.04-0.04C21.41 11.24 21.39 11.24 21.39 11.24zM21.71 15.03v-0.27l-1.42 1.42c0 0.04 0.02 0.08 0.02 0.11s0.02 0.08 0.02 0.11L21.71 15.03zM23.82 12.81c0.02 0.04 0.02 0.06 0.04 0.09l1.06-1.06c-0.02-0.04-0.04-0.06-0.06-0.08 -0.02-0.02-0.04-0.06-0.06-0.08l-1.03 1.02C23.8 12.75 23.8 12.79 23.82 12.81zM22.11 16.59c-0.02 0-0.06-0.02-0.08-0.04l-1.04 1.03c0.04 0.02 0.06 0.04 0.08 0.06 0.04 0.02 0.06 0.04 0.08 0.06l1.06-1.06C22.16 16.61 22.13 16.61 22.11 16.59zM21.69 15.39v-0.25l-1.37 1.37c0.02 0.04 0.04 0.06 0.04 0.1 0.02 0.02 0.02 0.06 0.04 0.09l1.31-1.31H21.69zM21.79 16.25c-0.02-0.04-0.04-0.06-0.04-0.1l-1.06 1.04c0.02 0.02 0.04 0.06 0.06 0.08 0.02 0.04 0.04 0.06 0.06 0.08l1.03-1.03C21.8 16.31 21.8 16.27 21.79 16.25zM21.92 16.46c-0.02-0.04-0.04-0.06-0.06-0.08l-1.04 1.04c0.04 0.02 0.06 0.04 0.08 0.06 0.04 0.02 0.06 0.04 0.08 0.06l1.03-1.03C21.96 16.5 21.94 16.48 21.92 16.46zM21.73 15.74v-0.27l-1.29 1.29c0.02 0.02 0.02 0.06 0.04 0.08 0.02 0.04 0.02 0.06 0.04 0.1l1.2-1.2H21.73zM23.74 12.66l1.03-1.03c-0.04-0.04-0.08-0.1-0.13-0.13l-1.03 1.03C23.66 12.56 23.72 12.6 23.74 12.66zM23.49 12.43c0.02 0.02 0.06 0.04 0.08 0.06l1.03-1.03c-0.04-0.02-0.06-0.04-0.08-0.06s-0.06-0.04-0.08-0.06l-1.04 1.04C23.44 12.41 23.48 12.41 23.49 12.43zM23.15 12.36c0.04 0 0.09 0 0.17 0.02l1.06-1.06c-0.02-0.02-0.06-0.04-0.08-0.06 -0.02 0-0.06-0.02-0.08-0.04l-1.14 1.14H23.15zM21.71 15.96h0.02v-0.11l-1.18 1.16c0.02 0.08 0.06 0.11 0.09 0.17l1.08-1.08C21.71 16.06 21.71 16.02 21.71 15.96zM21.71 14.69h0.08v-1.54c0-0.04 0.02-0.08 0.02-0.09l-0.02-0.02 0.02-0.02c0.02-0.02 0.02-0.04 0.02-0.06s0.02-0.04 0.02-0.06l0.02-0.02c0.02-0.04 0.04-0.06 0.04-0.08s0.02-0.02 0.02-0.02c0.02-0.04 0.04-0.08 0.06-0.1s0.04-0.06 0.06-0.08l0.02-0.02c0.04-0.02 0.06-0.04 0.08-0.06s0.04-0.04 0.08-0.06c0-0.02 0.02-0.02 0.02-0.02 0.04-0.04 0.11-0.06 0.19-0.08h0.02c0 0 0.02 0 0.04 0 0 0 0.02 0 0.04 0h0.04 0.23l0.06-0.06H23l1.18-1.18c-0.02 0-0.06-0.02-0.08-0.04 -0.02 0-0.03-0.01-0.04-0.02l0 0c-0.04-0.02-0.08-0.02-0.09-0.04 -0.04-0.02-0.06-0.02-0.09-0.04l-1.33 1.33v-0.02l-0.04-0.04 1.29-1.29c-0.04 0-0.08-0.02-0.11-0.02s-0.08-0.02-0.11-0.02l-1.04 1.04V12l-0.04-0.04 0.99-1.01c-0.04-0.02-0.08-0.02-0.11-0.02s-0.08 0-0.11 0h-0.02l-0.7 0.7v-0.02l-0.04-0.04 0.65-0.66h-0.27l-0.36 0.36v-0.02l-0.04-0.04 0.3-0.3h-0.27l-0.02 0.02v-0.02c-0.04 0-0.08 0-0.09 0 -0.04 0-0.06 0.02-0.09 0.02s-0.06 0-0.08 0 -0.06 0-0.08 0 -0.02 0-0.02 0h-0.02 -0.02c-0.02 0.02-0.04 0.02-0.06 0.02 -0.02 0-0.04 0.02-0.06 0.02 -0.01 0-0.01 0-0.02 0l0 0 -0.01 0.01c-0.04 0.01-0.08 0.02-0.11 0.03 0 0.02-0.02 0.02-0.02 0.02l-0.09 0.04 -0.02 0.02c-0.02 0-0.04 0.02-0.06 0.02s-0.04 0.02-0.06 0.02l-0.02 0.02v-0.02l-0.13 0.06 0.04 0.04 -0.08 0.08 -0.04-0.04c0 0.02-0.02 0.02-0.02 0.02l-0.02 0.02c-0.02 0-0.03 0.02-0.05 0.03l0.03 0.03 -0.06 0.08 -0.06-0.04 0.01-0.01 -0.05 0.03c-0.02 0.02-0.04 0.02-0.06 0.04 0 0.02-0.02 0.02-0.04 0.04 0 0.02-0.02 0.02-0.04 0.04 0 0.02-0.02 0.02-0.04 0.04l-0.02 0.02c-0.04 0.02-0.06 0.04-0.06 0.06 -0.02 0-0.02 0-0.04 0.02 -0.02 0-0.02 0.02-0.04 0.04 -0.02 0-0.02 0.02-0.04 0.04v-0.02c-0.02 0-0.02 0.04-0.04 0.06l-0.04 0.04v0.02l-0.03 0.05 0.03-0.03 0.06 0.04 -0.08 0.08 -0.06-0.04c-0.02 0.02-0.02 0.02-0.02 0.04s0 0.02-0.02 0.04c-0.02 0.02-0.02 0.02-0.02 0.04 -0.02 0.02-0.02 0.04-0.02 0.04l0.02-0.02 0.06 0.04 -0.08 0.08 -0.04-0.04c0 0.02-0.02 0.04-0.02 0.06 0 0.02 0 0.04-0.02 0.06l-0.02 0.02c0 0.02-0.02 0.04-0.02 0.06 0 0.02-0.02 0.04-0.02 0.06v0.02c-0.02 0.02-0.02 0.06-0.04 0.11v0.02c-0.02 0.04-0.04 0.08-0.04 0.09l0.06-0.08 0.06 0.06 -0.08 0.08 -0.04-0.04c-0.02 0-0.02 0.02-0.02 0.04 0 0-0.02 0.02-0.02 0.04v0.02c-0.02 0.02-0.02 0.02-0.02 0.04 -0.02 0.04-0.02 0.09-0.02 0.15h-0.02v0.04 0.02V13v0.06 1.67l0.23-0.23h0.1l-0.32 0.32v0.27l0.57-0.57h0.1l-0.67 0.66v0.25l0.93-0.93h0.08l-1.01 1.01v0.27l1.27-1.27h0.1l-1.37 1.37v0.08c0 0.04 0 0.08 0 0.09 0 0.04 0.02 0.06 0.02 0.09L21.71 14.69zM22.75 12.34h0.02l-0.02 0.02V12.34zM22.3 10.97l0.04 0.06 -0.08 0.08 -0.04-0.06L22.3 10.97zM22.3 11.31l0.04 0.04 -0.08 0.08 -0.04-0.04L22.3 11.31zM22.3 11.67l0.04 0.04 -0.08 0.08 -0.04-0.04L22.3 11.67zM22.3 12.01l0.04 0.04 -0.08 0.08 -0.04-0.04L22.3 12.01zM22.13 11.12l0.04 0.06 -0.08 0.08 -0.04-0.04L22.13 11.12zM22.13 11.5l0.04 0.04 -0.08 0.08 -0.04-0.04L22.13 11.5zM22.13 11.84l0.04 0.04 -0.08 0.08 -0.04-0.04L22.13 11.84zM22.13 12.19l0.04 0.04 -0.08 0.08 -0.04-0.04L22.13 12.19zM21.96 11.31l0.04 0.04 -0.08 0.08 -0.04-0.04L21.96 11.31zM21.96 11.67l0.04 0.04 -0.08 0.08 -0.04-0.04L21.96 11.67zM21.96 12.01l0.04 0.04 -0.08 0.08 -0.04-0.04L21.96 12.01zM21.96 12.37l0.04 0.04 -0.08 0.08 -0.04-0.06L21.96 12.37zM21.79 11.12l0.04 0.06 -0.08 0.08 -0.04-0.04L21.79 11.12zM21.79 11.5l0.04 0.04 -0.08 0.08 -0.04-0.04L21.79 11.5zM21.79 11.84l0.04 0.04 -0.08 0.08 -0.04-0.04L21.79 11.84zM21.79 12.19l0.04 0.04 -0.08 0.08 -0.04-0.04L21.79 12.19zM21.79 12.53l0.04 0.06 -0.08 0.08 -0.04-0.06L21.79 12.53zM20.34 13l-0.04-0.06 0.08-0.08 0.06 0.06L20.34 13zM20.55 13.08l0.02-0.02 0.02 0.02H20.55zM20.53 12.83l-0.06-0.06 0.08-0.08 0.06 0.06L20.53 12.83zM20.53 12.51l-0.06-0.06 0.08-0.08 0.06 0.04L20.53 12.51zM20.7 13l-0.06-0.06 0.08-0.08 0.06 0.06L20.7 13zM20.7 12.66l-0.06-0.06 0.08-0.08 0.06 0.06L20.7 12.66zM20.7 12.3l-0.06-0.04 0.08-0.08 0.06 0.04L20.7 12.3zM20.89 13.08l0.02-0.02 0.02 0.02H20.89zM20.89 12.83l-0.06-0.06 0.08-0.08 0.06 0.06L20.89 12.83zM20.89 12.51l-0.06-0.06 0.08-0.08 0.06 0.04L20.89 12.51zM20.89 12.13l-0.06-0.04 0.08-0.08 0.06 0.04L20.89 12.13zM20.89 11.79l-0.06-0.04 0.08-0.08 0.06 0.04L20.89 11.79zM21.06 13l-0.06-0.06 0.08-0.08 0.06 0.06L21.06 13zM21.06 12.66l-0.06-0.06 0.08-0.08 0.06 0.06L21.06 12.66zM21.06 12.3l-0.06-0.04 0.08-0.08 0.06 0.04L21.06 12.3zM21.06 11.96l-0.06-0.04 0.08-0.08 0.06 0.04L21.06 11.96zM21.06 11.6l-0.06-0.04 0.08-0.08 0.06 0.04L21.06 11.6zM21.23 13.08l0.02-0.02 0.02 0.02H21.23zM21.25 12.83l-0.06-0.06 0.08-0.08 0.04 0.06L21.25 12.83zM21.25 12.51l-0.06-0.06 0.08-0.08 0.04 0.04L21.25 12.51zM21.25 12.13l-0.06-0.04 0.08-0.08 0.04 0.04L21.25 12.13zM21.25 11.79l-0.06-0.04 0.08-0.08 0.04 0.04L21.25 11.79zM21.41 13l-0.04-0.06 0.08-0.08 0.04 0.06L21.41 13zM21.41 12.66l-0.04-0.06 0.08-0.08 0.04 0.06L21.41 12.66zM21.41 12.3l-0.04-0.04 0.08-0.08 0.04 0.04L21.41 12.3zM21.41 11.96l-0.04-0.04 0.08-0.08 0.04 0.04L21.41 11.96zM21.41 11.6l-0.04-0.04 0.08-0.08 0.04 0.04L21.41 11.6zM21.61 11.31l0.04 0.04 -0.08 0.08 -0.04-0.04L21.61 11.31zM21.61 11.67l0.04 0.04 -0.08 0.08 -0.04-0.04L21.61 11.67zM21.61 12.01l0.04 0.04 -0.08 0.08 -0.04-0.04L21.61 12.01zM21.61 12.37l0.04 0.04 -0.08 0.1 -0.04-0.06L21.61 12.37zM21.54 12.77l0.08-0.08 0.04 0.06 -0.08 0.08L21.54 12.77zM21.59 13.08l0.02-0.02 0.02 0.02H21.59z"/></g><g class="nb"><polygon fill="#2674BA" points="28.05,13.65 26.61,15.09 26.61,15.36 28.05,13.91   "/><polygon fill="#2674BA" points="28.05,13.31 26.61,14.75 26.61,15.01 28.05,13.57   "/><polygon fill="#2674BA" points="28.05,12.96 26.61,14.41 26.61,14.67 28.05,13.23   "/><path fill="#2674BA" d="M28.09 16.69v-0.27l-0.28 0.28 -0.04-0.06 0.32-0.32v-0.27l-0.65 0.65 -0.04-0.06 0.68-0.68V15.7l-0.99 0.99 -0.06-0.06 1.03-1.03v-0.27l-1.33 1.35 -0.06-0.06 1.39-1.37V15l-1.44 1.44v0.19h-0.13l0.15 0.15 -0.02 0.02v0.13l-0.29-0.29h-0.19l0.49 0.49 -0.02 0.02v0.13l-0.65-0.65h-0.08v0.09l0.74 0.74 -0.02 0.02v0.13l-0.72-0.72v0.19l0.74 0.74 -0.02 0.02V18l-0.72-0.72v0.19l0.65 0.65h0.19l-0.06-0.04L26.76 18l0.06 0.04 -0.08 0.08h0.34l-0.04-0.04L27.12 18l0.04 0.04 -0.08 0.08h0.34l-0.04-0.04L27.46 18l0.04 0.04 -0.06 0.11h0.34l-0.04-0.04 0.08-0.08 0.04 0.04 -0.08 0.08h0.34l-0.06-0.06v-0.17l0.23 0.23h0.19l-0.42-0.42v-0.17l0.57 0.57h0.13v-0.04l-0.72-0.72V17.2l0.72 0.72v-0.17l-0.72-0.72v-0.17l0.72 0.72v-0.19l-0.72-0.7H28.09zM26.72 17.77l-0.06-0.04 0.08-0.08 0.06 0.04L26.72 17.77zM26.72 17.43l-0.06-0.06 0.08-0.08 0.06 0.06L26.72 17.43zM26.72 17.08l-0.06-0.06 0.08-0.08 0.06 0.06L26.72 17.08zM26.91 17.94l-0.06-0.04 0.08-0.08 0.06 0.04L26.91 17.94zM26.91 17.6l-0.06-0.06 0.08-0.08 0.06 0.06L26.91 17.6zM26.91 17.25l-0.06-0.06 0.08-0.08 0.06 0.06L26.91 17.25zM26.91 16.91l-0.06-0.06 0.08-0.08 0.06 0.06L26.91 16.91zM27.08 17.77l-0.04-0.04 0.08-0.08 0.04 0.04L27.08 17.77zM27.08 17.43l-0.04-0.06 0.08-0.08 0.04 0.06L27.08 17.43zM27.08 17.08l-0.04-0.06 0.08-0.08 0.04 0.06L27.08 17.08zM27.24 17.94L27.2 17.9l0.08-0.08 0.04 0.04L27.24 17.94zM27.24 17.6l-0.04-0.04 0.08-0.08 0.04 0.04L27.24 17.6zM27.24 17.25L27.2 17.2l0.08-0.08 0.04 0.06L27.24 17.25zM27.24 16.91l-0.04-0.06 0.08-0.08 0.04 0.06L27.24 16.91zM27.42 17.77l-0.04-0.04 0.08-0.08 0.04 0.04L27.42 17.77zM27.42 17.43l-0.04-0.06 0.08-0.08 0.04 0.06L27.42 17.43zM27.42 17.08l-0.04-0.06 0.08-0.08 0.04 0.06L27.42 17.08zM27.6 17.94l-0.04-0.04 0.08-0.08 0.04 0.04L27.6 17.94zM27.6 17.6l-0.04-0.04 0.08-0.08 0.04 0.04L27.6 17.6zM27.6 17.25l-0.04-0.06 0.08-0.08 0.04 0.06L27.6 17.25zM27.6 16.91l-0.04-0.06 0.08-0.08 0.04 0.06L27.6 16.91zM27.77 17.77l-0.04-0.04 0.08-0.08 0.04 0.04L27.77 17.77zM27.77 17.43l-0.04-0.06 0.08-0.08 0.04 0.06L27.77 17.43zM27.77 17.08l-0.04-0.06 0.08-0.08 0.04 0.06L27.77 17.08zM27.94 17.94L27.9 17.9l0.08-0.08 0.04 0.04L27.94 17.94zM27.94 17.6l-0.04-0.04 0.08-0.08 0.04 0.04L27.94 17.6zM27.94 17.25L27.9 17.2l0.08-0.08 0.04 0.06L27.94 17.25zM27.94 16.91l-0.04-0.06 0.08-0.08 0.04 0.06L27.94 16.91z"/><polygon fill="#2674BA" points="28.05,12.6 26.61,14.05 26.61,14.31 28.05,12.87   "/><polygon fill="#2674BA" points="28.05,14.01 26.61,15.45 26.61,15.72 28.05,14.27   "/><polygon fill="#2674BA" points="28.24,16.69 28.79,17.24 28.79,17.05 28.43,16.69   "/><polygon fill="#2674BA" points="28.05,14.35 26.61,15.79 26.61,16.06 28.05,14.62   "/><polygon fill="#2674BA" points="28.77,16.69 28.6,16.69 28.79,16.88   "/><polygon fill="#2674BA" points="25.89,17.82 26.17,18.11 26.36,18.11 25.89,17.63   "/><polygon fill="#2674BA" points="25.89,18.13 26.02,18.13 25.89,18   "/><polygon fill="#2674BA" points="26.61,12.56 26.86,12.32 26.93,12.32 26.63,12.62 26.63,12.89 27.18,12.34 27.27,12.34     26.63,12.98 26.63,13.25 27.54,12.34 27.63,12.34 26.63,13.34 26.63,13.61 27.88,12.36 27.96,12.36 26.61,13.7 26.61,13.97     28.05,12.53 28.05,10.91 25.89,10.91 25.89,12.36 26.61,12.36   "/><polygon fill="#2674BA" points="26.61,16.4 28.05,14.96 28.05,14.69 26.61,16.13   "/></g><g class="nb"><path fill="#2674BA" d="M16.05 22.84h-0.1l0.23-0.23c-0.02-0.1-0.02-0.17-0.04-0.23l-0.44 0.46h-0.1l0.53-0.53c-0.02-0.04-0.04-0.06-0.04-0.1 -0.02-0.02-0.02-0.06-0.04-0.09l-0.72 0.72h-0.1l0.78-0.8c-0.02-0.06-0.06-0.11-0.08-0.17l-0.97 0.97h-0.09l1.03-1.03c0-0.02-0.02-0.06-0.04-0.08s-0.04-0.06-0.06-0.08l-1.08 1.1c0.02 0.02 0.02 0.06 0.02 0.1v2.91c0 0.21-0.08 0.38-0.21 0.51 -0.15 0.13-0.32 0.21-0.51 0.21h-0.19l-0.04 0.02 -0.02-0.02h-0.3l-0.04 0.02 -0.02-0.02H13.3c-0.04 0-0.08 0-0.15-0.02l-1.08 1.08c0.02 0 0.06 0.02 0.08 0.04 0.02 0 0.06 0.02 0.08 0.04l1.08-1.08 0.04 0.04 -1.06 1.06c0.04 0.02 0.08 0.02 0.1 0.04 0.02 0.02 0.06 0.02 0.08 0.04l0.85-0.83 0.04 0.04 -0.82 0.84 0.19 0.06 0.59-0.59 0.04 0.04 -0.57 0.57c0.06 0.02 0.13 0.02 0.23 0.04l0.3-0.3 0.04 0.04 -0.27 0.27c0.04 0.02 0.08 0.02 0.11 0.02s0.08 0 0.11 0h0.72c0.28 0 0.57-0.06 0.84-0.17 0.27-0.11 0.49-0.27 0.68-0.46 0.19-0.19 0.34-0.42 0.46-0.68 0.11-0.25 0.17-0.53 0.17-0.84v-2.89c0-0.08-0.02-0.12-0.02-0.15L16.05 22.84zM13.43 27.87l-0.04-0.06 0.08-0.08 0.04 0.06L13.43 27.87zM13.43 27.53l-0.04-0.04 0.08-0.08 0.04 0.04L13.43 27.53zM13.43 27.17l-0.04-0.04 0.08-0.08 0.04 0.04L13.43 27.17zM13.43 26.83l-0.04-0.04 0.08-0.08 0.04 0.04L13.43 26.83zM13.6 27.72l-0.04-0.06 0.08-0.08 0.04 0.04L13.6 27.72zM13.6 27.36l-0.04-0.04 0.08-0.08 0.04 0.04L13.6 27.36zM13.6 27l-0.04-0.04 0.08-0.08 0.04 0.04L13.6 27zM13.6 26.66l-0.04-0.04 0.08-0.08 0.04 0.04L13.6 26.66zM13.77 27.87l-0.04-0.06 0.08-0.08 0.04 0.06L13.77 27.87zM13.77 27.53l-0.04-0.04 0.08-0.08 0.04 0.04L13.77 27.53zM13.77 27.17l-0.04-0.04 0.08-0.08 0.04 0.04L13.77 27.17zM13.77 26.83l-0.04-0.04 0.08-0.08 0.04 0.04L13.77 26.83zM14 27.66l-0.06 0.06 -0.04-0.06L14 27.6V27.66zM14 27.3l-0.06 0.06 -0.04-0.04 0.1-0.08V27.3zM14 26.96l-0.06 0.06 -0.04-0.04L14 26.9V26.96zM14 26.62l-0.06 0.04 -0.04-0.04 0.1-0.08V26.62z"/><polygon fill="#2674BA" points="12.11,21.1 12.1,21.09 12.05,21.14 12.1,21.11   "/><path fill="#2674BA" d="M12.96 26.37c-0.02 0-0.06-0.02-0.08-0.04l-1.04 1.03c0.04 0.02 0.06 0.04 0.08 0.06 0.04 0.02 0.06 0.04 0.08 0.06l1.06-1.06C13.01 26.39 12.97 26.39 12.96 26.37z"/><polygon fill="#2674BA" points="11.51,21.68 11.51,21.68 11.51,21.68   "/><path fill="#2674BA" d="M12.23 21c0 0 0 0.02-0.02 0.02l0.04-0.04C12.25 21 12.23 21 12.23 21zM14 22.14c0.04 0 0.09 0 0.17 0.02l1.06-1.06c-0.02-0.02-0.06-0.04-0.08-0.06 -0.02 0-0.06-0.02-0.08-0.04l-1.14 1.14H14zM14.59 22.44l1.03-1.03c-0.04-0.04-0.08-0.1-0.13-0.13l-1.03 1.03C14.51 22.34 14.57 22.38 14.59 22.44zM14.34 22.21c0.02 0.02 0.06 0.04 0.08 0.06l1.03-1.03c-0.04-0.02-0.06-0.04-0.08-0.06 -0.02-0.02-0.06-0.04-0.08-0.06l-1.04 1.04C14.28 22.19 14.32 22.19 14.34 22.21zM14.66 22.59c0.02 0.04 0.02 0.06 0.04 0.09l1.06-1.06c-0.02-0.04-0.04-0.06-0.06-0.08 -0.02-0.02-0.04-0.06-0.06-0.08l-1.03 1.03C14.65 22.53 14.65 22.57 14.66 22.59zM12.54 25.17v-0.25l-1.37 1.37c0.02 0.04 0.04 0.06 0.04 0.09 0.02 0.02 0.02 0.06 0.04 0.09l1.31-1.31H12.54zM12.56 24.83v-0.27l-1.42 1.42c0 0.04 0.02 0.08 0.02 0.12 0 0.04 0.02 0.08 0.02 0.11L12.56 24.83zM12.56 24.47h0.08v-1.56c0-0.04 0.02-0.08 0.02-0.1l-0.02-0.02 0.02-0.02c0.02-0.02 0.02-0.04 0.02-0.06s0.02-0.04 0.02-0.06l0.02-0.02c0.02-0.04 0.04-0.06 0.04-0.08 0-0.02 0.02-0.02 0.02-0.02 0.02-0.04 0.04-0.08 0.06-0.09 0.02-0.02 0.04-0.06 0.06-0.08l0.02-0.02c0.04-0.02 0.06-0.04 0.08-0.06 0.02-0.02 0.04-0.04 0.08-0.06 0-0.02 0.02-0.02 0.02-0.02 0.04-0.04 0.11-0.06 0.19-0.08h0.02c0 0 0.02 0 0.04 0 0 0 0.02 0 0.04 0h0.04 0.23l0.04-0.04h0.19l1.18-1.18c-0.02 0-0.06-0.02-0.08-0.04 -0.02 0-0.04-0.01-0.05-0.02l0.02-0.02c-0.04-0.02-0.06-0.02-0.1-0.04s-0.06-0.02-0.1-0.04l-1.33 1.33V22.1l-0.04-0.04 1.29-1.29c-0.04 0-0.08-0.02-0.11-0.02 -0.04 0-0.08-0.02-0.11-0.02l-1.04 1.04v-0.02l-0.04-0.04 0.99-1c-0.04-0.02-0.08-0.02-0.11-0.02s-0.08 0-0.11 0h-0.02l-0.7 0.7v-0.02l-0.04-0.04 0.65-0.67h-0.27l-0.36 0.36v-0.02l-0.04-0.04 0.3-0.3h-0.27l-0.02 0.02v-0.02c-0.04 0-0.08 0-0.09 0 -0.04 0-0.06 0.02-0.1 0.02 -0.04 0-0.06 0-0.08 0 -0.02 0-0.06 0-0.08 0s-0.02 0-0.02 0h-0.02 -0.02c-0.02 0.02-0.04 0.02-0.06 0.02s-0.04 0.02-0.06 0.02c-0.06 0.02-0.09 0.02-0.13 0.04v-0.02c0 0.02-0.02 0.02-0.02 0.02l-0.09 0.04 -0.02 0.02c-0.02 0-0.04 0.02-0.06 0.02 -0.02 0-0.04 0.02-0.06 0.02l-0.02 0.02 -0.13 0.06 0.04 0.04 -0.08 0.08 -0.04-0.04c0 0.02-0.02 0.02-0.02 0.02l-0.02 0.02c-0.02 0-0.04 0.02-0.06 0.04 -0.01 0-0.01 0-0.01 0.01l0.03 0.03 -0.06 0.08 -0.06-0.04 0.03-0.03 -0.05 0.03c-0.02 0.02-0.04 0.02-0.06 0.04 0 0.02-0.02 0.02-0.04 0.04 0 0.02-0.02 0.02-0.04 0.04 0 0.02-0.02 0.02-0.04 0.04l-0.02 0.02c-0.04 0.02-0.06 0.04-0.06 0.06 -0.02 0-0.02 0-0.04 0.02 -0.02 0-0.02 0.02-0.04 0.04 -0.02 0-0.02 0.02-0.04 0.04v-0.02c-0.02 0-0.02 0.04-0.04 0.06l-0.04 0.04v0.02l-0.06 0.09 0.06-0.06 0.06 0.04 -0.08 0.08 -0.06-0.04 0.02-0.02h-0.02c-0.02 0.02-0.02 0.02-0.02 0.04 0 0.02 0 0.02-0.02 0.04 -0.02 0.02-0.02 0.02-0.02 0.04 -0.02 0.02-0.02 0.04-0.02 0.04l0.02-0.02 0.06 0.04 -0.08 0.08 -0.04-0.04c0 0.02-0.02 0.04-0.02 0.06 0 0.02 0 0.04-0.02 0.06l-0.02 0.02c0 0.02-0.02 0.04-0.02 0.06s-0.02 0.04-0.02 0.06v0.02c-0.02 0.02-0.02 0.06-0.04 0.11v0.02c-0.02 0.04-0.04 0.08-0.04 0.1l0.06-0.08 0.06 0.06 -0.08 0.08 -0.04-0.04c-0.02 0-0.02 0.02-0.02 0.04 0 0-0.02 0.02-0.02 0.04v0.04c-0.02 0.02-0.02 0.02-0.02 0.04 -0.02 0.04-0.02 0.09-0.02 0.15h-0.02v0.04 0.04 0.04 1.67l0.23-0.23h0.09l-0.32 0.32v0.27l0.57-0.57h0.09l-0.66 0.66v0.27l0.93-0.93h0.08l-1.01 1.01v0.27l1.27-1.27h0.1l-1.37 1.37v0.08c0 0.04 0 0.06 0 0.09 0 0.04 0.02 0.06 0.02 0.1L12.56 24.47zM13.6 22.12h0.02l-0.02 0.02V22.12zM13.14 20.75l0.04 0.06 -0.08 0.08 -0.04-0.06L13.14 20.75zM13.14 21.11l0.04 0.04 -0.08 0.08 -0.04-0.04L13.14 21.11zM13.14 21.45l0.04 0.04 -0.08 0.08 -0.04-0.04L13.14 21.45zM13.14 21.81l0.04 0.04 -0.08 0.08 -0.04-0.04L13.14 21.81zM12.97 20.9l0.04 0.06 -0.08 0.08L12.9 21 12.97 20.9zM12.97 21.28l0.04 0.04 -0.08 0.08 -0.04-0.04L12.97 21.28zM12.97 21.62l0.04 0.04 -0.08 0.08L12.9 21.7 12.97 21.62zM12.97 21.98l0.04 0.04 -0.08 0.08 -0.04-0.04L12.97 21.98zM12.8 21.11l0.04 0.04 -0.08 0.08 -0.04-0.04L12.8 21.11zM12.8 21.45l0.04 0.04 -0.08 0.08 -0.04-0.04L12.8 21.45zM12.8 21.81l0.04 0.04 -0.08 0.08 -0.04-0.04L12.8 21.81zM12.8 22.15l0.04 0.04 -0.08 0.08 -0.04-0.06L12.8 22.15zM12.63 20.9l0.04 0.06 -0.08 0.08L12.56 21 12.63 20.9zM12.63 21.28l0.04 0.04 -0.08 0.08 -0.04-0.04L12.63 21.28zM12.63 21.62l0.04 0.04 -0.08 0.08 -0.04-0.04L12.63 21.62zM12.63 21.98l0.04 0.04 -0.08 0.08 -0.04-0.04L12.63 21.98zM12.63 22.33l0.04 0.06 -0.08 0.08 -0.04-0.06L12.63 22.33zM11.19 22.78l-0.04-0.06 0.08-0.08 0.06 0.06L11.19 22.78zM11.38 22.86l0.02-0.02 0.02 0.02H11.38zM11.38 22.61l-0.06-0.06 0.08-0.08 0.06 0.06L11.38 22.61zM11.38 22.29l-0.06-0.06 0.08-0.08 0.06 0.04L11.38 22.29zM11.55 22.78l-0.06-0.06 0.08-0.08 0.06 0.06L11.55 22.78zM11.55 22.44l-0.06-0.06 0.08-0.08 0.06 0.06L11.55 22.44zM11.55 22.1l-0.06-0.04 0.08-0.08 0.06 0.04L11.55 22.1zM11.74 22.86l0.02-0.02 0.02 0.02H11.74zM11.74 22.61l-0.06-0.06 0.08-0.08 0.06 0.06L11.74 22.61zM11.74 22.29l-0.06-0.06 0.08-0.08 0.06 0.04L11.74 22.29zM11.74 21.91l-0.06-0.04 0.08-0.08 0.06 0.04L11.74 21.91zM11.74 21.57l-0.06-0.04 0.08-0.08 0.06 0.04L11.74 21.57zM11.91 22.78l-0.06-0.06 0.08-0.08 0.06 0.06L11.91 22.78zM11.91 22.44l-0.06-0.06 0.08-0.08 0.06 0.06L11.91 22.44zM11.91 22.1l-0.06-0.04 0.08-0.08 0.06 0.04L11.91 22.1zM11.91 21.74l-0.06-0.04 0.08-0.08 0.06 0.04L11.91 21.74zM11.91 21.39l-0.06-0.04 0.08-0.08 0.06 0.04L11.91 21.39zM12.08 22.86l0.02-0.02 0.02 0.02H12.08zM12.08 22.61l-0.06-0.06 0.08-0.08 0.04 0.06L12.08 22.61zM12.08 22.29l-0.06-0.06 0.08-0.08 0.04 0.04L12.08 22.29zM12.08 21.91l-0.06-0.04 0.08-0.08 0.04 0.04L12.08 21.91zM12.08 21.57l-0.06-0.04 0.08-0.08 0.04 0.04L12.08 21.57zM12.25 22.78l-0.04-0.06 0.08-0.08 0.04 0.06L12.25 22.78zM12.25 22.44l-0.04-0.06 0.08-0.08 0.04 0.06L12.25 22.44zM12.25 22.1l-0.04-0.04 0.08-0.08 0.04 0.04L12.25 22.1zM12.25 21.74l-0.04-0.04 0.08-0.08 0.04 0.04L12.25 21.74zM12.25 21.39l-0.04-0.04 0.08-0.08 0.04 0.04L12.25 21.39zM12.46 21.09l0.04 0.04 -0.08 0.08 -0.04-0.04L12.46 21.09zM12.46 21.45l0.04 0.04 -0.08 0.08 -0.04-0.04L12.46 21.45zM12.46 21.79l0.04 0.04 -0.08 0.08 -0.04-0.04L12.46 21.79zM12.46 22.15l0.04 0.04 -0.08 0.1 -0.04-0.06L12.46 22.15zM12.39 22.55l0.08-0.08 0.04 0.06 -0.08 0.08L12.39 22.55zM12.44 22.86l0.02-0.02 0.02 0.02H12.44zM12.63 26.03c-0.02-0.04-0.04-0.06-0.04-0.09l-1.06 1.04c0.02 0.02 0.04 0.06 0.06 0.08 0.02 0.04 0.04 0.06 0.06 0.08l1.02-1.03C12.65 26.08 12.65 26.05 12.63 26.03zM12.77 26.26c-0.02-0.04-0.04-0.06-0.06-0.08l-1.04 1.04c0.04 0.02 0.06 0.04 0.08 0.06 0.04 0.02 0.06 0.04 0.08 0.06l1.03-1.03C12.8 26.29 12.78 26.28 12.77 26.26zM12.56 25.74h0.02v-0.11l-1.18 1.16c0.02 0.08 0.06 0.11 0.09 0.17l1.08-1.08C12.56 25.84 12.56 25.8 12.56 25.74zM12.58 25.53v-0.27l-1.29 1.29c0.02 0.02 0.02 0.06 0.04 0.08 0.02 0.04 0.02 0.06 0.04 0.1l1.2-1.2H12.58z"/></g><g class="nb"><path fill="#2674BA" d="M18.18 25.74h0.02v-0.11l-1.18 1.16c0.02 0.08 0.06 0.11 0.1 0.17l1.08-1.08C18.18 25.84 18.18 25.8 18.18 25.74zM18.25 26.03c-0.02-0.04-0.04-0.06-0.04-0.09l-1.06 1.04c0.02 0.02 0.04 0.06 0.06 0.08 0.02 0.04 0.04 0.06 0.06 0.08l1.03-1.03C18.27 26.08 18.27 26.05 18.25 26.03zM18.39 26.26c-0.02-0.04-0.04-0.06-0.06-0.08l-1.04 1.04c0.04 0.02 0.06 0.04 0.08 0.06 0.04 0.02 0.06 0.04 0.08 0.06l1.03-1.03C18.42 26.29 18.4 26.28 18.39 26.26zM18.58 26.37c-0.02 0-0.06-0.02-0.08-0.04l-1.04 1.03c0.04 0.02 0.06 0.04 0.08 0.06 0.04 0.02 0.06 0.04 0.08 0.06l1.06-1.06C18.63 26.39 18.59 26.39 18.58 26.37zM18.2 25.53v-0.27l-1.29 1.29c0.02 0.02 0.02 0.06 0.04 0.08 0.02 0.04 0.02 0.06 0.04 0.1l1.2-1.2H18.2zM21.69 22.84h-0.09l0.23-0.23c-0.02-0.1-0.02-0.17-0.04-0.23l-0.44 0.46h-0.09l0.53-0.53c-0.02-0.04-0.02-0.08-0.04-0.1s-0.02-0.06-0.04-0.09l-0.72 0.72h-0.1l0.78-0.8c-0.02-0.06-0.06-0.11-0.08-0.17l-0.97 0.97h-0.09l1.03-1.03c0-0.02-0.02-0.06-0.04-0.08 -0.02-0.02-0.04-0.06-0.06-0.08l-1.08 1.1c0.02 0.02 0.02 0.06 0.02 0.1v2.91c0 0.21-0.08 0.38-0.21 0.51 -0.15 0.13-0.32 0.21-0.51 0.21h-0.19l-0.04 0.02 -0.02-0.02h-0.3l-0.04 0.02 -0.02-0.02h-0.13c-0.04 0-0.08 0-0.15-0.02l-1.08 1.08c0.02 0 0.06 0.02 0.08 0.04 0.02 0 0.06 0.02 0.08 0.04l1.08-1.08 0.04 0.04 -1.06 1.06c0.04 0.02 0.08 0.02 0.09 0.04 0.02 0.02 0.06 0.02 0.08 0.04l0.85-0.83 0.04 0.04 -0.82 0.84 0.19 0.06 0.59-0.59 0.04 0.04 -0.57 0.57c0.06 0.02 0.13 0.02 0.23 0.04l0.3-0.3 0.04 0.04 -0.27 0.27c0.04 0.02 0.08 0.02 0.11 0.02 0.04 0 0.08 0 0.11 0h0.72c0.28 0 0.57-0.06 0.83-0.17 0.27-0.11 0.49-0.27 0.68-0.46 0.19-0.19 0.34-0.42 0.46-0.68 0.11-0.25 0.17-0.53 0.17-0.84v-2.89c0-0.08-0.02-0.12-0.02-0.15L21.69 22.84zM19.05 27.87l-0.04-0.06 0.08-0.08 0.04 0.06L19.05 27.87zM19.05 27.53l-0.04-0.04 0.08-0.08 0.04 0.04L19.05 27.53zM19.05 27.17l-0.04-0.04 0.08-0.08 0.04 0.04L19.05 27.17zM19.05 26.83l-0.04-0.04 0.08-0.08 0.04 0.04L19.05 26.83zM19.22 27.72l-0.04-0.06 0.08-0.08 0.04 0.04L19.22 27.72zM19.22 27.36l-0.04-0.04 0.08-0.08 0.04 0.04L19.22 27.36zM19.22 27l-0.04-0.04 0.08-0.08 0.04 0.04L19.22 27zM19.22 26.66l-0.04-0.04 0.08-0.08 0.04 0.04L19.22 26.66zM19.41 27.87l-0.04-0.06 0.08-0.08 0.04 0.06L19.41 27.87zM19.41 27.53l-0.04-0.04 0.08-0.08 0.04 0.04L19.41 27.53zM19.41 27.17l-0.04-0.04 0.08-0.08 0.04 0.04L19.41 27.17zM19.41 26.83l-0.04-0.04 0.08-0.08 0.04 0.04L19.41 26.83zM19.62 27.66l-0.06 0.06 -0.04-0.06 0.09-0.06V27.66zM19.62 27.3l-0.06 0.06 -0.04-0.04 0.09-0.08V27.3zM19.62 26.96l-0.06 0.06 -0.04-0.04 0.09-0.08V26.96zM19.62 26.62l-0.06 0.04 -0.04-0.04 0.09-0.08V26.62zM17.85 21c0 0 0 0.02-0.02 0.02l0.04-0.04C17.87 21 17.85 21 17.85 21zM17.74 21.09l-0.02 0.02 0 0C17.72 21.11 17.72 21.09 17.74 21.09zM18.18 24.83v-0.27l-1.42 1.42c0 0.04 0.02 0.08 0.02 0.12 0 0.04 0.02 0.08 0.02 0.11L18.18 24.83zM18.18 24.47h0.08v-1.56c0-0.04 0.02-0.08 0.02-0.1l-0.02-0.02 0.02-0.02c0.02-0.02 0.02-0.04 0.02-0.06s0.02-0.04 0.02-0.06l0.02-0.02c0.02-0.04 0.04-0.06 0.04-0.08 0-0.02 0.02-0.02 0.02-0.02 0.02-0.04 0.04-0.08 0.06-0.09 0.02-0.02 0.04-0.06 0.06-0.08l0.02-0.02c0.04-0.02 0.06-0.04 0.08-0.06 0.02-0.02 0.04-0.04 0.08-0.06 0-0.02 0.02-0.02 0.02-0.02 0.04-0.04 0.11-0.06 0.19-0.08h0.02c0 0 0.02 0 0.04 0 0 0 0.02 0 0.04 0h0.04 0.23l0.04-0.04h0.19l1.18-1.18c-0.02 0-0.06-0.02-0.08-0.04 -0.02 0-0.04-0.01-0.05-0.02l0.02-0.02c-0.04-0.02-0.08-0.02-0.1-0.04 -0.04-0.02-0.06-0.02-0.09-0.04l-1.33 1.33V22.1l-0.04-0.04 1.29-1.29c-0.04 0-0.08-0.02-0.11-0.02 -0.04 0-0.08-0.02-0.11-0.02l-1.04 1.04v-0.02l-0.04-0.04 0.99-1c-0.04-0.02-0.08-0.02-0.11-0.02s-0.08 0-0.11 0H19.7l-0.7 0.7v-0.02l-0.04-0.04 0.65-0.67h-0.27l-0.36 0.36v-0.02l-0.04-0.04 0.3-0.3h-0.27l-0.02 0.02v-0.02c-0.04 0-0.08 0-0.1 0 -0.04 0-0.06 0.02-0.09 0.02 -0.04 0-0.06 0-0.08 0s-0.06 0-0.08 0 -0.02 0-0.02 0h-0.02 -0.02c-0.02 0.02-0.04 0.02-0.06 0.02 -0.02 0-0.04 0.02-0.06 0.02 -0.06 0.02-0.09 0.02-0.13 0.04v-0.02c0 0.02-0.02 0.02-0.02 0.02l-0.09 0.04 -0.02 0.02c-0.02 0-0.04 0.02-0.06 0.02s-0.04 0.02-0.06 0.02l-0.02 0.02 -0.13 0.06 0.04 0.04 -0.08 0.08 -0.04-0.04c0 0.02-0.02 0.02-0.02 0.02l-0.02 0.02c-0.02 0-0.04 0.02-0.06 0.04l0.04 0.04 -0.06 0.08 -0.06-0.04 0.06-0.06 -0.09 0.06c-0.02 0.02-0.04 0.02-0.06 0.04 0 0.02-0.02 0.02-0.04 0.04 0 0.02-0.02 0.02-0.04 0.04 0 0.02-0.02 0.02-0.04 0.04l-0.02 0.02c-0.04 0.02-0.06 0.04-0.06 0.06 -0.02 0-0.02 0-0.04 0.02 -0.02 0-0.02 0.02-0.04 0.04 -0.02 0-0.02 0.02-0.04 0.04v-0.02c-0.02 0-0.02 0.04-0.04 0.06l-0.04 0.04v0.02l-0.06 0.09 0.06-0.06 0.06 0.04 -0.08 0.08 -0.06-0.04 0.02-0.02h-0.02c-0.02 0.02-0.02 0.02-0.02 0.04 0 0.02 0 0.02-0.02 0.04 -0.02 0.02-0.02 0.02-0.02 0.04 -0.02 0.02-0.02 0.04-0.02 0.04l0.02-0.02 0.06 0.04 -0.08 0.08L17 21.89c0 0.02-0.02 0.04-0.02 0.06 0 0.02 0 0.04-0.02 0.06l-0.02 0.02c0 0.02-0.02 0.04-0.02 0.06s-0.02 0.04-0.02 0.06v0.02c-0.02 0.02-0.02 0.06-0.04 0.11v0.02c-0.02 0.04-0.04 0.08-0.04 0.1l0.06-0.08 0.06 0.06 -0.08 0.08 -0.04-0.04c-0.02 0-0.02 0.02-0.02 0.04 0 0-0.02 0.02-0.02 0.04v0.04c-0.02 0.02-0.02 0.02-0.02 0.04 -0.02 0.04-0.02 0.09-0.02 0.15h-0.02v0.04 0.04 0.04 1.67l0.23-0.23h0.1l-0.32 0.32v0.27l0.57-0.57h0.1l-0.67 0.66v0.27l0.93-0.93h0.08l-1.01 1.01v0.27l1.27-1.27h0.1l-1.37 1.37v0.08c0 0.04 0 0.06 0 0.09 0 0.04 0.02 0.06 0.02 0.1L18.18 24.47zM19.22 22.12h0.02l-0.02 0.02V22.12zM18.77 20.75l0.04 0.06 -0.08 0.08 -0.04-0.06L18.77 20.75zM18.77 21.11l0.04 0.04 -0.08 0.08 -0.04-0.04L18.77 21.11zM18.77 21.45l0.04 0.04 -0.08 0.08 -0.04-0.04L18.77 21.45zM18.77 21.81l0.04 0.04 -0.08 0.08 -0.04-0.04L18.77 21.81zM18.59 20.9l0.04 0.06 -0.08 0.08L18.52 21 18.59 20.9zM18.59 21.28l0.04 0.04 -0.08 0.08 -0.04-0.04L18.59 21.28zM18.59 21.62l0.04 0.04 -0.08 0.08 -0.04-0.04L18.59 21.62zM18.59 21.98l0.04 0.04 -0.08 0.08 -0.04-0.04L18.59 21.98zM18.42 21.11l0.04 0.04 -0.08 0.08 -0.04-0.04L18.42 21.11zM18.42 21.45l0.04 0.04 -0.08 0.08 -0.04-0.04L18.42 21.45zM18.42 21.81l0.04 0.04 -0.08 0.08 -0.04-0.04L18.42 21.81zM18.42 22.15l0.04 0.04 -0.08 0.08 -0.04-0.06L18.42 22.15zM18.25 20.9l0.04 0.06 -0.08 0.08L18.18 21 18.25 20.9zM18.25 21.28l0.04 0.04 -0.08 0.08 -0.04-0.04L18.25 21.28zM18.25 21.62l0.04 0.04 -0.08 0.08 -0.04-0.04L18.25 21.62zM18.25 21.98l0.04 0.04 -0.08 0.08 -0.04-0.04L18.25 21.98zM18.25 22.33l0.04 0.06 -0.08 0.08 -0.04-0.06L18.25 22.33zM16.81 22.78l-0.04-0.06 0.08-0.08 0.06 0.06L16.81 22.78zM17.02 22.86l0.02-0.02 0.02 0.02H17.02zM17 22.61l-0.06-0.06 0.08-0.08 0.06 0.06L17 22.61zM17 22.29l-0.06-0.06 0.08-0.08 0.06 0.04L17 22.29zM17.17 22.78l-0.06-0.06 0.08-0.08 0.06 0.06L17.17 22.78zM17.17 22.44l-0.06-0.06 0.08-0.08 0.06 0.06L17.17 22.44zM17.17 22.1l-0.06-0.04 0.08-0.08 0.06 0.04L17.17 22.1zM17.36 22.86l0.02-0.02 0.02 0.02H17.36zM17.36 22.61l-0.06-0.06 0.08-0.08 0.06 0.06L17.36 22.61zM17.36 22.29l-0.06-0.06 0.08-0.08 0.06 0.04L17.36 22.29zM17.36 21.91l-0.06-0.04 0.08-0.08 0.06 0.04L17.36 21.91zM17.36 21.57l-0.06-0.04 0.08-0.08 0.06 0.04L17.36 21.57zM17.53 22.78l-0.06-0.06 0.08-0.08 0.06 0.06L17.53 22.78zM17.53 22.44l-0.06-0.06 0.08-0.08 0.06 0.06L17.53 22.44zM17.53 22.1l-0.06-0.04 0.08-0.08 0.06 0.04L17.53 22.1zM17.53 21.74l-0.06-0.04 0.08-0.08 0.06 0.04L17.53 21.74zM17.53 21.39l-0.06-0.04 0.08-0.08 0.06 0.04L17.53 21.39zM17.7 22.86l0.02-0.02 0.02 0.02H17.7zM17.72 22.61l-0.06-0.06 0.08-0.08 0.04 0.06L17.72 22.61zM17.72 22.29l-0.06-0.06 0.08-0.08 0.04 0.04L17.72 22.29zM17.72 21.91l-0.06-0.04 0.08-0.08 0.04 0.04L17.72 21.91zM17.72 21.57l-0.06-0.04 0.08-0.08 0.04 0.04L17.72 21.57zM17.87 22.78l-0.04-0.06 0.08-0.08 0.04 0.06L17.87 22.78zM17.85 22.46l-0.04-0.06 0.09-0.09 0.04 0.06L17.85 22.46zM17.87 22.1l-0.04-0.04 0.08-0.08 0.04 0.04L17.87 22.1zM17.87 21.74l-0.04-0.04 0.08-0.08 0.04 0.04L17.87 21.74zM17.87 21.39l-0.04-0.04 0.08-0.08 0.04 0.04L17.87 21.39zM18.08 21.09l0.04 0.04 -0.08 0.08 -0.04-0.04L18.08 21.09zM18.08 21.45l0.04 0.04 -0.08 0.08 -0.04-0.04L18.08 21.45zM18.08 21.79l0.04 0.04 -0.08 0.08 -0.04-0.04L18.08 21.79zM18.08 22.15l0.04 0.04 -0.08 0.1 -0.04-0.06L18.08 22.15zM18.01 22.55l0.08-0.08 0.04 0.06 -0.08 0.08L18.01 22.55zM18.06 22.86l0.02-0.02 0.02 0.02H18.06zM18.16 25.17v-0.25l-1.37 1.37c0.02 0.04 0.04 0.06 0.04 0.09 0.02 0.02 0.02 0.06 0.04 0.09l1.31-1.31H18.16z"/><polygon fill="#2674BA" points="17.13,21.68 17.13,21.68 17.13,21.68   "/><path fill="#2674BA" d="M20.28 22.59c0.02 0.04 0.02 0.06 0.04 0.09l1.06-1.06c-0.02-0.04-0.04-0.06-0.06-0.08 -0.02-0.02-0.04-0.06-0.06-0.08l-1.03 1.03C20.27 22.53 20.27 22.55 20.28 22.59zM19.62 22.14c0.04 0 0.1 0 0.17 0.02l1.06-1.06c-0.02-0.02-0.06-0.06-0.08-0.06 -0.02 0-0.06-0.02-0.08-0.04l-1.14 1.14H19.62zM20.21 22.44l1.03-1.03c-0.04-0.04-0.08-0.1-0.13-0.13l-1.03 1.03C20.13 22.34 20.19 22.38 20.21 22.44zM19.96 22.21c0.02 0.02 0.06 0.04 0.08 0.06l1.03-1.03c-0.04-0.02-0.06-0.04-0.08-0.06 -0.02-0.02-0.06-0.04-0.08-0.06l-1.04 1.04C19.9 22.19 19.94 22.19 19.96 22.21z"/></g><g class="nb"><polygon fill="#2674BA" points="23.08,22.34 23.3,22.12 23.38,22.12 23.08,22.42 23.08,22.69 23.63,22.14 23.72,22.14     23.08,22.78 23.08,23.03 23.99,22.12 24.08,22.12 23.08,23.12 23.08,23.39 24.33,22.14 24.42,22.14 23.08,23.48 23.08,23.75     24.52,22.31 24.52,20.69 22.36,20.69 22.36,22.14 23.08,22.14   "/><path fill="#2674BA" d="M24.56 26.46v-0.23l-0.29 0.28 -0.04-0.06 0.32-0.32v-0.27l-0.65 0.65 -0.04-0.06 0.68-0.68v-0.27l-0.99 0.99 -0.06-0.06 1.02-1.03v-0.26l-1.33 1.33 -0.06-0.06 1.39-1.37v-0.27l-1.44 1.44v0.19h-0.13l0.15 0.15 -0.02 0.02v0.13l-0.28-0.29h-0.19l0.49 0.49 -0.02 0.02v0.19l-0.65-0.65h-0.08v0.09l0.74 0.72 -0.02 0.02v0.13l-0.72-0.72v0.19l0.74 0.72 -0.02 0.02v0.13l-0.72-0.72v0.19l0.64 0.65h0.19l-0.06-0.04 0.08-0.08 0.06 0.04 -0.08 0.08h0.34l-0.04-0.04 0.07-0.08 0.04 0.04 -0.08 0.08h0.34l-0.04-0.04 0.08-0.08 0.04 0.04 -0.08 0.08h0.34l-0.04-0.04 0.08-0.08 0.04 0.04 -0.08 0.08h0.34l-0.06-0.06V27.7l0.23 0.23h0.19l-0.42-0.42v-0.17l0.57 0.57h0.15v-0.04l-0.72-0.72v-0.17l0.72 0.72v-0.17l-0.72-0.72v-0.17l0.72 0.72v-0.19l-0.72-0.7H24.56zM23.19 27.55l-0.06-0.04 0.08-0.08 0.06 0.04L23.19 27.55zM23.19 27.21l-0.06-0.06 0.08-0.08 0.06 0.06L23.19 27.21zM23.19 26.86l-0.06-0.06 0.08-0.08 0.06 0.06L23.19 26.86zM23.38 27.74l-0.06-0.04 0.08-0.08 0.06 0.04L23.38 27.74zM23.38 27.38l-0.06-0.04 0.08-0.08 0.06 0.04L23.38 27.38zM23.38 27.03l-0.06-0.06 0.08-0.08 0.06 0.06L23.38 27.03zM23.38 26.69l-0.06-0.06 0.08-0.08 0.06 0.06L23.38 26.69zM23.55 27.55l-0.04-0.04 0.07-0.08 0.04 0.04L23.55 27.55zM23.55 27.21l-0.04-0.06 0.07-0.08 0.04 0.06L23.55 27.21zM23.55 26.86l-0.04-0.06 0.07-0.08 0.04 0.06L23.55 26.86zM23.7 27.74l-0.04-0.04 0.08-0.08 0.04 0.04L23.7 27.74zM23.7 27.38l-0.04-0.04 0.08-0.08 0.04 0.04L23.7 27.38zM23.7 27.03l-0.04-0.06 0.08-0.08 0.04 0.06L23.7 27.03zM23.7 26.69l-0.04-0.06 0.08-0.08 0.04 0.06L23.7 26.69zM23.89 27.55l-0.04-0.04 0.08-0.08 0.04 0.04L23.89 27.55zM23.89 27.21l-0.04-0.06 0.08-0.08 0.04 0.06L23.89 27.21zM23.89 26.86l-0.04-0.06 0.08-0.08 0.04 0.06L23.89 26.86zM24.06 27.74l-0.04-0.04 0.08-0.08 0.04 0.04L24.06 27.74zM24.06 27.38l-0.04-0.04 0.08-0.08 0.04 0.04L24.06 27.38zM24.06 27.03l-0.04-0.06 0.08-0.08 0.04 0.06L24.06 27.03zM24.06 26.69l-0.04-0.06 0.08-0.08 0.04 0.06L24.06 26.69zM24.23 27.55l-0.04-0.04 0.08-0.08 0.04 0.04L24.23 27.55zM24.23 27.21l-0.04-0.06 0.08-0.08 0.04 0.06L24.23 27.21zM24.23 26.86l-0.04-0.06 0.08-0.08 0.04 0.06L24.23 26.86zM24.41 27.74l-0.04-0.04 0.08-0.08 0.04 0.04L24.41 27.74zM24.41 27.38l-0.04-0.04 0.08-0.08 0.04 0.04L24.41 27.38zM24.41 27.03l-0.04-0.06 0.08-0.08 0.04 0.06L24.41 27.03zM24.41 26.69l-0.04-0.06 0.08-0.08 0.04 0.06L24.41 26.69z"/><polygon fill="#2674BA" points="25.24,26.46 25.07,26.46 25.26,26.66   "/><polygon fill="#2674BA" points="24.71,26.46 25.26,27.01 25.26,26.83 24.9,26.46   "/><polygon fill="#2674BA" points="24.52,22.4 23.08,23.84 23.08,24.11 24.52,22.67   "/><polygon fill="#2674BA" points="24.52,24.13 23.08,25.57 23.08,25.84 24.52,24.39   "/><polygon fill="#2674BA" points="22.36,27.6 22.64,27.89 22.83,27.89 22.36,27.41   "/><polygon fill="#2674BA" points="22.36,27.91 22.49,27.91 22.36,27.78   "/><polygon fill="#2674BA" points="23.08,26.18 24.52,24.74 24.52,24.47 23.08,25.91   "/><polygon fill="#2674BA" points="24.52,23.43 23.08,24.87 23.08,25.14 24.52,23.69   "/><polygon fill="#2674BA" points="24.52,23.08 23.08,24.53 23.08,24.79 24.52,23.35   "/><polygon fill="#2674BA" points="24.52,22.74 23.08,24.19 23.08,24.45 24.52,23.01   "/><polygon fill="#2674BA" points="24.52,23.79 23.08,25.23 23.08,25.5 24.52,24.05   "/></g><g class="nb"><polygon fill="#2674BA" points="25.89,27.91 26.02,27.91 25.89,27.78   "/><path fill="#2674BA" d="M28.11 26.46v-0.23l-0.28 0.28 -0.04-0.06 0.32-0.32v-0.27l-0.65 0.65 -0.04-0.06 0.68-0.68v-0.27l-0.99 0.99 -0.06-0.06 1.03-1.03v-0.26l-1.33 1.33 -0.06-0.06 1.38-1.37v-0.27l-1.44 1.44v0.19h-0.13l0.15 0.15 -0.02 0.02v0.13l-0.29-0.29h-0.19l0.49 0.49 -0.02 0.02v0.19L26 26.5h-0.08v0.09l0.74 0.72 -0.02 0.02v0.13l-0.72-0.72v0.19l0.74 0.72 -0.02 0.02v0.13l-0.72-0.72v0.19l0.65 0.65h0.19l-0.06-0.04 0.08-0.08 0.06 0.04 -0.08 0.08h0.34l-0.04-0.04 0.08-0.08 0.04 0.04 -0.08 0.08h0.34l-0.04-0.04 0.08-0.08 0.04 0.04 -0.08 0.08h0.34l-0.04-0.04 0.08-0.08 0.04 0.04 -0.08 0.08h0.34l-0.06-0.06V27.7l0.23 0.23h0.19l-0.42-0.42v-0.17l0.57 0.57h0.13v-0.04l-0.72-0.72v-0.17l0.72 0.72v-0.17l-0.72-0.72v-0.17l0.72 0.72v-0.19l-0.72-0.7H28.11zM26.72 27.55l-0.06-0.04 0.08-0.08 0.06 0.04L26.72 27.55zM26.72 27.21l-0.06-0.06 0.08-0.08 0.06 0.06L26.72 27.21zM26.72 26.86l-0.06-0.06 0.08-0.08 0.06 0.06L26.72 26.86zM26.91 27.74l-0.06-0.04 0.08-0.08 0.06 0.04L26.91 27.74zM26.91 27.38l-0.06-0.04 0.08-0.08 0.06 0.04L26.91 27.38zM26.91 27.03l-0.06-0.06 0.08-0.08 0.06 0.06L26.91 27.03zM26.91 26.69l-0.06-0.06 0.08-0.08 0.06 0.06L26.91 26.69zM27.08 27.55l-0.04-0.04 0.08-0.08 0.04 0.04L27.08 27.55zM27.08 27.21l-0.04-0.06 0.08-0.08 0.04 0.06L27.08 27.21zM27.08 26.86l-0.04-0.06 0.08-0.08 0.04 0.06L27.08 26.86zM27.24 27.74L27.2 27.7l0.08-0.08 0.04 0.04L27.24 27.74zM27.24 27.38l-0.04-0.04 0.08-0.08 0.04 0.04L27.24 27.38zM27.24 27.03l-0.04-0.06 0.08-0.08 0.04 0.06L27.24 27.03zM27.24 26.69l-0.04-0.06 0.08-0.08 0.04 0.06L27.24 26.69zM27.42 27.55l-0.04-0.04 0.08-0.08 0.04 0.04L27.42 27.55zM27.42 27.21l-0.04-0.06 0.08-0.08 0.04 0.06L27.42 27.21zM27.42 26.86l-0.04-0.06 0.08-0.08 0.04 0.06L27.42 26.86zM27.6 27.74l-0.04-0.04 0.08-0.08 0.04 0.04L27.6 27.74zM27.6 27.38l-0.04-0.04 0.08-0.08 0.04 0.04L27.6 27.38zM27.6 27.03l-0.04-0.06 0.08-0.08 0.04 0.06L27.6 27.03zM27.6 26.69l-0.04-0.06 0.08-0.08 0.04 0.06L27.6 26.69zM27.77 27.55l-0.04-0.04 0.08-0.08 0.04 0.04L27.77 27.55zM27.77 27.21l-0.04-0.06 0.08-0.08 0.04 0.06L27.77 27.21zM27.77 26.86l-0.04-0.06 0.08-0.08 0.04 0.06L27.77 26.86zM27.94 27.74L27.9 27.7l0.08-0.08 0.04 0.04L27.94 27.74zM27.94 27.38l-0.04-0.04 0.08-0.08 0.04 0.04L27.94 27.38zM27.94 27.03l-0.04-0.06 0.08-0.08 0.04 0.06L27.94 27.03zM27.94 26.69l-0.04-0.06 0.08-0.08 0.04 0.06L27.94 26.69z"/><polygon fill="#2674BA" points="28.77,26.46 28.6,26.46 28.79,26.66   "/><polygon fill="#2674BA" points="28.24,26.46 28.79,27.01 28.79,26.83 28.43,26.46   "/><polygon fill="#2674BA" points="28.05,23.08 26.61,24.53 26.61,24.79 28.05,23.35   "/><polygon fill="#2674BA" points="28.05,24.13 26.61,25.57 26.61,25.84 28.05,24.39   "/><polygon fill="#2674BA" points="28.05,22.4 26.61,23.84 26.61,24.11 28.05,22.67   "/><polygon fill="#2674BA" points="25.89,27.6 26.17,27.89 26.36,27.89 25.89,27.41   "/><polygon fill="#2674BA" points="26.61,26.18 28.05,24.74 28.05,24.47 26.61,25.91   "/><polygon fill="#2674BA" points="26.61,22.34 26.86,22.12 26.93,22.12 26.63,22.42 26.63,22.69 27.18,22.14 27.27,22.14     26.63,22.78 26.63,23.03 27.54,22.12 27.63,22.12 26.63,23.12 26.63,23.39 27.88,22.14 27.96,22.14 26.61,23.48 26.61,23.75     28.05,22.31 28.05,20.69 25.89,20.69 25.89,22.14 26.61,22.14   "/><polygon fill="#2674BA" points="28.05,22.74 26.61,24.19 26.61,24.45 28.05,23.01   "/><polygon fill="#2674BA" points="28.05,23.43 26.61,24.87 26.61,25.14 28.05,23.69   "/><polygon fill="#2674BA" points="28.05,23.79 26.61,25.23 26.61,25.5 28.05,24.05   "/></g></g></svg>