<?xml version="1.0" encoding="utf-8"?>
<!-- Generator: Adobe Illustrator 16.0.0, SVG Export Plug-In . SVG Version: 6.00 Build 0)  -->
<!DOCTYPE svg PUBLIC "-//W3C//DTD SVG 1.1//EN" "http://www.w3.org/Graphics/SVG/1.1/DTD/svg11.dtd">
<svg version="1.1" id="Layer_1" xmlns="http://www.w3.org/2000/svg" xmlns:xlink="http://www.w3.org/1999/xlink" x="0px" y="0px"
	 width="42.278px" height="136.637px" viewBox="1663.155 675.157 42.278 136.637"
	 enable-background="new 1663.155 675.157 42.278 136.637" xml:space="preserve">
<g id="bg_x5F_prog">
	<g id="left">
		<path fill="#2674BA" d="M1696.07,701.637l-15.019-15.02c-0.634,0.585-1.024,1.122-1.171,1.511l15.264,15.459
			C1695.338,703.1,1695.679,702.466,1696.07,701.637z"/>
		<polygon fill="#2674BA" points="1673.737,758.788 1673.737,759.227 1673.737,762.396 1691.34,744.792 1689.975,742.55 		"/>
		<path fill="#2674BA" d="M1701.533,696.906l-15.362-15.166c-0.194,0.196-0.39,0.342-0.682,0.537
			c-0.244,0.194-0.537,0.391-0.83,0.585l15.118,15.02C1700.313,697.395,1700.996,697.102,1701.533,696.906z M1705.237,690.421
			l-12.58-12.581c-0.585,0.195-1.219,0.536-1.756,0.926l14.336,14.337V690.421z M1673.737,772.588l20.285-20.286
			c-0.194-0.439-0.293-0.927-0.391-1.365c-0.097-0.39-0.194-0.927-0.39-1.414l-19.554,19.359v3.706H1673.737z M1694.657,756.837
			c0-1.122-0.196-2.243-0.44-3.413l-20.479,20.578h0.098v3.706L1694.657,756.837z M1673.737,767.565l19.066-19.066
			c-0.293-0.537-0.391-1.024-0.536-1.365c-0.195-0.439-0.391-0.928-0.537-1.415l-17.945,18.042v3.805H1673.737z M1687,738.502
			c0-0.098-0.196-0.195-0.391-0.292c2.585-2.78,4.634-5.949,5.998-9.461c1.414-3.511,2.146-7.412,2.146-11.46v-10.581
			c0-0.634,0.098-1.024,0.196-1.219l-16.094-16.093c-0.39,0.829-0.779,1.414-1.024,1.706l15.654,15.653h-2.438l-13.946-13.995
			l-0.927,1.756l12.143,12.239h-2.438l-10.387-10.386c-0.195,0.39-0.292,0.634-0.39,1.024c0,0.39-0.097,0.73-0.195,1.022
			l8.241,8.437h-2.342l-6.484-6.484c-0.098,0.39-0.195,0.73-0.195,1.121s-0.098,0.731-0.195,1.122l4.097,4.144h-2.243l-2.146-1.95
			v1.95v10.582c0,2.878-1.022,5.365-3.071,7.412c-2.048,2.049-4.535,3.072-7.412,3.072v20.969h0.194c1.317,0,2.293,0.195,3.17,0.586
			l0.927-0.928c0.39,0,0.927-0.097,1.464-0.293l-1.415,1.463c0.391,0.196,0.731,0.391,1.121,0.635
			c0.391,0.243,0.731,0.536,1.122,0.829l4.34-4.34c0.391-0.195,0.731-0.391,1.122-0.537c0.39-0.194,0.731-0.39,1.121-0.536v0.195
			l-5.852,5.853c0.634,0.73,1.219,1.365,1.657,2.145l15.02-15.02C1687.098,738.697,1687.098,738.599,1687,738.502z"/>
		<polygon fill="#2674BA" points="1705.237,680.229 1700.41,675.45 1698.216,675.889 1705.237,682.911 		"/>
		<path fill="#2674BA" d="M1689.292,741.72c-0.194-0.39-0.438-0.731-0.731-1.121c-0.293-0.391-0.536-0.731-0.73-1.023
			l-15.166,15.165c0.536,0.927,0.828,1.853,0.927,2.877L1689.292,741.72z M1698.362,698.76l-14.775-14.923l-1.413,1.415
			l14.823,15.02C1697.338,699.881,1697.826,699.345,1698.362,698.76z M1703.921,675.157c-0.438,0-0.928,0.098-1.366,0.194
			l2.78,2.488v-2.683C1704.75,675.157,1704.311,675.157,1703.921,675.157z M1703.921,790.923h-1.024
			c-0.292-0.098-0.39-0.194-0.536-0.194s-0.391-0.098-0.536-0.196l0.293,0.293l-1.221,1.219l-0.535-0.535l0.926-1.024
			c-0.536-0.194-0.926-0.391-1.316-0.537c-0.391-0.194-0.731-0.39-1.121-0.585l-0.438,0.293l-0.537-0.536l0.293-0.293
			c-0.732-0.536-1.365-1.219-1.756-1.95l-0.439,0.292l-0.535-0.536l0.487-0.438c-0.195-0.391-0.39-0.83-0.537-1.22
			c-0.194-0.438-0.39-0.926-0.487-1.414c0-0.049,0-0.049-0.049-0.097l-0.878,0.779l-0.536-0.536l1.22-1.22l0,0
			c0-0.048,0-0.098,0-0.098v-0.438c-0.098-0.292-0.196-0.73-0.196-1.22v-1.95l-1.95,1.95h-0.634l0.195,0.293l-1.024,1.219
			l-0.731-0.731l4.097-4.096v-3.803l-7.071,6.924h-0.487l0.292,0.293l-1.219,1.219l-0.731-0.731l9.168-9.167v-3.853l-12.143,12.142
			h-0.487l0.293,0.292l-1.221,1.22l-0.731-0.73l14.24-14.094v-3.804l-17.116,17.116h-0.487l0.292,0.292l-1.219,1.22l-0.537-0.73
			l19.262-19.263v-2.584v-1.219l-21.018,21.017v1.219v1.464v0.292c0.099,0.097,0.196,0.293,0.196,0.536l0.292-0.293l0.536,0.731
			l-0.926,0.731c0.098,0.196,0.194,0.586,0.194,0.928v-0.196c0,0.196,0.098,0.391,0.195,0.439v0.731
			c0.098,0.194,0.195,0.391,0.195,0.585c0,0.195,0.097,0.391,0.195,0.537v0.097c0.098,0.293,0.194,0.635,0.194,1.024h0.098v0.194
			c0.194,1.122,0.537,2.049,0.927,2.878l1.023-1.024l0.537,0.536l-1.219,1.22l-0.293-0.292c0,0.097,0,0.097,0.097,0.194
			c0.099,0,0.099,0.098,0.099,0.194l0.194,0.196c0.293,1.023,0.635,1.853,1.024,2.39l0.438,0.926v0.098l0.927,1.365l0.438,0.927
			l0.195-0.194l0.732,0.633l-0.293,0.293c0.293,0.391,0.536,0.731,0.829,1.024c0.292,0.292,0.536,0.634,0.829,1.024l0.438-0.439
			l0.73,0.536l-0.535,0.536c0.391,0.39,0.633,0.634,0.926,0.927c0.293,0.391,0.634,0.634,1.024,0.926l0.438-0.535l0.732,0.731
			l-0.537,0.487c0.391,0.293,0.731,0.634,1.023,0.926c0.293,0.391,0.634,0.634,1.024,0.927l0.293-0.438l0.731,0.73l-0.293,0.195
			c0.634,0.439,1.024,0.731,1.219,0.927h0.195c0.488,0.194,0.731,0.39,0.928,0.535l0.926,0.488c0.195,0.195,0.391,0.293,0.536,0.293
			c0.098,0.097,0.195,0.194,0.294,0.194c0.389,0.293,0.828,0.439,1.219,0.537h0.242c0,0.097,0.099,0.194,0.293,0.194l0.78,0.391
			l-0.487-0.683l1.219-1.219l0.537,0.731l-1.171,1.17l0.05,0.049h0.194l2.683,0.926l0.292-0.292l0.439,0.537h0.292h0.293
			c0.634,0.194,1.024,0.292,1.219,0.292c0.195,0,0.39,0,0.439,0.097c0.097,0.099,0.194,0.099,0.292,0.099
			c0.195,0,0.39,0,0.487,0.098c0.098,0.097,0.293,0.097,0.487,0.097l1.219-1.219l0.537,0.731l-0.537,0.537
			c0.635,0,1.122,0.097,1.415,0.194h1.756v-3.315l-1.219,1.219l-0.537-0.731l1.219-1.219l0.537,0.731v-5.071l-1.219,1.219
			l-0.537-0.731l1.219-1.219l0.537,0.731v-5.071l-1.316,1.169l-0.537-0.634l1.22-1.219l0.536,0.634v-5.071l-1.219,1.219
			l-0.537-0.536l1.17-1.219l0.537,0.536v-2.438c-0.635,0-1.121-0.099-1.365-0.196V790.923z M1676.174,786.729l-0.536-0.585
			l1.219-1.22l0.536,0.536L1676.174,786.729z M1678.662,794.434l-0.585-0.585l1.023-1.17l0.731,0.536L1678.662,794.434z
			 M1678.662,789.313l-0.585-0.536l1.023-1.22l0.731,0.537L1678.662,789.313z M1678.662,784.145l-0.585-0.536l1.023-1.22
			l0.731,0.731L1678.662,784.145z M1681.246,796.921l-0.731-0.537l1.22-1.219l0.731,0.635L1681.246,796.921z M1681.246,791.85
			l-0.731-0.585l1.22-1.22l0.731,0.536L1681.246,791.85z M1681.246,786.729l-0.731-0.536l1.22-1.22l0.731,0.537L1681.246,786.729z
			 M1683.733,799.505l-0.731-0.634l1.219-1.219l0.731,0.634L1683.733,799.505z M1683.733,794.434l-0.731-0.536l1.219-1.219
			l0.731,0.536L1683.733,794.434z M1683.733,789.313l-0.731-0.536l1.219-1.22l0.731,0.537L1683.733,789.313z M1683.733,784.145
			l-0.731-0.536l1.219-1.22l0.731,0.731L1683.733,784.145z M1686.318,802.09l-0.732-0.731l1.219-1.024l0.732,0.537L1686.318,802.09z
			 M1686.318,796.921l-0.732-0.537l1.219-1.219l0.732,0.635L1686.318,796.921z M1686.318,791.85l-0.732-0.537l1.219-1.219
			l0.732,0.537L1686.318,791.85z M1686.318,786.729l-0.732-0.585l1.219-1.22l0.732,0.536L1686.318,786.729z M1688.951,804.626
			l-0.731-0.731l1.219-1.219l0.731,0.731L1688.951,804.626z M1688.951,799.505l-0.731-0.634l1.219-1.219l0.731,0.634
			L1688.951,799.505z M1688.951,794.434l-0.731-0.536l1.17-1.219l0.731,0.536L1688.951,794.434z M1688.951,789.313l-0.78-0.536
			l1.219-1.22l0.731,0.537L1688.951,789.313z M1688.951,784.145l-0.731-0.536l1.219-1.22l0.731,0.731L1688.951,784.145z
			 M1691.438,807.21l-0.731-0.731l1.219-1.219l0.537,0.731L1691.438,807.21z M1691.438,802.09l-0.731-0.731l1.219-1.024l0.537,0.537
			L1691.438,802.09z M1691.438,796.921l-0.731-0.537l1.219-1.219l0.537,0.635L1691.438,796.921z M1691.438,791.85l-0.731-0.537
			l1.219-1.219l0.537,0.537L1691.438,791.85z M1691.438,786.729l-0.731-0.585l1.219-1.22l0.537,0.536L1691.438,786.729z
			 M1693.828,804.626l-0.537-0.731l1.219-1.219l0.537,0.731L1693.828,804.626z M1693.828,799.505l-0.537-0.634l1.219-1.219
			l0.537,0.634L1693.828,799.505z M1693.828,794.434l-0.537-0.536l1.219-1.219l0.537,0.536L1693.828,794.434z M1693.828,789.313
			l-0.537-0.536l1.219-1.22l0.537,0.537L1693.828,789.313z M1696.412,807.21l-0.536-0.731l1.219-1.219l0.536,0.731L1696.412,807.21z
			 M1696.412,802.09l-0.536-0.731l1.219-1.024l0.536,0.537L1696.412,802.09z M1696.412,796.921l-0.536-0.537l1.219-1.219
			l0.536,0.635L1696.412,796.921z M1696.412,791.85l-0.536-0.537l1.219-1.219l0.536,0.537L1696.412,791.85z M1698.947,809.697
			l-0.535-0.731l1.219-1.219l0.535,0.731L1698.947,809.697z M1698.947,804.626l-0.535-0.731l1.219-1.219l0.535,0.731
			L1698.947,804.626z M1698.947,799.505l-0.535-0.634l1.219-1.219l0.535,0.634L1698.947,799.505z M1698.947,794.434l-0.535-0.536
			l1.169-1.219l0.537,0.536L1698.947,794.434z M1701.533,807.21l-0.537-0.731l1.219-1.219l0.537,0.731L1701.533,807.21z
			 M1701.533,802.09l-0.537-0.731l1.219-1.024l0.537,0.537L1701.533,802.09z M1701.533,796.921l-0.537-0.537l1.219-1.219
			l0.537,0.635L1701.533,796.921z M1688.463,679.985c-0.341,0.146-0.634,0.341-0.927,0.536l15.848,15.751
			c0.439-0.098,1.123-0.195,1.951-0.195v-0.536l-16.092-16.092C1689.048,679.595,1688.755,679.79,1688.463,679.985z
			 M1694.315,677.107l11.021,11.021v-2.682l-8.924-8.924C1695.437,676.719,1694.657,676.913,1694.315,677.107z"/>
		<polygon fill="#2674BA" points="1693.828,809.697 1693.875,809.648 1693.778,809.648 		"/>
		<path fill="#2674BA" d="M1695.046,783.12l-0.537-0.731c0,0.196,0.098,0.488,0.244,0.976L1695.046,783.12z"/>
	</g>
	<g id="right">
		<path fill="#2674BA" d="M2316.709,705.537h-0.097v2.39l17.311-17.312c-0.195-0.535-0.391-0.926-0.634-1.316
			c-0.194-0.39-0.438-0.731-0.635-1.121l-16.092,15.946C2316.613,704.513,2316.709,704.952,2316.709,705.537z M2316.807,714.218
			v1.755v1.951l20.091-19.994c-0.195-0.487-0.391-1.023-0.439-1.463c-0.098-0.487-0.292-1.024-0.438-1.462l-19.262,19.262h0.049
			V714.218z M2316.709,713.048l18.774-18.872c-0.195-0.537-0.391-1.024-0.536-1.415c-0.146-0.39-0.391-0.828-0.537-1.219
			l-17.701,17.701V713.048L2316.709,713.048z M2318.807,727.384c0.293,0.537,0.438,0.926,0.634,1.316
			c0.194,0.39,0.389,0.829,0.535,1.317l17.702-17.702v-3.804L2318.807,727.384z M2323.195,735.137
			c0.293,0.293,0.536,0.634,0.732,1.024l15.214-14.921c-0.195-0.537-0.39-1.024-0.537-1.415c-0.194-0.439-0.39-0.927-0.438-1.365
			l-15.751,15.702C2322.61,734.503,2322.903,734.893,2323.195,735.137z M2337.824,713.583l-17.311,17.313
			c0.194,0.389,0.391,0.828,0.635,1.219c0.194,0.39,0.438,0.828,0.634,1.219l16.092-16.092c-0.098-0.195-0.195-0.634-0.195-1.219
			h0.098v-2.439H2337.824z M2315.978,701.734c0.195,0.39,0.39,0.926,0.439,1.413l15.652-15.555
			c-0.536-0.781-1.121-1.415-1.658-2.146l-15.019,15.02C2315.588,700.904,2315.783,701.246,2315.978,701.734z M2317.148,720.897
			c0,0.537,0.098,1.122,0.196,1.562l20.188-20.286c-0.1-0.488-0.1-1.023-0.196-1.561c-0.098-0.536-0.194-1.121-0.389-1.561
			l-19.994,20.091C2317.051,719.776,2317.051,720.362,2317.148,720.897z M2318.076,724.994c0.097,0.391,0.291,0.927,0.487,1.365
			l19.164-19.164v-1.658v-1.95l-20.091,19.992C2317.782,724.068,2317.978,724.507,2318.076,724.994z M2312.321,696.906
			l14.825-14.824c-0.489-0.536-1.122-1.122-1.952-1.657l-15.263,15.263C2310.76,695.979,2311.492,696.467,2312.321,696.906z
			 M2322.708,739.623l15.459,15.458c0.097-0.389,0.389-0.926,0.73-1.755l-15.019-15.166
			C2323.537,738.502,2323.097,739.038,2322.708,739.623z M2320.757,742.744l15.116,15.36h-2.39l-13.799-13.8
			c-0.391,0.634-0.635,1.316-0.732,1.951l11.85,11.849h-2.39l-10.19-10.191c-0.099,0.391-0.196,0.731-0.293,1.024
			c-0.098,0.293-0.196,0.634-0.293,1.024l8.143,8.143h-2.389l-6.096-6.192c-0.194,0.927-0.292,1.755-0.292,2.243l3.804,3.9h-2.39
			l-1.658-1.657v1.657v21.212c0,2.878-1.023,5.365-3.072,7.413c-2.048,2.048-4.535,3.072-7.412,3.072v21.017
			c4.243,0,8.339-0.828,12.239-2.487c3.902-1.657,7.218-3.9,10.095-6.777c2.876-2.878,5.071-6.193,6.778-9.996
			c1.658-3.805,2.487-7.852,2.487-12.338v-21.017v-0.927l-16.093-16.093C2321.489,741.379,2321.148,741.916,2320.757,742.744z
			 M2345.578,726.066l-1.755,1.756l-0.537-0.731l1.219-1.219c-0.828-0.391-1.56-0.829-2.389-1.415l-3.608,3.805
			c-0.196,0.098-0.439,0.098-0.731,0.194c-0.293,0-0.537,0.098-0.731,0.196l0.488,0.438l-1.025,1.219l-0.73-0.731l5.753-5.56
			c-0.633-0.634-1.315-1.315-1.755-2.146l-14.922,15.02c0.391,0.391,0.537,0.634,0.926,0.927c0.391,0.292,0.636,0.634,0.927,1.023
			l0.196-0.292l0.731,0.537l-0.293,0.292c0.39,0.39,0.731,0.634,1.024,0.927c0.292,0.292,0.634,0.535,1.022,0.731l10.632,10.63
			c0.194-0.194,0.391-0.438,0.634-0.731c0.195-0.293,0.488-0.536,0.633-0.731l-5.559-5.364l1.219-1.219l0.537,0.537l-0.928,1.022
			l2.683,0.928h0.195l3.171,3.169c0.291-0.292,0.828-0.634,1.656-1.024l-1.219-1.219c0.196,0,0.391,0.099,0.44,0.195l1.022-1.023
			l0.634,0.536l-0.438,0.585h1.023l0.438,0.438c0.829-0.194,1.562-0.292,2.146-0.292v-21.018
			C2347.138,726.555,2346.309,726.359,2345.578,726.066z M2328.754,737.771l-0.73-0.537l1.219-1.219l0.731,0.731L2328.754,737.771z
			 M2331.241,740.354l-0.731-0.535l1.22-1.221l0.731,0.537L2331.241,740.354z M2331.241,735.43l-0.731-0.731l1.22-1.219l0.731,0.731
			L2331.241,735.43z M2333.826,742.938l-0.73-0.535l1.219-1.219l0.731,0.535L2333.826,742.938z M2333.826,737.771l-0.73-0.537
			l1.219-1.219l0.731,0.731L2333.826,737.771z M2333.826,732.846l-0.73-0.731l1.219-1.219l0.731,0.731L2333.826,732.846z
			 M2336.411,740.354l-0.731-0.535l1.219-1.221l0.535,0.537L2336.411,740.354z M2336.411,735.332l-0.731-0.73l1.219-1.221
			l0.535,0.781L2336.411,735.332z M2338.848,742.938l-0.537-0.535l1.221-1.219l0.535,0.535L2338.848,742.938z M2338.848,737.771
			l-0.537-0.537l1.221-1.219l0.535,0.731L2338.848,737.771z M2338.848,732.846l-0.537-0.731l1.221-1.219l0.535,0.731
			L2338.848,732.846z M2341.335,745.426l-0.535-0.535l1.219-1.221l0.535,0.537L2341.335,745.426z M2341.335,740.354l-0.535-0.535
			l1.219-1.221l0.535,0.537L2341.335,740.354z M2341.335,735.43l-0.535-0.731l1.219-1.219l0.535,0.731L2341.335,735.43z
			 M2341.335,730.261l-0.535-0.731l1.219-1.22l0.535,0.731L2341.335,730.261z M2343.823,742.938l-0.537-0.535l1.219-1.219
			l0.634,0.535L2343.823,742.938z M2343.823,737.771l-0.537-0.537l1.219-1.219l0.634,0.731L2343.823,737.771z M2343.823,732.846
			l-0.537-0.731l1.219-1.219l0.634,0.731L2343.823,732.846z M2346.309,745.426l-0.537-0.535l1.22-1.221l0.634,0.537
			L2346.309,745.426z M2346.309,740.354l-0.537-0.535l1.22-1.221l0.634,0.537L2346.309,740.354z M2346.309,735.43l-0.537-0.731
			l1.22-1.219l0.634,0.731L2346.309,735.43z M2346.309,730.261l-0.537-0.731l1.22-1.22l0.634,0.731L2346.309,730.261z
			 M2308.908,695.248l15.458-15.458c-0.487-0.487-1.219-1.024-2.243-1.463l-16.044,15.945v0.732c0.586,0,1.024,0,1.415,0.097
			C2307.981,695.054,2308.468,695.15,2308.908,695.248z M2314.027,698.467c0.391,0.39,0.635,0.731,0.928,1.024l14.922-15.02
			c-0.391-0.391-0.634-0.731-0.927-1.024c-0.391-0.391-0.634-0.634-0.926-0.926l-14.923,14.921
			C2313.443,697.833,2313.736,698.125,2314.027,698.467z M2306.225,692.957l15.166-15.166c-0.537-0.196-0.927-0.391-1.316-0.537
			c-0.39-0.194-0.83-0.39-1.317-0.535l-12.58,12.483v3.755H2306.225z M2316.417,675.694c-0.391-0.194-0.927-0.293-1.415-0.391
			l-8.972,8.875v3.804l11.751-11.753C2317.344,676.084,2316.904,675.889,2316.417,675.694z M2307.981,673.938
			c-0.535,0-1.219,0-1.756,0v3.804l3.608-3.609C2309.2,674.036,2308.566,673.938,2307.981,673.938z M2312.516,674.523
			c-0.536-0.098-1.073-0.194-1.658-0.292l-4.633,4.827v3.706l7.802-7.754C2313.54,674.768,2313.003,674.622,2312.516,674.523z"/>
	</g>
</g>
</svg>
