<?xml version="1.0" encoding="utf-8"?>
<!-- Generator: Adobe Illustrator 16.0.0, SVG Export Plug-In . SVG Version: 6.00 Build 0)  -->
<!DOCTYPE svg PUBLIC "-//W3C//DTD SVG 1.1//EN" "http://www.w3.org/Graphics/SVG/1.1/DTD/svg11.dtd">
<svg version="1.1" xmlns="http://www.w3.org/2000/svg" xmlns:xlink="http://www.w3.org/1999/xlink" x="0px" y="0px" width="200px"
	 height="200px" viewBox="0 0 200 200" style="enable-background:new 0 0 200 200;" xml:space="preserve">
<style type="text/css">
<![CDATA[
	.st0{fill:#78A9CD;}
]]>
</style>
<g id="Layer_1">
	<g>
		<path class="st0" d="M101.4,12c31,0.5,58.2,17.1,73.5,41.9l2.4-1c-15.8-25.7-44-43-76.2-43.4L101.4,12z"/>
		<path class="st0" d="M24.5,54.7c15-24.9,42-41.9,73-42.7l0.3-2.5c-32.2,0.8-60.2,18.4-75.7,44.3L24.5,54.7z"/>
		<path class="st0" d="M179.5,143.4c7.1-12.9,11.1-27.7,11.1-43.4c0-16.1-4.2-31.2-11.6-44.4l-2,1.6C184,69.9,188,84.5,188,100
			c0,15.1-3.8,29.4-10.6,41.8L179.5,143.4z"/>
		<path class="st0" d="M175.5,145.2c-15,25-42.1,42-73.1,42.8l-0.3,2.5c32.2-0.7,60.3-18.4,75.8-44.4L175.5,145.2z"/>
		<path class="st0" d="M98.5,188c-31.1-0.5-58.4-17.3-73.6-42.1l-2.4,1c15.7,25.9,44,43.2,76.3,43.6L98.5,188z"/>
		<path class="st0" d="M22.8,142.3C15.9,129.8,12,115.3,12,100c0-15.2,3.8-29.4,10.6-41.9l-2-1.5C13.5,69.5,9.4,84.3,9.4,100
			c0,15.9,4.1,30.9,11.4,43.9L22.8,142.3z"/>
	</g>
</g>
<g id="Layer_2">
	<g>
		<path class="st0" d="M36.4,59.6C49.1,39.6,71,26,96,24.7l0.5-3.8c-26.8,1.2-50.2,15.8-63.6,37.2L36.4,59.6z"/>
		<path class="st0" d="M103.2,24.7c25.1,1.1,47,14.4,59.9,34.2l3.5-1.5c-13.6-21.3-37.2-35.6-64-36.5L103.2,24.7z"/>
		<path class="st0" d="M170.3,136.5c5.7-10.9,8.9-23.3,8.9-36.5c0-13.5-3.4-26.1-9.3-37.3l-3,2.4c5.5,10.4,8.6,22.3,8.6,34.9
			c0,12.3-3,23.9-8.2,34.1L170.3,136.5z"/>
		<path class="st0" d="M163.6,140.4c-12.7,20-34.6,33.6-59.7,34.9l-0.5,3.8c26.9-1.2,50.3-15.8,63.7-37.3L163.6,140.4z"/>
		<path class="st0" d="M96.7,175.3c-25.2-1.1-47.2-14.5-60.1-34.4l-3.5,1.5c13.6,21.4,37.2,35.8,64.1,36.7L96.7,175.3z"/>
		<path class="st0" d="M24.6,100c0-12.3,3-23.9,8.2-34.2l-3.1-2.3c-5.7,10.9-8.9,23.3-8.9,36.5c0,13.3,3.3,25.8,9.1,36.8l3-2.4
			C27.6,124.1,24.6,112.4,24.6,100z"/>
	</g>
</g>
<g id="Layer_3">
	<g>
		<path class="st0" d="M105.2,38.6c18.6,1.5,34.8,11.4,45.1,25.8l4.7-2c-11.2-16.4-29.6-27.5-50.5-28.9L105.2,38.6z"/>
		<path class="st0" d="M49.5,64.8c10.1-14.5,26.3-24.5,44.9-26.2l0.6-5.1C74,35.1,55.8,46.4,44.7,62.9L49.5,64.8z"/>
		<path class="st0" d="M160.1,128.8c4.2-8.7,6.6-18.5,6.6-28.8c0-10.6-2.5-20.5-6.9-29.4l-4.1,3.2c3.8,8,5.9,16.9,5.9,26.2
			c0,9.2-2,17.9-5.6,25.7L160.1,128.8z"/>
		<path class="st0" d="M150.6,135.1c-10.1,14.5-26.4,24.5-44.9,26.2l-0.6,5.1c21-1.6,39.3-12.9,50.4-29.4L150.6,135.1z"/>
		<path class="st0" d="M94.8,161.4c-18.7-1.6-35-11.5-45.2-26l-4.8,2c11.2,16.5,29.6,27.7,50.7,29.1L94.8,161.4z"/>
		<path class="st0" d="M38.4,100c0-9.2,2-17.9,5.7-25.8l-4.1-3.1c-4.2,8.7-6.6,18.5-6.6,28.9c0,10.4,2.4,20.2,6.6,28.9l4.1-3.2
			C40.4,117.9,38.4,109.2,38.4,100z"/>
	</g>
</g>
<g id="Layer_4">
	<g>
		<path class="st0" d="M107.5,55.2c11,1.8,20.6,7.6,27.4,15.8l6-2.6c-8.2-10.6-20.4-17.9-34.4-19.7L107.5,55.2z"/>
		<path class="st0" d="M65,71.1c6.8-8.2,16.4-14,27.4-15.9l0.8-6.5C79.2,50.6,67,58,58.9,68.6L65,71.1z"/>
		<path class="st0" d="M147.9,119.7c2.5-6.1,3.9-12.7,3.9-19.7c0-7.1-1.4-13.8-4-20l-5.2,4.1c1.9,5,2.9,10.3,2.9,15.9
			c0,5.5-1,10.8-2.8,15.7L147.9,119.7z"/>
		<path class="st0" d="M92.5,144.8c-11-1.9-20.7-7.7-27.6-16l-6,2.6c8.2,10.7,20.5,18.1,34.5,19.9L92.5,144.8z"/>
		<path class="st0" d="M54.6,100c0-5.5,1-10.9,2.8-15.8l-5.2-3.9c-2.5,6.1-3.9,12.7-3.9,19.7c0,6.9,1.4,13.5,3.8,19.5l5.2-4.1
			C55.5,110.6,54.6,105.4,54.6,100z"/>
		<path class="st0" d="M135.1,128.8c-6.8,8.3-16.5,14.1-27.5,15.9l-0.8,6.5c14-1.9,26.2-9.3,34.3-20L135.1,128.8z"/>
	</g>
</g>
<g id="Layer_5">
	<g>
		<path class="st0" d="M107.5,71.9l13.2,7.5l7.7-4.4c-5.4-5.9-12.7-10-20.9-11.4V71.9z"/>
		<path class="st0" d="M129,108l7.1,4.1c1.4-3.9,2.1-8.1,2-12.5c0-4.1-0.8-8.1-2-11.7l-7.3,4.2L129,108z"/>
		<path class="st0" d="M80.8,80.1l11.5-6.8V64c-7.6,1.8-14.3,6-19.2,11.7L80.8,80.1z"/>
		<path class="st0" d="M120.7,120.7l-13.3,7.8v8c8.2-1.4,15.5-5.6,20.9-11.4L120.7,120.7z"/>
		<path class="st0" d="M73.6,93.4l-7.8-4.5c-1.1,3.6-1.8,7.5-1.7,11.5c0,3.6,0.6,7.1,1.6,10.4l8.1-4.7L73.6,93.4z"/>
		<path class="st0" d="M92.4,126.8l-12.2-6.9l-7.2,4.2c5,5.8,11.8,10.1,19.4,11.9V126.8z"/>
	</g>
</g>
<g id="Layer_6">
	<polygon class="st0" points="82.4,89.5 82.6,111.2 101.5,121.8 120.1,110.8 119.9,89.1 101.1,78.5 	"/>
</g>
</svg>
