<svg xmlns="http://www.w3.org/2000/svg" viewBox="0 0 215 185"><path id="backCv" opacity="0.5" fill="#FFFFFF" d="M160.3 185.9H55.2l-52.6-91l52.6-91h105.1l52.6 91L160.3 185.9z M61 175.9h93.6 l46.8-81l-46.8-81H61l-46.8 81L61 175.9z"/><path id="mainCv" opacity="0.75" fill="#FFFFFF" d="M149 23.5H66.5L25.3 94.9l41.2 71.4H149l41.2-71.4L149 23.5z M100.9 85.5H88.3 v-3.1c0-1.7-0.6-3.2-1.8-4.4c-1.2-1.2-2.7-1.8-4.4-1.8H69.6c-1.7 0-3.2 0.6-4.4 1.8c-1.2 1.2-1.8 2.7-1.8 4.4v25 c0 1.7 0.6 3.2 1.8 4.4c1.2 1.2 2.7 1.8 4.4 1.8h12.5c1.7 0 3.2-0.6 4.4-1.8c1.2-1.2 1.8-2.7 1.8-4.4v-3.1h12.5v3.1 c0 2.6-0.5 5.1-1.5 7.3c-1 2.3-2.3 4.2-4 5.9s-3.7 3-6 4c-2.3 1-4.7 1.5-7.3 1.5H69.6c-2.6 0-5.1-0.5-7.3-1.5c-2.3-1-4.2-2.3-5.9-4 s-3-3.7-4-5.9c-1-2.3-1.5-4.7-1.5-7.3v-25c0-2.6 0.5-5 1.5-7.3c1-2.3 2.3-4.3 4-6c1.7-1.7 3.7-3 5.9-4c2.3-1 4.7-1.5 7.3-1.5h12.5 c2.6 0 5 0.5 7.3 1.5c2.3 1 4.3 2.3 6 4c1.7 1.7 3 3.7 4 6c1 2.3 1.5 4.7 1.5 7.3V85.5z M158.7 76.1l-16.3 50.1h-14.3l-16.3-50.1h-6 V63.6h25v12.5H125l10.3 31.7l10.3-31.7h-5.9V63.6h25v12.5H158.7z"/></svg>