<?xml version="1.0" encoding="utf-8"?>
<!-- Generator: Adobe Illustrator 16.0.0, SVG Export Plug-In . SVG Version: 6.00 Build 0)  -->
<!DOCTYPE svg PUBLIC "-//W3C//DTD SVG 1.1//EN" "http://www.w3.org/Graphics/SVG/1.1/DTD/svg11.dtd">
<svg version="1.1" id="Layer_1" xmlns="http://www.w3.org/2000/svg" xmlns:xlink="http://www.w3.org/1999/xlink" x="0px" y="0px"
	 width="215.1px" height="185.3px" viewBox="0 0 215.1 185.3" enable-background="new 0 0 215.1 185.3" xml:space="preserve">
<path id="backCv" opacity="0.5" fill="#FFFFFF" d="M161.2,185.3h-107L0.8,92.7L54.3,0h107l53.5,92.7L161.2,185.3z M60.1,175.1h95.2
	L203,92.7l-47.6-82.5H60.1L12.5,92.7L60.1,175.1z"/>
<g id="eye" opacity="0.75">
	<path opacity="0.75" fill="#FFFFFF" d="M149.5,19.9h-84l-42,72.7l42,72.7h84l42-72.7L149.5,19.9z M106.7,122.4
		C69.2,122.4,46,93.1,46,93.1s23.2-30.1,60.7-30.1c37.5,0,62.7,31.2,62.7,31.2S144.2,122.4,106.7,122.4z"/>
	<path opacity="0.75" fill="#FFFFFF" d="M82.5,92.7c0,7.7,3.6,14.5,9.1,18.9c-1.8-1.8-2.9-4.3-2.9-7.1c0-5.6,4.5-10.1,10.1-10.1
		s10.1,4.5,10.1,10.1s-4.5,10.1-10.1,10.1c-1.4,0-2.7-0.3-3.9-0.8c3.5,2,7.5,3.1,11.8,3.1c13.4,0,24.2-10.8,24.2-24.2
		c0-13.4-10.8-24.2-24.2-24.2C93.4,68.5,82.5,79.3,82.5,92.7z"/>
</g>
<path id="text" display="none" opacity="0.75" fill="#FFFFFF" d="M149.5,19.9h-84l-42,72.7l42,72.7h84l42-72.7L149.5,19.9z
	 M100.7,83.1H88v-3.2c0-1.8-0.6-3.3-1.9-4.5c-1.2-1.2-2.7-1.9-4.5-1.9H68.9c-1.8,0-3.3,0.6-4.5,1.9c-1.2,1.2-1.9,2.7-1.9,4.5v25.5
	c0,1.8,0.6,3.3,1.9,4.5c1.2,1.2,2.7,1.9,4.5,1.9h12.7c1.8,0,3.3-0.6,4.5-1.9c1.2-1.2,1.9-2.7,1.9-4.5v-3.2h12.7v3.2
	c0,2.7-0.5,5.2-1.5,7.5c-1,2.3-2.4,4.3-4.1,6.1c-1.7,1.7-3.8,3.1-6.1,4.1c-2.3,1-4.8,1.5-7.4,1.5H68.9c-2.7,0-5.2-0.5-7.5-1.5
	c-2.3-1-4.3-2.4-6.1-4.1c-1.7-1.7-3.1-3.7-4.1-6.1c-1-2.3-1.5-4.8-1.5-7.5V79.9c0-2.6,0.5-5.1,1.5-7.4c1-2.3,2.4-4.4,4.1-6.1
	c1.7-1.7,3.7-3.1,6.1-4.1c2.3-1,4.8-1.5,7.5-1.5h12.7c2.6,0,5.1,0.5,7.4,1.5c2.3,1,4.4,2.4,6.1,4.1c1.7,1.7,3.1,3.8,4.1,6.1
	c1,2.3,1.5,4.8,1.5,7.4V83.1z M159.6,73.5l-16.6,51h-14.6l-16.6-51h-6.1V60.8h25.5v12.7h-6l10.5,32.3l10.5-32.3h-6V60.8h25.5v12.7
	H159.6z"/>
</svg>
