<svg xmlns="http://www.w3.org/2000/svg" width="100px" height="187.5px" viewBox="0 0 100 187.5"><path fill="#FFFFFF" d="M95.306,154.158c-1.22-2.114-3.922-2.839-6.035-1.617l-34.532,19.937L54.457,8.304 c-0.005-2.438-1.981-4.411-4.418-4.411c-0.002,0-0.005,0-0.008,0c-2.44,0.004-4.415,1.986-4.41,4.426l0.281,164.143l-34.506-19.922 c-2.114-1.221-4.816-0.495-6.036,1.617c-1.22,2.113-0.496,4.814,1.617,6.035l41.147,23.756c0.134,0.076,0.272,0.141,0.412,0.202 c0.034,0.016,0.066,0.036,0.101,0.051c0.233,0.097,0.473,0.165,0.716,0.221c0.066,0.016,0.131,0.027,0.198,0.039 c0.259,0.047,0.521,0.079,0.783,0.079c0.002,0,0.005,0,0.008,0c0.005,0,0.009-0.002,0.013-0.002 c0.258-0.001,0.515-0.032,0.769-0.078c0.066-0.013,0.132-0.024,0.196-0.039c0.242-0.056,0.482-0.126,0.716-0.224 c0.037-0.016,0.071-0.036,0.108-0.054c0.135-0.061,0.27-0.12,0.398-0.195l41.146-23.756 C95.802,158.973,96.525,156.271,95.306,154.158z"/></svg>
