<svg xmlns="http://www.w3.org/2000/svg" width="111.25px" height="65.75px" viewBox="0 0 111.25 65.75"><path fill="#FFFFFF" d="M56.083,62.935c-0.863,0-1.727-0.224-2.5-0.67L7.018,35.381c-2.392-1.381-3.211-4.438-1.83-6.83 c1.38-2.391,4.438-3.212,6.83-1.83l44.065,25.44l44.064-25.44c2.392-1.383,5.45-0.563,6.83,1.83c1.381,2.392,0.562,5.449-1.83,6.83 L58.583,62.265C57.81,62.711,56.946,62.935,56.083,62.935z"/><path fill="#FFFFFF" d="M56.083,42.185c-0.863,0-1.727-0.224-2.5-0.67L7.018,14.631c-2.392-1.381-3.211-4.438-1.83-6.83 c1.38-2.391,4.438-3.212,6.83-1.83l44.065,25.44l44.064-25.44c2.392-1.383,5.45-0.563,6.83,1.83c1.381,2.392,0.562,5.449-1.83,6.83 L58.583,41.515C57.81,41.961,56.946,42.185,56.083,42.185z"/></svg>
