<?xml version="1.0" encoding="utf-8"?>
<!-- Generator: Adobe Illustrator 16.0.0, SVG Export Plug-In . SVG Version: 6.00 Build 0)  -->
<!DOCTYPE svg PUBLIC "-//W3C//DTD SVG 1.1//EN" "http://www.w3.org/Graphics/SVG/1.1/DTD/svg11.dtd">
<svg version="1.1" id="Layer_1" xmlns="http://www.w3.org/2000/svg" xmlns:xlink="http://www.w3.org/1999/xlink" x="0px" y="0px"
	 width="40px" height="40px" viewBox="0 0 40 40" enable-background="new 0 0 40 40" xml:space="preserve">
<path fill="#FFFFFF" d="M34.9,16.5c0-0.2-0.1-0.4-0.1-0.6l0.8-0.5l0,0L35.4,15l0-0.1l-0.2-0.5l-1,0.2c-0.1-0.1-0.1-0.2-0.2-0.3
	l0.6-0.8l0,0l-0.3-0.4l0,0l-0.4-0.4l-0.8,0.6c-0.1-0.1-0.3-0.2-0.4-0.3l0.3-1l0,0l-0.5-0.2l-0.1,0L32,11.7l-0.5,0.9
	c-0.1,0-0.2-0.1-0.3-0.1l-0.1-1l0,0l-0.5,0l-0.1,0l-0.5,0l-0.2,1c-0.2,0-0.3,0-0.5,0.1l-0.5-0.9l0,0l-0.5,0.2l-0.1,0l-0.5,0.2l0,0
	l0.2,1c-0.1,0.1-0.2,0.1-0.3,0.2l-0.8-0.6l0,0l-0.4,0.4l0,0l-0.4,0.3l0,0l0.6,0.8c-0.1,0.1-0.2,0.3-0.3,0.4l-1-0.3l0,0l-0.2,0.5
	l0,0.1l-0.2,0.5l0,0l0.9,0.5c0,0.1-0.1,0.2-0.1,0.3l-1,0.1v0l0,0.5l0,0.1l0,0.5v0l1,0.2c0,0.2,0,0.3,0.1,0.5l-0.9,0.5l0,0l0.2,0.5
	l0,0.1l0.2,0.5l0,0l1-0.2c0.1,0.1,0.1,0.2,0.2,0.3l-0.6,0.8l0,0l0.4,0.4l0,0l0.3,0.4l0,0l0.8-0.6c0.1,0.1,0.3,0.2,0.4,0.3l-0.3,0.9
	l0,0l0.5,0.2l0.1,0l0.5,0.2l0,0l0.5-0.8c0.1,0,0.2,0.1,0.4,0.1l0.1,1h0l0.5,0l0.1,0l0.5,0l0,0l0.2-0.9c0.2,0,0.4,0,0.5-0.1l0.5,0.8
	l0,0l0.5-0.2l0.1,0l0.5-0.2l-0.2-0.9c0.1-0.1,0.2-0.1,0.3-0.2l0.7,0.6l0,0l0.4-0.3l0,0l0.4-0.4l-0.5-0.8c0.1-0.1,0.2-0.3,0.3-0.5
	l0.9,0.3l0,0l0.2-0.5l0-0.1l0.2-0.5l-0.8-0.5c0-0.1,0.1-0.2,0.1-0.4l0.9-0.1v0l0-0.5l0-0.1l0-0.5L34.9,16.5z M32.1,17.1
	c0,1-0.9,1.8-1.9,1.8c-1,0-1.8-0.9-1.8-1.9c0-1,0.9-1.8,1.9-1.8C31.3,15.2,32.2,16.1,32.1,17.1z"/>
<path fill="#FFFFFF" d="M22.9,20.1c0-0.7-0.1-1.3-0.3-2l1.8-1.5l-1.3-2.5l0,0l-2.3,0.8c-0.4-0.5-0.9-0.9-1.5-1.3l0.5-2.4l-2.6-1
	l-0.1,0l-1.3,2.1c-0.6-0.1-1.3-0.1-1.9,0l-1.2-2.1L10,11.1l-0.1,0l0.3,2.5c-0.5,0.3-1,0.7-1.4,1.2l-2.4-0.9L5,16.2l0,0l1.9,1.7
	c-0.2,0.6-0.3,1.2-0.4,1.9l-2.3,0.8l0.4,2.8l0,0.1L7,23.5c0.2,0.6,0.6,1.2,1,1.8l-1.2,2l2.1,1.8l0,0l1.9-1.5
	c0.3,0.2,0.6,0.3,0.9,0.4c0.3,0.1,0.7,0.2,1,0.3l0.4,2.3l2.8,0.1l0.1,0l0.5-2.3c0.6-0.1,1.3-0.4,1.9-0.6l1.8,1.6l2.2-1.7l0,0
	l-1.1-2.1c0.4-0.5,0.7-1.1,1-1.7l2.4,0l0.6-2.7l0-0.1L22.9,20.1z M17.7,21.7c-0.6,1.7-2.5,2.5-4.2,1.8c-1.7-0.6-2.5-2.5-1.8-4.2
	c0.6-1.7,2.5-2.5,4.2-1.8C17.5,18.1,18.3,20,17.7,21.7z"/>
</svg>
