<svg xmlns="http://www.w3.org/2000/svg" width="841.89px" height="734.963px" viewBox="0 227.384 841.89 734.963" enable-background="new 0 227.384 841.89 734.963"><path fill="#2674BA" d="M576.906 323.029H261.828L104.395 595.8l88.609 153.436h73.665c21.258 0 39.359-6.104 50.724-19.785 c11.576-13.471 17.68-29.045 17.68-54.092V400.272l40.621 39.359v235.728c0 35.359-9.682 62.932-28.624 82.7 c-19.153 19.994-45.673 29.887-79.77 29.887h-52.197l46.725 80.611h315.078L734.337 595.8L576.906 323.029z M550.386 757.9 c-23.363 20.205-55.775 30.098-97.449 30.098h-75.56l38.306-38.938h39.569c28.625 0 52.408-6.104 68.615-19.994 c16.205-13.893 20.414-31.361 20.414-56.197s-8.84-44.199-26.52-58.09c-17.678-13.891-42.305-21.047-73.664-21.047h-32.834 l-0.21-38.517h28.835c25.256 0 46.514-5.894 60.826-17.89c14.313-12.208 20.205-26.94 20.205-48.409 c0-21.679-8.629-36.201-21.889-47.566c-14.943-12.839-32.834-16.838-60.195-16.838h-18.522l-40.832-41.253h54.512 c39.99 0 71.4 9.1 94.1 27.362c22.52 18.3 33.9 43.6 33.9 75.77s-11.365 57.459-33.885 75.6 c-4 3.157-8.209 6.104-13.049 8.84c12.416 5.3 23.4 11.6 32.8 18.942c24.836 20.2 37.5 48.2 37.5 84.2 C585.535 709.9 573.7 737.7 550.4 757.865z"/><polygon fill="#2674BA" points="724.2,422 678.6,422 779,595.8 599.2,907.3 239.5,907.3 59.6,595.8 239.5,284.3 599.2,284.3 656,382.8 701.7,382.8 621.9,244.9 216.8,244.9 14.1,595.8 216.8,946.9 621.9,946.9 824.6,595.8"/></svg>