
<!DOCTYPE svg PUBLIC "-//W3C//DTD SVG 1.1//EN" "http://www.w3.org/Graphics/SVG/1.1/DTD/svg11.dtd">
<svg xmlns="http://www.w3.org/2000/svg" viewBox="0 0 400 349.7">
<style type="text/css">
<![CDATA[
	.st0{fill:#2674BA;}
]]>
</style>
<path class="st0" d="M274.1,45.5H124.4L49.6,175.1L91.7,248h35c10.1,0,18.7-2.9,24.1-9.4c5.5-6.4,8.4-13.8,8.4-25.7V82.2l19.3,18.7
	v112c0,16.8-4.6,29.9-13.6,39.3c-9.1,9.5-21.7,14.2-37.9,14.2h-24.8l22.2,38.3h149.7l74.8-129.6L274.1,45.5z M261.5,252.1
	c-11.1,9.6-26.5,14.3-46.3,14.3h-35.9l18.2-18.5h18.8c13.6,0,24.9-2.9,32.6-9.5c7.7-6.6,9.7-14.9,9.7-26.7c0-11.8-4.2-21-12.6-27.6
	c-8.4-6.6-20.1-10-35-10h-15.6l-0.1-18.3h13.7c12,0,22.1-2.8,28.9-8.5c6.8-5.8,9.6-12.8,9.6-23c0-10.3-4.1-17.2-10.4-22.6
	c-7.1-6.1-15.6-8-28.6-8h-8.8l-19.4-19.6h25.9c19,0,33.9,4.3,44.7,13c10.7,8.7,16.1,20.7,16.1,36c0,15.3-5.4,27.3-16.1,35.9
	c-1.9,1.5-3.9,2.9-6.2,4.2c5.9,2.5,11.1,5.5,15.6,9c11.8,9.6,17.8,22.9,17.8,40C278.2,229.3,272.6,242.5,261.5,252.1z"/>
<polygon class="st0" points="344.1,92.5 322.4,92.5 370.1,175.1 284.7,323.1 113.8,323.1 28.3,175.1 113.8,27.1 284.7,27.1 
	311.7,73.9 333.4,73.9 295.5,8.4 103,8.4 6.7,175.1 103,341.9 295.5,341.9 391.8,175.1 "/>
</svg>
