<svg xmlns="http://www.w3.org/2000/svg" viewBox="-7.875 -44.844 67.667 105.969"><path fill="#FFFFFF" d="M55.445,5.042c-2.385-1.393-5.447-0.589-6.839,1.796L30.958,37.051v-70.119h21.5c2.761,0,5-2.238,5-5
	s-2.239-5-5-5h-53c-2.761,0-5,2.238-5,5s2.239,5,5,5h21.5v69.696L3.285,7.069c-1.417-2.37-4.486-3.146-6.857-1.726
	C-5.942,6.761-6.715,9.83-5.298,12.2L21.9,57.689c0.063,0.106,0.139,0.201,0.208,0.302c0.042,0.06,0.08,0.121,0.125,0.18
	c0.176,0.229,0.369,0.438,0.576,0.629c0.042,0.039,0.088,0.074,0.132,0.111c0.209,0.18,0.429,0.341,0.662,0.481
	c0.024,0.015,0.042,0.034,0.067,0.049c0.013,0.008,0.026,0.012,0.04,0.02c0.125,0.071,0.255,0.132,0.386,0.192
	c0.071,0.033,0.141,0.071,0.212,0.101c0.107,0.044,0.219,0.076,0.329,0.112c0.098,0.032,0.195,0.07,0.293,0.096
	c0.07,0.019,0.142,0.027,0.213,0.042c0.139,0.03,0.277,0.063,0.417,0.08c0.045,0.006,0.091,0.005,0.136,0.009
	c0.164,0.017,0.327,0.032,0.491,0.032c0.001,0,0.003,0,0.005,0s0.003,0,0.005,0c0.133,0,0.266-0.016,0.398-0.026
	c0.079-0.006,0.158-0.005,0.236-0.016c0.137-0.018,0.273-0.05,0.41-0.079c0.076-0.017,0.153-0.026,0.228-0.046
	c0.105-0.028,0.208-0.068,0.311-0.104c0.107-0.036,0.215-0.068,0.32-0.111c0.078-0.032,0.153-0.073,0.229-0.109
	c0.129-0.062,0.257-0.122,0.381-0.194c0.016-0.009,0.032-0.015,0.048-0.024c0.026-0.016,0.046-0.037,0.072-0.054
	c0.229-0.143,0.447-0.305,0.653-0.485c0.042-0.036,0.085-0.069,0.125-0.107c0.206-0.193,0.397-0.405,0.572-0.637
	c0.045-0.061,0.083-0.124,0.126-0.186c0.068-0.101,0.142-0.194,0.204-0.301L57.24,11.881C58.633,9.497,57.83,6.435,55.445,5.042z"/></svg>
