<svg xmlns="http://www.w3.org/2000/svg" viewBox="235.577 534.823 66.246 101.82"><path fill="#FFFFFF" d="M298.133,580.24c-2.385-1.394-5.447-0.589-6.839,1.795l-17.647,30.213V540.8c0-2.761-2.239-5-5-5 s-5,2.239-5,5v71.026l-17.673-29.559c-1.417-2.37-4.486-3.142-6.857-1.726c-2.37,1.417-3.143,4.487-1.726,6.857l27.198,45.488 c0.063,0.106,0.139,0.201,0.208,0.302c0.042,0.06,0.08,0.121,0.125,0.18c0.176,0.229,0.369,0.438,0.576,0.629 c0.042,0.039,0.088,0.074,0.132,0.111c0.209,0.18,0.429,0.341,0.662,0.481c0.024,0.015,0.042,0.034,0.067,0.049 c0.013,0.008,0.026,0.012,0.04,0.02c0.125,0.071,0.255,0.132,0.386,0.192c0.071,0.033,0.141,0.071,0.212,0.101 c0.107,0.044,0.219,0.076,0.329,0.112c0.098,0.032,0.195,0.07,0.293,0.096c0.07,0.019,0.142,0.027,0.213,0.042 c0.139,0.03,0.277,0.063,0.417,0.08c0.045,0.006,0.091,0.005,0.136,0.009c0.164,0.017,0.327,0.032,0.491,0.032 c0.001,0,0.003,0,0.005,0s0.003,0,0.005,0c0.133,0,0.266-0.016,0.398-0.026c0.079-0.006,0.158-0.005,0.236-0.016 c0.137-0.018,0.273-0.05,0.41-0.079c0.076-0.017,0.153-0.026,0.228-0.046c0.105-0.028,0.208-0.068,0.311-0.104 c0.107-0.036,0.215-0.068,0.32-0.111c0.078-0.032,0.153-0.073,0.229-0.109c0.129-0.062,0.257-0.122,0.381-0.194 c0.016-0.009,0.032-0.015,0.048-0.024c0.026-0.016,0.046-0.037,0.072-0.054c0.229-0.143,0.447-0.305,0.653-0.485 c0.042-0.036,0.085-0.069,0.125-0.107c0.206-0.193,0.397-0.405,0.572-0.637c0.045-0.061,0.083-0.124,0.126-0.186 c0.068-0.101,0.142-0.194,0.204-0.301l26.731-45.764C301.321,584.695,300.517,581.633,298.133,580.24z"/></svg>
