<?xml version="1.0" encoding="utf-8"?>
<!-- Generator: Adobe Illustrator 16.0.0, SVG Export Plug-In . SVG Version: 6.00 Build 0)  -->
<!DOCTYPE svg PUBLIC "-//W3C//DTD SVG 1.1//EN" "http://www.w3.org/Graphics/SVG/1.1/DTD/svg11.dtd">
<svg version="1.1" id="Layer_1" xmlns="http://www.w3.org/2000/svg" xmlns:xlink="http://www.w3.org/1999/xlink" x="0px" y="0px"
	 width="200px" height="200px" viewBox="0 0 200 200" enable-background="new 0 0 200 200" xml:space="preserve">
<g>
	<path fill="#FFFFFF" d="M38.37,90.568l-2.116,1.213l7.297,12.716c1.006,1.756,1.313,3.438,0.918,5.043
		c-0.396,1.607-1.372,2.857-2.928,3.75c-1.731,0.994-3.357,1.318-4.877,0.971c-1.521-0.346-2.766-1.414-3.735-3.203l-0.019-0.094
		l0.597-0.342c0.883,1.539,1.98,2.479,3.292,2.82c1.31,0.34,2.757,0.057,4.341-0.852c1.322-0.76,2.162-1.844,2.513-3.254
		c0.354-1.41,0.085-2.889-0.802-4.438l-7.297-12.717l-2.115,1.214l-0.402-0.701l4.932-2.83L38.37,90.568z"/>
	<path fill="#FFFFFF" d="M57.529,104.119c-1.602,0.918-3.355,1.064-5.261,0.439c-1.903-0.625-3.408-1.898-4.509-3.819l-0.478-0.83
		c-1.156-2.016-1.549-4.006-1.183-5.971c0.368-1.964,1.379-3.42,3.031-4.369c1.583-0.908,3.172-1.129,4.767-0.664
		c1.594,0.464,2.894,1.57,3.896,3.318L58.41,93.3l-10.524,6.038l0.096,0.169l0.477,0.831c0.972,1.696,2.293,2.844,3.96,3.446
		s3.236,0.48,4.707-0.363c1.047-0.602,1.84-1.246,2.381-1.936c0.542-0.691,0.899-1.465,1.074-2.324l0.689,0.33
		c-0.202,0.932-0.608,1.781-1.218,2.551C59.441,102.813,58.601,103.504,57.529,104.119z M49.53,90.271
		c-1.393,0.799-2.261,1.973-2.603,3.52c-0.343,1.547-0.137,3.119,0.615,4.71l0.084,0.055l9.68-5.554l-0.246-0.428
		c-0.819-1.427-1.932-2.366-3.341-2.817C52.311,89.305,50.914,89.477,49.53,90.271z"/>
	<path fill="#FFFFFF" d="M60.139,83.598l1.53,2.366l0.274,0.48c-0.187-1.227-0.055-2.34,0.396-3.34c0.451-1,1.236-1.822,2.362-2.468
		c0.198-0.115,0.392-0.205,0.577-0.271c0.187-0.067,0.349-0.117,0.491-0.152l0.279,0.667l-0.953,0.443
		c-1.254,0.72-2.042,1.708-2.359,2.966c-0.32,1.258-0.216,2.616,0.309,4.074l4.878,8.499l2.114-1.214l0.402,0.702l-4.931,2.829
		l-0.402-0.701l2.116-1.213L59.97,84.626l-2.116,1.214l-0.401-0.701l2.115-1.213L60.139,83.598z"/>
	<path fill="#FFFFFF" d="M82.028,90.064c-1.602,0.918-3.354,1.064-5.26,0.438c-1.906-0.625-3.41-1.899-4.511-3.819l-0.477-0.831
		c-1.156-2.014-1.55-4.005-1.184-5.97c0.368-1.964,1.378-3.421,3.03-4.369c1.584-0.909,3.174-1.13,4.767-0.665
		c1.596,0.465,2.895,1.571,3.897,3.318l0.618,1.078l-10.524,6.038l0.096,0.169l0.479,0.83c0.972,1.696,2.291,2.844,3.958,3.446
		c1.669,0.602,3.237,0.48,4.708-0.363c1.046-0.601,1.842-1.247,2.383-1.937c0.541-0.69,0.897-1.464,1.072-2.323l0.689,0.33
		c-0.201,0.932-0.607,1.782-1.219,2.552C83.942,88.756,83.101,89.449,82.028,90.064z M74.03,76.214
		c-1.393,0.799-2.26,1.974-2.604,3.521c-0.342,1.547-0.136,3.118,0.615,4.709l0.084,0.055l9.68-5.553l-0.244-0.428
		c-0.82-1.427-1.934-2.367-3.343-2.817C76.812,75.249,75.415,75.42,74.03,76.214z"/>
	<path fill="#FFFFFF" d="M89.605,84.423l2.115-1.214L84.47,70.571l-2.114,1.213l-0.402-0.701l2.724-1.564l1.751,2.841
		c-0.146-1.237,0.02-2.362,0.499-3.373c0.478-1.009,1.288-1.843,2.429-2.498c1.211-0.695,2.373-0.95,3.484-0.766
		c1.113,0.185,2.182,0.84,3.206,1.964c-0.313-1.407-0.24-2.688,0.219-3.843c0.46-1.153,1.319-2.093,2.583-2.818
		c1.549-0.889,3.016-1.058,4.401-0.507c1.385,0.551,2.7,1.912,3.946,4.083l4.19,7.307l2.116-1.214l0.401,0.701l-4.943,2.837
		l-0.402-0.7l2.116-1.214l-4.208-7.332c-1.166-2.034-2.353-3.26-3.562-3.683c-1.209-0.422-2.417-0.287-3.629,0.408
		c-1.488,0.854-2.356,1.947-2.604,3.279c-0.247,1.333-0.061,2.763,0.564,4.291c0.101,0.174,0.188,0.319,0.27,0.441
		c0.081,0.12,0.155,0.24,0.225,0.361l4.177,7.279l2.116-1.213l0.402,0.701l-4.945,2.836l-0.402-0.701l2.116-1.214l-4.206-7.33
		c-1.172-2.042-2.359-3.272-3.565-3.69c-1.205-0.417-2.419-0.277-3.639,0.423c-1.453,0.834-2.312,1.893-2.576,3.177
		c-0.264,1.284-0.11,2.665,0.461,4.142l4.766,8.305l2.114-1.214l0.402,0.701l-4.943,2.836L89.605,84.423z"/>
	<path fill="#FFFFFF" d="M111.747,54.922l-1.843,1.057l10.541,8.302l1.322,1.104l0.078-0.045l-0.041-0.251l-2.299-14.618
		l-1.843,1.058l-0.402-0.701l4.154-2.383l0.402,0.7l-1.531,0.879l3.023,19.1c0.185,1.205,0.202,2.262,0.051,3.171
		c-0.152,0.909-0.781,1.681-1.888,2.316c-0.165,0.094-0.354,0.184-0.571,0.269c-0.217,0.083-0.382,0.135-0.497,0.155l-0.264-0.729
		c0.109-0.029,0.269-0.085,0.474-0.167c0.205-0.083,0.359-0.154,0.463-0.214c0.797-0.457,1.282-1.046,1.461-1.77
		c0.177-0.722,0.176-1.642-0.004-2.757l-0.467-2.768l-12.929-10.209l-1.533,0.878l-0.4-0.7l4.14-2.375L111.747,54.922z"/>
</g>
<g>
	<path d="M48.894,80.066c0.468,0.36,0.858,0.812,1.169,1.354c0.318,0.553,0.511,1.134,0.581,1.74
		c0.07,0.606,0.028,1.196-0.127,1.768c-0.154,0.57-0.415,1.1-0.78,1.589c-0.368,0.487-0.827,0.891-1.381,1.208l-6.461,3.708
		l-1.483-2.585l1.292-0.742l-4.449-7.754l-1.292,0.742l-1.482-2.585l6.461-3.707c0.518-0.297,1.059-0.478,1.629-0.542
		c0.568-0.064,1.119-0.024,1.65,0.12c0.533,0.144,1.029,0.387,1.487,0.73c0.458,0.342,0.835,0.772,1.131,1.289
		c0.261,0.455,0.431,0.93,0.511,1.424c0.08,0.495,0.08,0.985-0.001,1.473C47.909,79.449,48.424,79.705,48.894,80.066z
		 M41.173,81.195l2.584-1.483c0.32-0.183,0.529-0.454,0.625-0.813c0.098-0.358,0.055-0.698-0.129-1.018
		c-0.184-0.32-0.455-0.529-0.813-0.625c-0.358-0.098-0.698-0.054-1.018,0.129l-2.584,1.483L41.173,81.195z M47.64,84.147
		c0.118-0.435,0.063-0.851-0.162-1.244c-0.225-0.394-0.558-0.651-0.993-0.768c-0.437-0.118-0.85-0.064-1.246,0.161l-2.584,1.483
		l1.631,2.844l2.584-1.483C47.267,84.914,47.522,84.584,47.64,84.147z"/>
	<path d="M65.861,77.681l-5.169,2.966l-1.483-2.586l1.218-0.699l-1.128-1.07l-3.988,2.288l0.354,1.515l1.218-0.699l1.483,2.585
		l-5.17,2.966l-1.483-2.585l1.257-0.72l-2.831-12.119l3.951-2.267l9.035,8.56l1.255-0.72L65.861,77.681z M53.653,70.944
		l-0.111,0.063l1.062,4.544l2.438-1.398L53.653,70.944z"/>
	<path d="M78.513,70.422l-5.169,2.966l-1.483-2.584l1.053-0.604l-2.367-1.39l-2.326,1.335l1.186,2.067l1.293-0.741l1.482,2.584
		l-5.17,2.966l-1.483-2.585l1.294-0.742l-4.449-7.754l-1.292,0.742l-1.483-2.585l6.128-3.517c0.575-0.312,1.17-0.499,1.792-0.56
		c0.617-0.061,1.219-0.013,1.8,0.144c0.581,0.158,1.122,0.424,1.623,0.799c0.501,0.375,0.915,0.846,1.24,1.412
		c0.382,0.665,0.589,1.355,0.623,2.072c0.036,0.715-0.073,1.398-0.321,2.049l3.422,1.987l1.126-0.646L78.513,70.422z M68.933,66.299
		c0.432-0.247,0.711-0.608,0.84-1.083c0.129-0.474,0.068-0.927-0.179-1.356c-0.247-0.431-0.606-0.711-1.081-0.839
		c-0.477-0.129-0.928-0.07-1.359,0.177l-2.197,1.261l1.779,3.102L68.933,66.299z"/>
	<path d="M83.611,55.473l-2.584,1.483l-0.742-1.292l-1.292,0.741l4.449,7.754l1.291-0.741l1.483,2.585l-5.169,2.966l-1.483-2.585
		l1.292-0.741l-4.449-7.754l-1.292,0.741l0.742,1.292l-2.585,1.483l-2.225-3.878l10.339-5.931L83.611,55.473z"/>
	<path d="M99.971,54.676l1.481,2.586l-5.169,2.965l-1.482-2.585l1.292-0.742l-1.483-2.584l-3.747,2.15l1.482,2.584l1.293-0.742
		l1.482,2.584l-5.17,2.966l-1.481-2.585l1.292-0.741l-4.449-7.754l-1.292,0.741l-1.483-2.585l5.169-2.965l1.483,2.584l-1.293,0.741
		l1.483,2.584l3.749-2.15l-1.483-2.584l-1.293,0.741l-1.482-2.585l5.169-2.966l1.483,2.586l-1.292,0.741l4.447,7.754L99.971,54.676z
		"/>
	<path d="M103.329,39.413c0.591-0.069,1.162-0.028,1.713,0.122c0.554,0.149,1.065,0.403,1.542,0.761
		c0.474,0.357,0.864,0.799,1.167,1.329l2.967,5.169c0.311,0.541,0.498,1.105,0.563,1.689c0.064,0.585,0.023,1.152-0.126,1.705
		c-0.149,0.552-0.402,1.066-0.761,1.541c-0.357,0.475-0.8,0.865-1.329,1.168l-2.585,1.483c-0.541,0.311-1.104,0.499-1.688,0.563
		c-0.584,0.066-1.152,0.023-1.703-0.126c-0.554-0.15-1.065-0.4-1.537-0.751c-0.471-0.351-0.862-0.798-1.174-1.339l-2.965-5.169
		c-0.304-0.529-0.49-1.089-0.559-1.679c-0.068-0.59-0.027-1.162,0.122-1.714c0.149-0.551,0.399-1.064,0.75-1.535
		c0.352-0.473,0.798-0.864,1.339-1.174l2.586-1.483C102.179,39.667,102.739,39.482,103.329,39.413z M104.264,42.41
		c-0.397-0.107-0.774-0.058-1.131,0.146l-2.585,1.483c-0.356,0.205-0.59,0.505-0.696,0.902c-0.107,0.396-0.06,0.773,0.146,1.131
		l2.966,5.169c0.205,0.357,0.507,0.589,0.902,0.697c0.396,0.107,0.774,0.059,1.132-0.146l2.584-1.483
		c0.357-0.205,0.589-0.505,0.697-0.902c0.107-0.396,0.058-0.773-0.146-1.131l-2.966-5.169
		C104.962,42.75,104.66,42.518,104.264,42.41z"/>
	<path d="M120.307,32.704l-1.292,0.742l3.707,6.461c0.311,0.541,0.499,1.104,0.563,1.689c0.066,0.583,0.023,1.152-0.126,1.704
		c-0.15,0.552-0.402,1.066-0.761,1.541c-0.357,0.475-0.801,0.864-1.33,1.167l-1.81,1.038c-0.541,0.312-1.104,0.499-1.688,0.564
		c-0.585,0.066-1.152,0.022-1.704-0.126c-0.552-0.149-1.064-0.399-1.535-0.751c-0.473-0.352-0.862-0.798-1.173-1.339l-3.708-6.462
		l-1.293,0.742l-1.483-2.585l5.17-2.965l1.483,2.584l-1.292,0.742l3.707,6.462c0.203,0.357,0.506,0.589,0.902,0.696
		c0.398,0.107,0.773,0.059,1.13-0.146l1.811-1.038c0.356-0.205,0.589-0.505,0.696-0.902c0.108-0.397,0.059-0.775-0.145-1.132
		l-3.708-6.461l-1.292,0.741l-1.482-2.585l5.17-2.966L120.307,32.704z"/>
	<path d="M136.355,33.802l1.069-0.614l1.483,2.585l-5.17,2.965l-1.483-2.584l0.797-0.456l-2.383-0.941l-0.389,2.53l0.813-0.467
		l1.482,2.586l-5.17,2.965l-1.481-2.585l1.052-0.604l0.865-5.551l-5.406-2.15l-0.96,0.551l-1.483-2.585l5.169-2.966l1.483,2.586
		l-0.905,0.519l2.547,1.018l0.426-2.723l-0.904,0.519l-1.483-2.584l5.17-2.966l1.481,2.585l-0.959,0.551l-0.871,5.75L136.355,33.802
		z"/>
</g>
<g>
	<path stroke="#000000" stroke-width="0.2" stroke-miterlimit="10" d="M56.282,167.225l-0.059,0.031
		c-0.183,0.088-0.413,0.027-0.523-0.162l-5.528-9.479c-0.11-0.189-0.044-0.441,0.146-0.553l0.044-0.027l1.86-1.084
		c2.806-1.635,6.429-0.67,8.065,2.139c1.636,2.803,0.676,6.402-2.13,8.039L56.282,167.225z M57.741,165.418
		c2.415-1.408,3.24-4.502,1.833-6.914c-1.416-2.43-4.515-3.232-6.937-1.84l-1.54,0.898l5.104,8.752L57.741,165.418z"/>
	<path stroke="#000000" stroke-width="0.2" stroke-miterlimit="10" d="M63.622,158.191c-1.153-1.98-0.545-4.479,1.374-5.596
		c1.832-1.068,4.134-0.463,5.365,1.313l0.008,0.014l0.025,0.047c0.11,0.188,0.025,0.412-0.162,0.523l-5.845,3.408
		c0.98,1.51,2.888,1.977,4.357,1.121c0.944-0.553,1.528-1.555,1.542-2.635c0-0.234,0.202-0.389,0.397-0.389
		c0.228,0.023,0.405,0.193,0.405,0.426c-0.042,1.332-0.731,2.59-1.938,3.295C67.23,160.836,64.757,160.139,63.622,158.191z
		 M64.032,157.189l5.393-3.145c-1.012-1.203-2.713-1.516-4.022-0.752C64.065,154.072,63.505,155.686,64.032,157.189z"/>
	<path stroke="#000000" stroke-width="0.2" stroke-miterlimit="10" d="M76.939,155.098c-0.069-0.02-0.139-0.035-0.21-0.092
		l-6.389-4.807c-0.174-0.135-0.205-0.389-0.088-0.553c0.132-0.176,0.4-0.215,0.561-0.072l5.643,4.229l-0.903-6.994
		c-0.044-0.209,0.124-0.424,0.341-0.451c0.217-0.029,0.407,0.133,0.437,0.348l1.02,7.861c0.02,0.066,0.024,0.143,0.015,0.227
		c-0.016,0.105-0.101,0.193-0.173,0.234c-0.044,0.027-0.073,0.045-0.125,0.055c-0.016,0.008-0.016,0.008-0.037,0.004
		C76.999,155.102,76.977,155.096,76.939,155.098z"/>
	<path stroke="#000000" stroke-width="0.2" stroke-miterlimit="10" d="M80.14,148.557c-1.152-1.979-0.546-4.477,1.374-5.596
		c1.831-1.068,4.133-0.461,5.364,1.314l0.009,0.014l0.026,0.047c0.109,0.188,0.025,0.412-0.164,0.521l-5.844,3.408
		c0.979,1.512,2.888,1.979,4.356,1.123c0.943-0.553,1.528-1.555,1.543-2.633c0-0.236,0.2-0.391,0.396-0.391
		c0.228,0.023,0.405,0.195,0.403,0.43c-0.041,1.328-0.73,2.586-1.936,3.291C83.75,151.205,81.275,150.504,80.14,148.557z
		 M80.55,147.557l5.394-3.145c-1.012-1.203-2.714-1.516-4.021-0.752C80.584,144.439,80.024,146.053,80.55,147.557z"/>
	<path stroke="#000000" stroke-width="0.2" stroke-miterlimit="10" d="M85.943,136.756c-0.11-0.189-0.043-0.441,0.146-0.555
		c0.204-0.117,0.457-0.049,0.567,0.137l5.527,9.482c0.109,0.186,0.044,0.441-0.16,0.559c-0.19,0.111-0.441,0.045-0.552-0.145
		L85.943,136.756z"/>
	<path stroke="#000000" stroke-width="0.2" stroke-miterlimit="10" d="M94.077,135.635c1.874-1.092,4.322-0.338,5.45,1.598
		c1.127,1.932,0.579,4.434-1.295,5.525c-1.862,1.088-4.323,0.34-5.452-1.592C91.654,139.23,92.216,136.723,94.077,135.635z
		 M97.824,142.059c1.454-0.846,1.93-2.838,1.005-4.42c-0.924-1.586-2.898-2.166-4.352-1.32c-1.454,0.85-1.924,2.855-0.998,4.439
		C94.403,142.342,96.37,142.91,97.824,142.059z"/>
	<path stroke="#000000" stroke-width="0.2" stroke-miterlimit="10" d="M102.272,135.785l-0.085-0.145l-0.084-0.146l-1.773-3.037
		c-0.109-0.189-0.042-0.443,0.145-0.555c0.205-0.115,0.459-0.051,0.568,0.139l0.602,1.031c0.129-1.184,0.795-2.313,1.897-2.957
		c1.922-1.119,4.371-0.424,5.507,1.523c1.128,1.934,0.543,4.438-1.376,5.557c-1.105,0.646-2.415,0.67-3.52,0.182l2.374,4.07
		c0.11,0.189,0.044,0.443-0.16,0.561c-0.187,0.111-0.44,0.043-0.551-0.145L102.272,135.785z M102.899,135.225
		c0.916,1.57,2.89,2.115,4.366,1.271c1.503-0.896,1.986-2.873,1.07-4.441c-0.916-1.572-2.864-2.109-4.376-1.225
		c-1.44,0.836-1.951,2.734-1.126,4.279L102.899,135.225z"/>
	<path stroke="#000000" stroke-width="0.2" stroke-miterlimit="10" d="M111.868,130.191l-0.084-0.148l-0.085-0.143l-1.771-3.041
		c-0.109-0.188-0.044-0.441,0.146-0.553c0.202-0.117,0.456-0.051,0.566,0.139l0.603,1.031c0.128-1.184,0.794-2.313,1.897-2.959
		c1.92-1.117,4.37-0.424,5.508,1.525c1.126,1.934,0.541,4.438-1.378,5.555c-1.104,0.646-2.416,0.67-3.518,0.182l2.372,4.072
		c0.111,0.188,0.044,0.441-0.158,0.561c-0.189,0.111-0.443,0.043-0.554-0.146L111.868,130.191z M112.496,129.629
		c0.916,1.568,2.889,2.113,4.366,1.271c1.504-0.895,1.986-2.873,1.07-4.441c-0.915-1.57-2.863-2.109-4.377-1.227
		c-1.438,0.84-1.949,2.734-1.126,4.279L112.496,129.629z"/>
	<path stroke="#000000" stroke-width="0.2" stroke-miterlimit="10" d="M120.753,124.873c-1.153-1.977-0.544-4.477,1.375-5.596
		c1.83-1.066,4.133-0.459,5.363,1.316l0.009,0.014l0.024,0.043c0.109,0.189,0.027,0.416-0.162,0.525l-5.845,3.406
		c0.98,1.512,2.89,1.979,4.357,1.121c0.945-0.549,1.528-1.555,1.542-2.633c0-0.232,0.202-0.389,0.397-0.387
		c0.228,0.023,0.404,0.191,0.404,0.426c-0.042,1.33-0.73,2.59-1.938,3.293C124.361,127.521,121.889,126.82,120.753,124.873z
		 M121.163,123.873l5.394-3.145c-1.013-1.201-2.713-1.516-4.022-0.754C121.198,120.756,120.637,122.371,121.163,123.873z"/>
	<path stroke="#000000" stroke-width="0.2" stroke-miterlimit="10" d="M128.082,116.256c-0.12-0.203-0.044-0.441,0.144-0.555
		c0.191-0.109,0.435-0.057,0.554,0.148l2.264,3.881c0.711,1.221,2.254,1.627,3.47,0.938c1.214-0.727,1.633-2.279,0.92-3.5
		l-2.263-3.879c-0.12-0.205-0.027-0.451,0.146-0.555c0.204-0.117,0.449-0.066,0.568,0.137l2.262,3.885
		c0.934,1.596,0.402,3.658-1.228,4.609c-1.598,0.932-3.64,0.371-4.574-1.229L128.082,116.256z"/>
	<path stroke="#000000" stroke-width="0.2" stroke-miterlimit="10" d="M137.157,111.002c-0.119-0.203-0.044-0.443,0.159-0.561
		c0.175-0.104,0.419-0.049,0.539,0.154l0.915,1.57c-0.004-0.076-0.009-0.15,0-0.234c0.046-1.158,0.465-2.607,1.832-3.406
		c0.189-0.111,0.435-0.059,0.553,0.146c0.111,0.189,0.045,0.439-0.146,0.553c-0.93,0.543-1.266,1.436-1.385,2.365
		c-0.108,0.918,0.038,1.807,0.107,2.156c0.004,0.076,0.023,0.105,0.038,0.133l1.822,3.125c0.12,0.205,0.044,0.445-0.13,0.545
		c-0.204,0.119-0.448,0.066-0.567-0.137L137.157,111.002z"/>
</g>
<g>
	<path fill="#FFFFFF" d="M45.1,146.346c-0.117,0.07-0.322,0.031-0.391-0.088c-0.091-0.156-0.023-0.35,0.094-0.42l4.432-2.584
		l0.039-0.021c0.136-0.08,0.302-0.02,0.394,0.137l2.891,4.957c0.012,0.02,0.023,0.039,0.015,0.068l0.022,0.039
		c0.015,0.072,0.018,0.121,0.002,0.184c-0.664,1.643-1.903,3.15-3.601,4.141c-3.994,2.303-9.065,1.049-11.342-2.855
		c-2.253-3.863-0.846-8.895,3.135-11.219c1.699-0.988,3.609-1.346,5.377-1.092c0.193,0.016,0.304,0.162,0.286,0.354
		c-0.022,0.143-0.206,0.277-0.36,0.236c-1.656-0.238-3.437,0.07-5.018,0.992c-3.708,2.164-4.997,6.863-2.914,10.434
		c2.118,3.631,6.831,4.805,10.538,2.641c1.522-0.887,2.652-2.225,3.294-3.723l-2.697-4.625L45.1,146.346z"/>
	<path fill="#FFFFFF" d="M55.313,142.744c-0.042-0.027-0.053-0.047-0.068-0.119l-2.606-4.469c-0.08-0.137-0.031-0.32,0.086-0.389
		c0.157-0.092,0.303-0.02,0.383,0.117l1.888,3.238c-0.048-0.441-0.081-0.947-0.055-1.482c0.093-1.547,0.595-3.514,2.429-4.584
		c0.156-0.092,0.322-0.027,0.402,0.107c0.08,0.137,0.05,0.309-0.106,0.4c-1.21,0.705-1.786,1.826-2.009,2.924
		c-0.228,1.18-0.127,2.428-0.028,3.182c0.094,0.521,0.152,0.801,0.152,0.801l2.606,4.469c0.092,0.156,0.071,0.299-0.086,0.391
		c-0.117,0.068-0.291,0.039-0.382-0.119L55.313,142.744z"/>
	<path fill="#FFFFFF" d="M68.682,128.803l5.28,9.055c0.092,0.156,0.051,0.311-0.085,0.393c-0.157,0.09-0.312,0.049-0.402-0.107
		l-1.389-2.381c0.169,1.994-0.728,3.955-2.483,4.979c-2.498,1.459-5.772,0.463-7.298-2.152c-1.526-2.615-0.779-5.955,1.72-7.41
		c1.757-1.023,3.916-0.82,5.558,0.289l-1.388-2.381c-0.069-0.115-0.051-0.311,0.104-0.402
		C68.437,128.605,68.613,128.684,68.682,128.803z M70.833,133.613c-1.377-2.361-4.307-3.215-6.513-1.928
		c-2.205,1.285-2.906,4.254-1.528,6.617c1.389,2.381,4.32,3.238,6.525,1.953C71.522,138.967,72.222,135.996,70.833,133.613z"/>
	<path fill="#FFFFFF" d="M75.497,131.076l-0.112-0.195l-0.114-0.195l-2.492-4.273c-0.092-0.156-0.051-0.309,0.105-0.4
		c0.137-0.08,0.291-0.041,0.382,0.115l1.378,2.363c-0.17-1.994,0.777-3.959,2.554-4.994c2.576-1.502,5.835-0.58,7.36,2.037
		c1.524,2.615,0.736,5.928-1.84,7.43c-1.777,1.035-3.965,0.871-5.594-0.219l3.857,6.615c0.092,0.156,0.051,0.313-0.086,0.393
		c-0.155,0.092-0.311,0.051-0.401-0.107L75.497,131.076z M75.872,130.598c1.365,2.342,4.324,3.154,6.549,1.857
		c2.244-1.311,2.995-4.285,1.629-6.625c-1.354-2.322-4.324-3.154-6.568-1.848c-2.167,1.264-2.943,4.15-1.712,6.439L75.872,130.598z"
		/>
	<path fill="#FFFFFF" d="M95.034,118.297c-1.092-1.873-3.472-2.498-5.345-1.406c-1.835,1.072-2.478,3.379-1.508,5.221l3.243,5.563
		c0.058,0.1,0.063,0.201,0.027,0.271c-0.027,0.045-0.055,0.086-0.073,0.096l-0.039,0.025c-0.059,0.033-0.129,0.047-0.21,0.041
		c-0.062-0.014-0.135-0.053-0.169-0.109l-0.023-0.039l-3.164-5.426l-0.091-0.158l-4.416-7.57c-0.079-0.139-0.031-0.322,0.106-0.402
		c0.136-0.08,0.303-0.02,0.382,0.115l3.415,5.855c-0.032-1.576,0.759-3.137,2.223-3.99c2.147-1.252,4.878-0.516,6.13,1.631
		l3.164,5.428c0.08,0.135,0.03,0.32-0.086,0.391c-0.155,0.09-0.323,0.029-0.402-0.107L95.034,118.297z"/>
	<path fill="#FFFFFF" d="M95.839,108.83c-0.091-0.154-0.05-0.311,0.106-0.4c0.117-0.068,0.292-0.039,0.382,0.117l0.273,0.467
		c0.069,0.119,0.021,0.305-0.098,0.375c-0.156,0.09-0.321,0.029-0.39-0.088L95.839,108.83z M97.627,111.895
		c-0.091-0.156-0.039-0.291,0.118-0.381c0.116-0.068,0.279-0.059,0.37,0.096l5.293,9.078c0.079,0.137,0.03,0.324-0.087,0.393
		c-0.156,0.09-0.322,0.027-0.402-0.107L97.627,111.895z"/>
	<path fill="#FFFFFF" d="M107.216,116.951c-0.155-0.041-0.265-0.186-0.224-0.34c0.04-0.156,0.184-0.268,0.339-0.225
		c0.031,0.008,2.166,0.438,4-0.633c1.736-1.014,2.568-2.859,1.841-4.109c-0.854-1.463-2.461-0.943-4.168-0.42
		c-1.74,0.518-3.704,1.141-4.75-0.656c-0.753-1.287,0.011-3.119,1.67-4.086c1.913-1.115,3.557-0.584,3.631-0.547
		c0.153,0.041,0.225,0.209,0.185,0.361c-0.06,0.166-0.228,0.238-0.363,0.186c-0.03-0.008-1.478-0.473-3.156,0.508
		c-1.387,0.807-2.051,2.268-1.459,3.281c0.809,1.387,2.316,0.926,4.075,0.396c1.768-0.559,3.762-1.174,4.844,0.682
		c0.897,1.539-0.016,3.695-2.065,4.893C109.585,117.426,107.308,116.973,107.216,116.951z"/>
	<path fill="#FFFFFF" d="M116.196,101.094c0.08,0.135,0.02,0.301-0.118,0.381l-1.561,0.91l4.439,7.613
		c0.318,0.547,1.028,0.732,1.576,0.414c0.136-0.08,0.309-0.049,0.39,0.088c0.08,0.137,0.03,0.322-0.105,0.4
		c-0.819,0.479-1.87,0.201-2.348-0.617l-4.44-7.613l-1.64,0.957c-0.136,0.08-0.31,0.049-0.39-0.086
		c-0.079-0.137-0.031-0.322,0.105-0.402l1.64-0.957l-2.229-3.824c-0.08-0.136-0.053-0.311,0.085-0.391
		c0.136-0.08,0.322-0.03,0.402,0.105l2.23,3.826l1.561-0.911C115.932,100.908,116.117,100.958,116.196,101.094z"/>
	<path fill="#FFFFFF" d="M121.978,103.791c-1.509-2.678-0.7-6,1.857-7.492c2.439-1.422,5.538-0.64,7.158,1.736l0.011,0.021
		l0.023,0.039l0.013,0.019c0.048,0.13,0.019,0.304-0.1,0.372l-8.508,4.962l0.033,0.057c1.364,2.344,4.348,3.195,6.662,1.873
		c1.445-0.842,2.258-2.363,2.296-3.957c0.01-0.162,0.146-0.242,0.317-0.264c0.131,0.002,0.263,0.137,0.252,0.299
		c-0.08,1.746-0.98,3.475-2.581,4.408C126.832,107.314,123.542,106.383,121.978,103.791z M122.179,102.967l8.236-4.802
		c-1.495-1.981-4.196-2.576-6.284-1.357C122.003,98.048,121.191,100.691,122.179,102.967z"/>
</g>
<g>
	<path d="M39.841,165.234c-0.98-0.293-1.827-0.953-2.367-1.881c-1.181-2.027-0.486-4.598,1.518-5.766
		c2.003-1.17,4.584-0.508,5.765,1.518c0.163,0.279,0.064,0.654-0.237,0.832c-0.28,0.164-0.656,0.064-0.819-0.215
		c-0.841-1.443-2.671-1.908-4.094-1.078c-1.422,0.828-1.919,2.648-1.077,4.094c0.502,0.859,1.408,1.373,2.318,1.449
		c0.282,0.037,0.52,0.246,0.538,0.525c0.041,0.119,0.005,0.258-0.043,0.369c-0.04,0.084-0.07,0.129-0.122,0.188
		c-0.861,1.398-0.96,3.158-0.08,4.668c1.244,2.133,4.007,2.859,6.141,1.615c2.133-1.244,2.86-4.006,1.616-6.139
		c-0.176-0.305-0.395-0.58-0.622-0.822c-0.263,0.096-0.478,0.221-0.672,0.334c-1.379,0.805-1.88,1.529-2.024,2.076
		c-0.144,0.545,0.009,1.006,0.21,1.35c0.126,0.215,0.258,0.342,0.328,0.414c0.241,0.266,0.253,0.633,0.045,0.871
		c-0.052,0.057-0.094,0.084-0.138,0.107c-0.258,0.15-0.528,0.137-0.73-0.064c-0.034-0.008-0.31-0.281-0.56-0.713
		c-0.302-0.518-0.6-1.324-0.314-2.271c0.251-0.955,1.016-1.922,2.567-2.824c0.238-0.139,0.518-0.303,0.78-0.398l0.13-0.074
		l0.064-0.037l0.151-0.09c0.211-0.182,0.376-0.393,0.464-0.59c0.073-0.271,0.101-0.518-0.164-0.971
		c-0.088-0.152-0.2-0.348-0.369-0.537c-0.249-0.229-0.219-0.621,0.023-0.85c0.264-0.242,0.636-0.197,0.873,0.01
		c0.219,0.275,0.392,0.523,0.53,0.76c0.458,0.686,0.475,1.455,0.21,2.045c-0.128,0.275-0.26,0.496-0.424,0.707
		c0.252,0.285,0.497,0.605,0.698,0.951c1.583,2.715,0.658,6.229-2.057,7.813c-2.715,1.584-6.229,0.658-7.813-2.057
		C39.116,168.893,39.077,166.895,39.841,165.234z"/>
</g>
<rect x="23.934" y="100.3" transform="matrix(0.8625 -0.5061 0.5061 0.8625 -39.7382 56.8918)" fill="#FFFFFF" width="121.758" height="2.529"/>
<rect x="-75.162" y="139.387" transform="matrix(0.8625 -0.5061 0.5061 0.8625 -66.8755 33.7936)" width="207.809" height="1.124"/>
<path d="M153.666,43.436h-14.45l-7.221,12.511l4.063,7.037h3.378c0.976,0,1.807-0.281,2.328-0.908
	c0.531-0.618,0.811-1.333,0.811-2.481V46.979l1.861,1.804v10.812c0,1.622-0.443,2.887-1.313,3.793
	c-0.877,0.917-2.096,1.372-3.657,1.372h-2.395l2.144,3.696h14.45l7.221-12.51L153.666,43.436z M152.449,63.379
	c-1.07,0.926-2.557,1.381-4.47,1.381h-3.466l1.758-1.786h1.815c1.312,0,2.404-0.28,3.146-0.917c0.744-0.637,0.937-1.438,0.937-2.577
	s-0.404-2.027-1.214-2.665c-0.813-0.637-1.942-0.965-3.38-0.965h-1.507l-0.01-1.766h1.323c1.157,0,2.132-0.271,2.789-0.821
	c0.657-0.56,0.927-1.235,0.927-2.22c0-0.994-0.396-1.66-1.006-2.182c-0.684-0.588-1.503-0.771-2.759-0.771h-0.85l-1.873-1.893h2.499
	c1.835,0,3.272,0.416,4.317,1.255c1.033,0.839,1.552,1.999,1.552,3.474c0,1.477-0.519,2.636-1.552,3.466
	c-0.184,0.145-0.376,0.28-0.599,0.406c0.568,0.241,1.071,0.531,1.505,0.869c1.14,0.927,1.717,2.21,1.717,3.862
	C154.062,61.178,153.521,62.452,152.449,63.379z"/>
<polygon fill="#FFFFFF" points="160.425,47.973 158.33,47.973 162.933,55.947 154.688,70.233 138.192,70.233 129.939,55.947 
	138.192,41.661 154.688,41.661 157.297,46.178 159.39,46.178 155.731,39.855 137.15,39.855 127.854,55.947 137.15,72.048 
	155.731,72.048 165.028,55.947 "/>
</svg>
