<?xml version="1.0" encoding="utf-8"?>
<!-- Generator: Adobe Illustrator 16.0.0, SVG Export Plug-In . SVG Version: 6.00 Build 0)  -->
<!DOCTYPE svg PUBLIC "-//W3C//DTD SVG 1.1//EN" "http://www.w3.org/Graphics/SVG/1.1/DTD/svg11.dtd">
<svg version="1.1" id="Layer_1" xmlns="http://www.w3.org/2000/svg" xmlns:xlink="http://www.w3.org/1999/xlink" x="0px" y="0px"
	 width="200px" height="70px" viewBox="0 0 200 70" enable-background="new 0 0 200 70" xml:space="preserve">
<path fill="#FFFFFF" d="M61.8,21.1v25.6H200V21.1H61.8z"/>
<path fill="#FFFFFF" d="M35.2,15.3H13.7L2.9,33.9l10.7,18.6h21.5l10.7-18.6L35.2,15.3z M32,47H16.9L9.3,33.9l7.6-13.1H32l7.6,13.1
	L32,47z"/>
<path fill="#FFFFFF" d="M38.6,3.3c-8.3,0-15.9,3.3-21.4,8.7h19.9l12.6,21.9L37.1,55.8H17.2c5.5,5.4,13.1,8.7,21.4,8.7
	c16.9,0,30.6-13.7,30.6-30.6C69.3,17,58,3.3,38.6,3.3z"/>
<circle fill="#FFFFFF" cx="24.4" cy="33.9" r="10.3"/>
</svg>
